<?xml version="1.0" standalone="no"?>
<!DOCTYPE svg PUBLIC "-//W3C//DTD SVG 20010904//EN"
 "http://www.w3.org/TR/2001/REC-SVG-20010904/DTD/svg10.dtd">
<svg version="1.0" xmlns="http://www.w3.org/2000/svg"
 width="708.000000pt" height="708.000000pt" viewBox="0 0 708.000000 708.000000"
 preserveAspectRatio="xMidYMid meet">
<metadata>
Created by potrace 1.14, written by Peter Selinger 2001-2017
</metadata>
<g transform="translate(0.000000,708.000000) scale(0.100000,-0.100000)"
fill="#000000" stroke="none">
<path d="M1019 7076 c-3 -3 -20 -8 -39 -11 -39 -7 -115 -41 -143 -64 -30 -25
-64 -91 -81 -156 -14 -54 -15 -396 -13 -3330 l2 -3270 21 -52 c12 -28 34 -67
49 -87 27 -36 113 -85 157 -90 13 -1 29 -5 35 -9 13 -8 3281 -3 3333 6 47 7
103 14 175 23 33 3 63 8 66 10 4 2 27 6 50 9 24 3 91 17 149 31 297 73 540
177 768 327 139 93 246 187 370 326 41 46 128 164 157 216 16 28 33 51 37 53
4 2 8 12 8 23 0 10 3 19 8 19 6 0 42 70 47 90 0 3 11 27 23 54 22 48 69 190
77 230 2 11 4 21 5 21 2 0 4 8 24 116 26 137 30 202 31 414 0 182 -6 290 -20
385 -28 181 -61 326 -90 397 -8 18 -12 33 -10 33 2 0 -12 37 -31 83 -114 268
-254 450 -480 627 -31 24 -133 90 -140 90 -3 0 -20 10 -37 22 -18 13 -33 22
-34 21 -2 -2 -94 37 -101 42 -1 1 -4 12 -7 23 -3 15 5 28 28 44 18 12 34 26
35 30 2 4 8 8 12 8 21 0 270 245 270 266 0 3 6 12 13 19 26 30 34 42 72 105
66 113 94 169 131 268 20 53 38 104 40 114 2 10 6 26 9 36 29 109 33 127 39
173 3 19 5 34 6 34 2 0 3 6 15 105 12 97 14 131 14 290 -1 125 -5 265 -9 265
-2 0 -6 29 -13 90 -28 229 -139 534 -259 714 -24 35 -47 71 -53 79 -27 41
-141 169 -194 216 -32 29 -46 42 -99 87 -85 73 -290 191 -442 254 -72 30 -255
91 -297 99 -16 3 -48 10 -73 16 -25 6 -58 13 -73 15 -16 2 -42 7 -58 10 -38 9
-69 13 -139 20 -30 3 -71 9 -90 12 -39 8 -3244 16 -3251 9z m1454 -1439 c9 8
217 9 217 0 0 -5 5 -5 10 -2 6 4 36 6 68 6 61 -1 105 -1 190 2 28 1 52 -2 52
-6 0 -5 5 -5 10 -2 6 4 36 6 68 6 61 -1 105 -1 190 2 28 1 52 -2 52 -6 0 -5 5
-5 10 -2 6 4 36 6 68 6 61 -1 105 -1 190 2 28 1 52 -1 52 -5 0 -4 13 -3 29 2
16 4 31 6 33 4 3 -2 45 -6 94 -9 83 -6 224 -35 262 -54 9 -5 39 -20 66 -32 42
-21 151 -116 181 -160 14 -19 66 -118 65 -121 -1 -2 1 -10 4 -18 2 -8 7 -28
11 -45 4 -16 7 -31 7 -32 21 -67 29 -247 14 -348 -8 -57 -14 -90 -16 -90 -1 0
-3 -11 -6 -25 -2 -14 -22 -62 -44 -106 -87 -178 -245 -277 -495 -310 -89 -11
-1476 -11 -1483 1 -3 5 -6 310 -6 677 l-1 667 30 3 c17 2 40 0 51 -4 12 -4 24
-4 27 -1z m1552 -2761 c80 -8 228 -46 237 -60 4 -6 8 -7 8 -3 0 10 70 -27 120
-63 116 -83 200 -225 225 -380 3 -19 8 -48 11 -64 13 -62 3 -343 -13 -369 -2
-4 -6 -20 -9 -35 -16 -97 -79 -209 -164 -290 -46 -45 -169 -119 -214 -129 -6
-1 -31 -7 -56 -14 -125 -31 -221 -35 -1010 -34 l-795 0 -1 720 c-1 396 0 722
1 725 4 7 1589 3 1660 -4z"/>
</g>
</svg>
