<?xml version="1.0" encoding="utf-8"?>
<!-- Generator: Adobe Illustrator 27.0.0, SVG Export Plug-In . SVG Version: 6.00 Build 0)  -->
<svg version="1.1" id="Слой_1" xmlns="http://www.w3.org/2000/svg" xmlns:xlink="http://www.w3.org/1999/xlink" x="0px" y="0px"
	 viewBox="0 0 408 355" style="enable-background:new 0 0 408 355;" xml:space="preserve">
<style type="text/css">
	.st0{fill:#38BFF2;}
	.st1{fill:none;stroke:#1A2E35;stroke-width:1.3333;stroke-linecap:round;stroke-linejoin:round;stroke-miterlimit:10;}
	.st2{opacity:0.3;}
	.st3{opacity:0.3;enable-background:new    ;}
	.st4{opacity:0.3;fill:#FFFFFF;enable-background:new    ;}
	.st5{fill:#1A2E35;}
	.st6{fill:#868686;stroke:#1A2E35;stroke-width:1.3333;stroke-linecap:round;stroke-linejoin:round;stroke-miterlimit:10;}
	.st7{fill:#9A9A9A;stroke:#1A2E35;stroke-width:1.3333;stroke-linecap:round;stroke-linejoin:round;stroke-miterlimit:10;}
	.st8{fill:#868686;}
	.st9{fill:#9A9A9A;}
	.st10{fill:#FFFFFF;}
	.st11{fill:none;stroke:#808080;stroke-linecap:round;stroke-linejoin:round;}
	.st12{fill:none;stroke:#808080;stroke-width:1.3333;stroke-linecap:round;stroke-linejoin:round;}
	.st13{fill:none;stroke:#1A2E35;stroke-linecap:round;stroke-linejoin:round;stroke-miterlimit:10;}
	.st14{opacity:0.4;}
	.st15{opacity:0.4;fill:#FFFFFF;enable-background:new    ;}
	.st16{fill:#1A2E35;stroke:#1A2E35;stroke-width:1.3333;stroke-linecap:round;stroke-linejoin:round;stroke-miterlimit:10;}
	.st17{fill:#38BFF2;stroke:#1A2E35;stroke-width:1.3333;stroke-miterlimit:10;}
	.st18{fill:none;stroke:#1A2E35;stroke-width:1.3333;stroke-miterlimit:10;}
</style>
<path class="st0" d="M319.5,231.6c-6.5,5.4-4.3,36.7-24.3,23.2c-20-13.5,14.1-21.5,12.1-29.1c-2.7-10.7-47.7,2.2-40.2-18.3
	c7.6-20.5,34.5,10.3,41.5,2.7c6.5-7-25.9-32.4-10.8-36.7c15.1-4.3,11.9,32.4,21.6,32.4c7.6,0,6.2-35.1,20.1-22.7
	c13.9,12.4-16.5,24.6-12.5,32.3c3,5.9,27-8.6,25.9,4.9C351.9,233.8,326.3,225.9,319.5,231.6z"/>
<path class="st1" d="M315.2,215.6c0,0,14.6,17.7,12.9,65.7"/>
<path class="st0" d="M286.8,240.5c2.6-5.2,24-8.7,11.7-20c-12.2-11.3-12.2,12.9-17.6,12.8c-7.6-0.1-6.1-32.4-18.7-24.1
	c-12.6,8.3,12.4,21.5,8.4,27.5c-3.7,5.5-25.9-12.3-26.4-1.4c-0.5,10.8,23.6,2.8,25.2,9.4c1.2,5.1-22.6,9.7-12,17.1
	c10.6,7.4,13.9-15,19.7-13.6c4.4,1.1-1.5,19.5,7.4,16.6C293.4,261.9,284.1,246,286.8,240.5z"/>
<g class="st2">
	<g class="st2">
		<path class="st3" d="M286.8,240.5c2.6-5.2,24-8.7,11.7-20c-12.2-11.3-12.2,12.9-17.6,12.8c-7.6-0.1-6.1-32.4-18.7-24.1
			c-12.6,8.3,12.4,21.5,8.4,27.5c-3.7,5.5-25.9-12.3-26.4-1.4c-0.5,10.8,23.6,2.8,25.2,9.4c1.2,5.1-22.6,9.7-12,17.1
			c10.6,7.4,13.9-15,19.7-13.6c4.4,1.1-1.5,19.5,7.4,16.6C293.4,261.9,284.1,246,286.8,240.5z"/>
	</g>
</g>
<path class="st1" d="M275.8,240.8c0,0,41.4-4.3,45.5,40.5"/>
<path class="st0" d="M354.8,235.9c6.5,5.4,4.3,36.7,24.3,23.2c20-13.5-14.1-21.5-12.1-29.1c2.7-10.7,47.7,2.2,40.2-18.3
	s-34.5,10.3-41.5,2.7c-6.5-7,25.9-32.4,10.8-36.7c-15.1-4.3-11.9,32.4-21.6,32.4c-7.6,0-6.2-35.1-20.1-22.7
	c-13.9,12.4,16.5,24.6,12.5,32.3c-3,5.9-27-8.6-25.9,4.9C322.5,238.1,348,230.3,354.8,235.9z"/>
<g class="st2">
	<g class="st2">
		<path class="st4" d="M354.8,235.9c6.5,5.4,4.3,36.7,24.3,23.2c20-13.5-14.1-21.5-12.1-29.1c2.7-10.7,47.7,2.2,40.2-18.3
			s-34.5,10.3-41.5,2.7c-6.5-7,25.9-32.4,10.8-36.7c-15.1-4.3-11.9,32.4-21.6,32.4c-7.6,0-6.2-35.1-20.1-22.7
			c-13.9,12.4,16.5,24.6,12.5,32.3c-3,5.9-27-8.6-25.9,4.9C322.5,238.1,348,230.3,354.8,235.9z"/>
	</g>
</g>
<path class="st1" d="M359.4,219.9c0,0-18.9,25.2-23.2,67.3"/>
<path class="st0" d="M345.9,353h-29.4c-5.6,0-10.3-4.3-10.8-9.9l-4.6-54.4c-0.5-6.3,4.5-11.8,10.8-11.8h38.7
	c6.4,0,11.3,5.4,10.8,11.8l-4.6,54.4C356.2,348.6,351.5,353,345.9,353z"/>
<path class="st1" d="M345.9,353h-29.4c-5.6,0-10.3-4.3-10.8-9.9l-4.6-54.4c-0.5-6.3,4.5-11.8,10.8-11.8h38.7
	c6.4,0,11.3,5.4,10.8,11.8l-4.6,54.4C356.2,348.6,351.5,353,345.9,353z"/>
<path class="st5" d="M125.6,274.9c9.8,0,38.2-6.4,38.2-6.4H87.3C87.3,268.5,115.7,274.9,125.6,274.9z"/>
<path class="st1" d="M125.6,274.9c9.8,0,38.2-6.4,38.2-6.4H87.3C87.3,268.5,115.7,274.9,125.6,274.9z"/>
<path class="st6" d="M116.8,283.7h17.5v-12h-17.5V283.7z"/>
<path class="st7" d="M114.2,335.3h22.7v-51.7h-22.7V335.3z"/>
<path class="st8" d="M82.9,253.1h14.8c-1.6-10.2-2.8-20.5-3.6-30.8H79.3C80,232.6,81.3,243,82.9,253.1z"/>
<path class="st1" d="M82.9,253.1h14.8c-1.6-10.2-2.8-20.5-3.6-30.8H79.3C80,232.6,81.3,243,82.9,253.1z"/>
<path class="st8" d="M60.5,131.3h63.6c7.5,0,12.4,6.3,10.9,13.8c-4.1,22.9-6.5,45.6-7.3,68.8c-0.1,6.7-5.2,11.9-12,11.9H62.2
	c-6.7,0-12.8-5.2-13.7-11.9c-2.6-23-3.5-45.7-2.8-68.8C46.1,137.7,53,131.3,60.5,131.3z"/>
<path class="st1" d="M60.5,131.3h63.6c7.5,0,12.4,6.3,10.9,13.8c-4.1,22.9-6.5,45.6-7.3,68.8c-0.1,6.7-5.2,11.9-12,11.9H62.2
	c-6.7,0-12.8-5.2-13.7-11.9c-2.6-23-3.5-45.7-2.8-68.8C46.1,137.7,53,131.3,60.5,131.3z"/>
<path class="st9" d="M57,145.1c-0.7,23.2,0.2,45.8,2.8,68.8c0.9,6.7,6.9,11.9,13.7,11.9h42.3c6.7,0,11.9-5.2,12-11.9
	c0.8-23.3,3.2-45.9,7.3-68.8c1.4-7.4-3.4-13.8-10.9-13.8H71.8C64.3,131.3,57.4,137.7,57,145.1z"/>
<path class="st1" d="M57,145.1c-0.7,23.2,0.2,45.8,2.8,68.8c0.9,6.7,6.9,11.9,13.7,11.9h42.3c6.7,0,11.9-5.2,12-11.9
	c0.8-23.3,3.2-45.9,7.3-68.8c1.4-7.4-3.4-13.8-10.9-13.8H71.8C64.3,131.3,57.4,137.7,57,145.1z"/>
<path class="st5" d="M87.3,344.6c0,1.2,1.1,2.1,2.3,1.9c7-1.5,27.8-5.9,35.9-5.9c8.1,0,29,4.4,35.9,5.9c1.2,0.3,2.3-0.6,2.3-1.9
	c0-2.4-1.6-4.4-3.9-4.9c-8.1-1.8-26.7-5.6-34.3-5.6c-7.6,0-26.2,3.8-34.3,5.6C88.9,340.2,87.3,342.3,87.3,344.6z"/>
<path class="st1" d="M87.3,344.6c0,1.2,1.1,2.1,2.3,1.9c7-1.5,27.8-5.9,35.9-5.9c8.1,0,29,4.4,35.9,5.9c1.2,0.3,2.3-0.6,2.3-1.9
	c0-2.4-1.6-4.4-3.9-4.9c-8.1-1.8-26.7-5.6-34.3-5.6c-7.6,0-26.2,3.8-34.3,5.6C88.9,340.2,87.3,342.3,87.3,344.6z"/>
<path class="st8" d="M163.8,350.9c2,0,3.5-1.6,3.5-3.5c0-2-1.6-3.5-3.5-3.5c-2,0-3.5,1.6-3.5,3.5
	C160.3,349.3,161.8,350.9,163.8,350.9z M163.8,340.8c3.6,0,6.5,2.9,6.5,6.5s-2.9,6.5-6.5,6.5c-3.6,0-6.5-2.9-6.5-6.5
	S160.2,340.8,163.8,340.8z"/>
<path class="st1" d="M163.8,350.9c2,0,3.5-1.6,3.5-3.5c0-2-1.6-3.5-3.5-3.5c-2,0-3.5,1.6-3.5,3.5
	C160.3,349.3,161.8,350.9,163.8,350.9z M163.8,340.8c3.6,0,6.5,2.9,6.5,6.5s-2.9,6.5-6.5,6.5c-3.6,0-6.5-2.9-6.5-6.5
	S160.2,340.8,163.8,340.8z"/>
<path class="st8" d="M125.6,350.9c2,0,3.5-1.6,3.5-3.5c0-2-1.6-3.5-3.5-3.5c-2,0-3.5,1.6-3.5,3.5C122,349.3,123.6,350.9,125.6,350.9
	z M125.6,340.8c3.6,0,6.5,2.9,6.5,6.5s-2.9,6.5-6.5,6.5s-6.5-2.9-6.5-6.5S121.9,340.8,125.6,340.8z"/>
<path class="st1" d="M125.6,350.9c2,0,3.5-1.6,3.5-3.5c0-2-1.6-3.5-3.5-3.5c-2,0-3.5,1.6-3.5,3.5C122,349.3,123.6,350.9,125.6,350.9
	z M125.6,340.8c3.6,0,6.5,2.9,6.5,6.5s-2.9,6.5-6.5,6.5s-6.5-2.9-6.5-6.5S121.9,340.8,125.6,340.8z"/>
<path class="st8" d="M88.1,350.9c2,0,3.5-1.6,3.5-3.5c0-2-1.6-3.5-3.5-3.5c-2,0-3.5,1.6-3.5,3.5C84.6,349.3,86.1,350.9,88.1,350.9z
	 M88.1,340.8c3.6,0,6.5,2.9,6.5,6.5s-2.9,6.5-6.5,6.5c-3.6,0-6.5-2.9-6.5-6.5S84.5,340.8,88.1,340.8z"/>
<path class="st1" d="M88.1,350.9c2,0,3.5-1.6,3.5-3.5c0-2-1.6-3.5-3.5-3.5c-2,0-3.5,1.6-3.5,3.5C84.6,349.3,86.1,350.9,88.1,350.9z
	 M88.1,340.8c3.6,0,6.5,2.9,6.5,6.5s-2.9,6.5-6.5,6.5c-3.6,0-6.5-2.9-6.5-6.5S84.5,340.8,88.1,340.8z"/>
<path class="st9" d="M106.2,251.1c25.7,0.8,50.9-0.3,76.4-3.4c5.2-0.7,9.4,2.9,9.4,8.1v1.2c0,5.2-4.2,10.1-9.4,10.8
	c-25.6,3.1-50.7,4.2-76.4,3.4V251.1z"/>
<path class="st1" d="M106.2,251.1c25.7,0.8,50.9-0.3,76.4-3.4c5.2-0.7,9.4,2.9,9.4,8.1v1.2c0,5.2-4.2,10.1-9.4,10.8
	c-25.6,3.1-50.7,4.2-76.4,3.4V251.1z"/>
<path class="st8" d="M66.1,267.5c15.8,2,31.6,3.3,47.5,4c3.9,0.1,7-3,7-6.9v-6.1c0-3.9-3.2-7.1-7-7.2c-16-0.7-31.7-2-47.5-4
	c-3.9-0.5-7,2.1-7,6v6.1C59.1,263.3,62.2,267,66.1,267.5z"/>
<path class="st1" d="M66.1,267.5c15.8,2,31.6,3.3,47.5,4c3.9,0.1,7-3,7-6.9v-6.1c0-3.9-3.2-7.1-7-7.2c-16-0.7-31.7-2-47.5-4
	c-3.9-0.5-7,2.1-7,6v6.1C59.1,263.3,62.2,267,66.1,267.5z"/>
<path class="st10" d="M172.2,350.5c0-3.6,0.8-10.7,5-19.9l5.5-19.7l17.1,7.3l-4.8,15.1c0,0,14.7,7,20.1,8.9
	c3.6,1.3,14.4,3.7,13.9,8.4c0,1.4-1.1,2.5-2.5,2.5h-51.7C173.3,353,172.1,351.8,172.2,350.5z"/>
<path class="st1" d="M172.2,350.5c0-3.6,0.8-10.7,5-19.9l5.5-19.7l17.1,7.3l-4.8,15.1c0,0,14.7,7,20.1,8.9
	c3.6,1.3,14.4,3.7,13.9,8.4c0,1.4-1.1,2.5-2.5,2.5h-51.7C173.3,353,172.1,351.8,172.2,350.5z"/>
<path class="st0" d="M181.6,338.9c2.7,2,16.9,4.4,13.3,1.6c-3.6-2.8,0-7.3,0-7.3s14.7,7,20.1,8.9c3.6,1.3,14.4,3.7,13.9,8.4
	c0,1.4-1.1,2.5-2.5,2.5h-51.7c-1.4,0-2.5-1.1-2.5-2.5c0-3,0.6-8.6,3.3-15.8C178.4,334.7,178.9,337,181.6,338.9z"/>
<path class="st1" d="M181.6,338.9c2.7,2,16.9,4.4,13.3,1.6c-3.6-2.8,0-7.3,0-7.3s14.7,7,20.1,8.9c3.6,1.3,14.4,3.7,13.9,8.4
	c0,1.4-1.1,2.5-2.5,2.5h-51.7c-1.4,0-2.5-1.1-2.5-2.5c0-3,0.6-8.6,3.3-15.8C178.4,334.7,178.9,337,181.6,338.9z"/>
<path class="st10" d="M159.8,353H122c-0.8,0-1.4-0.6-1.6-1.3c-0.6-3-0.4-9.7,3-18.7l0.3-18.1l19.4,3.3l-2.5,15.5
	c0,0,7.8,8.6,11.5,10.1c2.6,1.1,8.5,1.2,9.3,7.4C161.6,352.1,160.8,353,159.8,353z"/>
<path class="st1" d="M159.8,353H122c-0.8,0-1.4-0.6-1.6-1.3c-0.6-3-0.4-9.7,3-18.7l0.3-18.1l19.4,3.3l-2.5,15.5
	c0,0,7.8,8.6,11.5,10.1c2.6,1.1,8.5,1.2,9.3,7.4C161.6,352.1,160.8,353,159.8,353z"/>
<path class="st0" d="M129.7,339c4,2.8,6.9,3.1,5.1-1.1c-1.9-4.2,5.8-4.3,5.8-4.3s7.8,8.6,11.5,10.1c2.6,1.1,8.5,1.2,9.3,7.4
	c0.1,1-0.6,1.8-1.6,1.8H122c-0.8,0-1.5-0.6-1.6-1.3c-0.6-3-0.4-9.7,3-18.7C126.3,333.7,125.7,336.2,129.7,339z"/>
<path class="st1" d="M129.7,339c4,2.8,6.9,3.1,5.1-1.1c-1.9-4.2,5.8-4.3,5.8-4.3s7.8,8.6,11.5,10.1c2.6,1.1,8.5,1.2,9.3,7.4
	c0.1,1-0.6,1.8-1.6,1.8H122c-0.8,0-1.5-0.6-1.6-1.3c-0.6-3-0.4-9.7,3-18.7C126.3,333.7,125.7,336.2,129.7,339z"/>
<path class="st5" d="M163.6,214.5c0,0,3.8,3.9,19.4,6.4c15.6,2.5,47.9,10.3,47.6,23.1c-0.4,12.8-30.2,81-30.2,81s-14.9-2.8-21.9-7.1
	c0,0,12-48.7,21-61.5c0,0-40.4-5-62.8-14.2s-9.2-30.3-9.2-30.3L163.6,214.5z"/>
<path class="st1" d="M163.6,214.5c0,0,3.8,3.9,19.4,6.4c15.6,2.5,47.9,10.3,47.6,23.1c-0.4,12.8-30.2,81-30.2,81s-14.9-2.8-21.9-7.1
	c0,0,12-48.7,21-61.5c0,0-40.4-5-62.8-14.2s-9.2-30.3-9.2-30.3L163.6,214.5z"/>
<path class="st5" d="M138.2,212.7c0,0-5.7,9.6-1.4,14.9c4.3,5.3,28.6,15.3,25.9,27.4c-2.7,12.1-11.8,29.1-17.8,69.7
	c0,0-13.8-2.1-23-6c0,0-1.5-41.2,9.2-59c0,0-30.7-5.7-33.8-16c-3.1-10.3,2.7-26.1,2.8-31.7L138.2,212.7z"/>
<path class="st1" d="M138.2,212.7c0,0-5.7,9.6-1.4,14.9c4.3,5.3,28.6,15.3,25.9,27.4c-2.7,12.1-11.8,29.1-17.8,69.7
	c0,0-13.8-2.1-23-6c0,0-1.5-41.2,9.2-59c0,0-30.7-5.7-33.8-16c-3.1-10.3,2.7-26.1,2.8-31.7L138.2,212.7z"/>
<path class="st11" d="M156.7,228c0.7,0,1.4,0,2.1,0"/>
<path class="st11" d="M155.3,221.6c0,0-6.3,1.9-8.8,10.1c-0.2,0.7,0.6,1.1,1.1,0.7c1.3-1.3,3.4-3,6.1-3.8"/>
<path class="st11" d="M202.5,256c0-3.5,14.9-5.3,10.9-8.5c-4-3.2-13.1,7.2-13.1,7.2"/>
<path class="st11" d="M129.2,269.9c0-4,14.3-6.1,13.6-10.4c-0.7-4.3-9.8,4.1-9.8,4.1"/>
<path class="st9" d="M201.9,325.3l-1.6,3.6c-0.2,0.4-0.6,0.6-1.1,0.5c-3.4-0.8-17.8-4.2-22.9-7.8c-0.3-0.2-0.4-0.6-0.3-1l1-4
	c0.1-0.6,0.8-0.9,1.4-0.6c2.3,1.2,8.6,4.2,22.9,8C201.9,324.2,202.2,324.8,201.9,325.3z"/>
<path class="st1" d="M201.9,325.3l-1.6,3.6c-0.2,0.4-0.6,0.6-1.1,0.5c-3.4-0.8-17.8-4.2-22.9-7.8c-0.3-0.2-0.4-0.6-0.3-1l1-4
	c0.1-0.6,0.8-0.9,1.4-0.6c2.3,1.2,8.6,4.2,22.9,8C201.9,324.2,202.2,324.8,201.9,325.3z"/>
<path class="st9" d="M146.6,322.3c0.1-0.5-0.4-1-1-0.8c-1,0.4-2.8,0.7-5.4,0.1c-4-0.9-15.3-4.5-18.6-5.6c-0.5-0.2-1,0.2-1,0.7v4.7
	c0,0.3,0.2,0.6,0.4,0.7c2.6,1.2,16.8,7.2,24.2,5.6c0.3-0.1,0.5-0.3,0.6-0.6L146.6,322.3z"/>
<path class="st1" d="M146.6,322.3c0.1-0.5-0.4-1-1-0.8c-1,0.4-2.8,0.7-5.4,0.1c-4-0.9-15.3-4.5-18.6-5.6c-0.5-0.2-1,0.2-1,0.7v4.7
	c0,0.3,0.2,0.6,0.4,0.7c2.6,1.2,16.8,7.2,24.2,5.6c0.3-0.1,0.5-0.3,0.6-0.6L146.6,322.3z"/>
<path class="st12" d="M135.2,223.6c0.1,1.5,0.6,2.9,1.5,4c3.1,3.9,16.9,10.2,23.1,18.1"/>
<path class="st12" d="M135.8,218.2c-0.2,0.8-0.4,1.6-0.5,2.4"/>
<path class="st1" d="M217.5,344.5c0,0-1.1,1.7-1.9,5.1h-38.5c0,0-0.1-2.6-2.1-4.4"/>
<path class="st1" d="M150.6,344.5c0,0-5.3,0.4-7.3,5.1h-20.1c0,0-1.1-2.4-1.1-4.4"/>
<path class="st0" d="M182.2,154.2c-0.5,1.9-1,3.7-1.5,5.6c-5.3,19.2-12.3,55.7-12.3,55.7c-34.1,7.2-70.1,0-70.1,0
	c-0.2-8,0.8-18.5,1.9-29.5c-5.6-1.5-9.6-6.7-9.8-15.3c-0.3-10.4,1.6-29.1,2.7-37.9c0.9-7.7,0.3-12.3,12.2-18.1
	c6-3.4,15.9-5.1,28.1-6.7c24-3.2,41.3,1.6,47.4,4.3c4.9-1.3,6.2,4.4,6.2,4.4c2.7-2,5.8,6.6,5.8,6.6c7.9,10.1,14.1,27,16.2,33.1
	c0.5,1.3,1.3,2.5,2.4,3.3c5.6,4.3,2.5,9.5,2.5,9.5l-11.5,3.5c0,0-5.6,1.4-9.8-5.9C189,160.9,183.2,150.5,182.2,154.2z"/>
<g class="st2">
	<g class="st2">
		<path class="st3" d="M200.2,168c0,0,0.3-5.3,4.5-6.3s-1.2-2.5-4.5-1.7c-3.3,0.8-2.6-2.1-5.4-6.9c-2.9-4.8-4.2-8.6-6.7-5.8
			c-2.4,2.8-4.9,3.1-5.9,7c-1,3.8,4,12.7,4,12.7l8,6.2l4,2.3h6l2.1-5.2L200.2,168z"/>
	</g>
</g>
<path class="st1" d="M182.2,154.2c-0.5,1.9-1,3.7-1.5,5.6c-5.3,19.2-12.3,55.7-12.3,55.7c-34.1,7.2-70.1,0-70.1,0
	c-0.2-8,0.8-18.5,1.9-29.5c-5.6-1.5-9.6-6.7-9.8-15.3c-0.3-10.4,1.6-29.1,2.7-37.9c0.9-7.7,0.3-12.3,12.2-18.1
	c6-3.4,15.9-5.1,28.1-6.7c24-3.2,41.3,1.6,47.4,4.3c4.9-1.3,6.2,4.4,6.2,4.4c2.7-2,5.8,6.6,5.8,6.6c7.9,10.1,14.1,27,16.2,33.1
	c0.5,1.3,1.3,2.5,2.4,3.3c5.6,4.3,2.5,9.5,2.5,9.5l-11.5,3.5c0,0-5.6,1.4-9.8-5.9C189,160.9,183.2,150.5,182.2,154.2z"/>
<g class="st2">
	<g class="st2">
		<path class="st3" d="M98.3,215.5c-0.1-5.8,0.3-12.9,1-20.5c-1.2,16.2,32.6,21.3,33.7,12.5c1.1-8.8-32.9-21.5-14.4-17.1
			c16.1,3.9,47.3,0.2,55-0.8c-3,13.9-5.2,25.9-5.2,25.9C134.3,222.7,98.3,215.5,98.3,215.5z"/>
	</g>
</g>
<g class="st2">
	<g class="st2">
		<path class="st3" d="M113.8,133.9c0,0,4.8,14.1,4.8,21.6c0,7.5,13.5,12.5,13.6,12.5c-7.3-1.5-14.3-3.4-17.7-4.4
			c-1.2-0.3-2-1.5-1.9-2.7C113.3,153.2,114,142.9,113.8,133.9L113.8,133.9z"/>
	</g>
</g>
<path class="st13" d="M186.6,130.4c0,0,0.2,10.2-3.6,19.5c-0.3,0.9,0.6,1.7,1.4,1.1c1.8-1.3,4.4-4,6.8-9.4"/>
<path class="st13" d="M96.2,173.9c2.8-9.3,7.7-11.7,11.5-11.9c0.6,0,0.8-0.8,0.3-1.1c-2.2-1.2-6.5-2.1-11.7,3.7"/>
<path class="st9" d="M150.2,147.2c0,0.9,0.7,1.6,1.6,1.6c0.9,0,1.6-0.7,1.6-1.6c0-0.9-0.7-1.6-1.6-1.6
	C151,145.6,150.2,146.3,150.2,147.2z"/>
<path class="st13" d="M150.2,147.2c0,0.9,0.7,1.6,1.6,1.6c0.9,0,1.6-0.7,1.6-1.6c0-0.9-0.7-1.6-1.6-1.6
	C151,145.6,150.2,146.3,150.2,147.2z"/>
<path class="st9" d="M148.1,165.4c0,0.9,0.7,1.6,1.6,1.6c0.9,0,1.6-0.7,1.6-1.6c0-0.9-0.7-1.6-1.6-1.6
	C148.8,163.8,148.1,164.5,148.1,165.4z"/>
<path class="st13" d="M148.1,165.4c0,0.9,0.7,1.6,1.6,1.6c0.9,0,1.6-0.7,1.6-1.6c0-0.9-0.7-1.6-1.6-1.6
	C148.8,163.8,148.1,164.5,148.1,165.4z"/>
<path class="st9" d="M142.7,209.1c0,0.9,0.7,1.6,1.6,1.6c0.9,0,1.6-0.7,1.6-1.6c0-0.9-0.7-1.6-1.6-1.6
	C143.4,207.5,142.7,208.2,142.7,209.1z"/>
<path class="st1" d="M142.7,209.1c0,0.9,0.7,1.6,1.6,1.6c0.9,0,1.6-0.7,1.6-1.6c0-0.9-0.7-1.6-1.6-1.6
	C143.4,207.5,142.7,208.2,142.7,209.1z"/>
<path class="st10" d="M173.3,177.3c0,0,5.2,5,2.7,5.1c-2.5,0.1-5.6-3.3-8.5-3.7c-2.9-0.4,1.8-2.2,1.8-2.2L173.3,177.3z"/>
<path class="st1" d="M173.3,177.3c0,0,5.2,5,2.7,5.1c-2.5,0.1-5.6-3.3-8.5-3.7c-2.9-0.4,1.8-2.2,1.8-2.2L173.3,177.3z"/>
<path class="st10" d="M142.8,171.6c0.5-0.4,1.1-0.6,1.7-0.6c2.6,0.2,9.9,0.8,12.7,0.6c4.9-0.3,19.4-3.4,19.4-3.4
	c0.3-0.1,0.7,0,1,0.1l9,2.6c0.3,0.1,0.6,0.3,0.9,0.5l5.4,5c0.2,0.2,0.3,0.4,0.4,0.6l1.1,2.1c0.5,0.9,0.3,2-0.4,2.7l-9,0.3
	c-0.6,0-1.1-0.2-1.5-0.5l-2.7-2.3c-0.2-0.2-0.3-0.3-0.5-0.5c-0.7-1.1-3.2-4.6-7.1-4.2c0,0,8.5,4.5,6.9,6.4
	c-1.6,1.9-8.1-3.5-10.3-2.9c-2.1,0.5-2.3,5.8-13.9,3.9c-0.5-0.1-1-0.1-1.6,0.1l-10.6,3c-1.3,0.4-2.7-0.4-3-1.8
	C140.2,180,139.5,174.6,142.8,171.6z"/>
<path class="st1" d="M142.8,171.6c0.5-0.4,1.1-0.6,1.7-0.6c2.6,0.2,9.9,0.8,12.7,0.6c4.9-0.3,19.4-3.4,19.4-3.4c0.3-0.1,0.7,0,1,0.1
	l9,2.6c0.3,0.1,0.6,0.3,0.9,0.5l5.4,5c0.2,0.2,0.3,0.4,0.4,0.6l1.1,2.1c0.5,0.9,0.3,2-0.4,2.7l-9,0.3c-0.6,0-1.1-0.2-1.5-0.5
	l-2.7-2.3c-0.2-0.2-0.3-0.3-0.5-0.5c-0.7-1.1-3.2-4.6-7.1-4.2c0,0,8.5,4.5,6.9,6.4c-1.6,1.9-8.1-3.5-10.3-2.9
	c-2.1,0.5-2.3,5.8-13.9,3.9c-0.5-0.1-1-0.1-1.6,0.1l-10.6,3c-1.3,0.4-2.7-0.4-3-1.8C140.2,180,139.5,174.6,142.8,171.6z"/>
<path class="st10" d="M175.4,170.2l2.3,0.4c1.1,0.2,2.1,0.7,3,1.4l2.4,2.1c0.4,0.4,0.8,0.8,1.1,1.2l1.5,2.4c0.2,0.3,0.4,0.5,0.6,0.7
	c0.9,1,3.4,4,0.7,3.6"/>
<path class="st1" d="M175.4,170.2l2.3,0.4c1.1,0.2,2.1,0.7,3,1.4l2.4,2.1c0.4,0.4,0.8,0.8,1.1,1.2l1.5,2.4c0.2,0.3,0.4,0.5,0.6,0.7
	c0.9,1,3.4,4,0.7,3.6"/>
<path class="st10" d="M181.7,171l2.3,0.6c0.7,0.2,1.4,0.6,1.9,1.1l1.8,1.8c0.2,0.2,0.3,0.3,0.5,0.5l3,4c0,0,1.6,2.8,0,2.9"/>
<path class="st1" d="M181.7,171l2.3,0.6c0.7,0.2,1.4,0.6,1.9,1.1l1.8,1.8c0.2,0.2,0.3,0.3,0.5,0.5l3,4c0,0,1.6,2.8,0,2.9"/>
<path class="st1" d="M113.7,131.7c0.4,9.5-0.4,20.9-1.1,29.2c-0.1,1.2,0.7,2.4,1.9,2.7c4.7,1.3,16.3,4.6,25.8,5.8"/>
<path class="st13" d="M113.2,125.1c0.1,1.1,0.3,2.2,0.3,3.4"/>
<path class="st13" d="M109.6,115.1c1.2,1.1,2.1,3,2.8,5.6"/>
<path class="st10" d="M163,108.8c0,0-0.7-2.1-4.3-3.3c-3.6-1.2-16.1-3.1-22.5,0c-6.4,3.1,5.9,20.1,5.9,20.1l5.7,7.9l5.1,3.8l2.3-6.8
	l2.9-3c0,0,6.3-5.2,5.8-10.3C163.4,111.9,163,108.8,163,108.8z"/>
<path class="st0" d="M136.8,108c8.5,26.6,15.9,27.8,15.9,27.8c2.5-9.8,4.6-7.6,8-13.7c2.7-4.9,1.8-11.1,1.3-13.4
	c-0.1-0.5-0.5-1-1-1.3c-8.4-4.3-18.7-2.7-22.9-1.8C137.1,105.9,136.5,107,136.8,108z M131.5,108.3c1-3.5,5.6-4.5,5.6-4.5
	c21.9-3.7,26.5,4.2,26.5,4.2c4.4,12.4,0,22.4,0,22.4s-6.2-2.6-7.3,0c-1.1,2.6-3,8.1-3,8.1s-4.3-2.1-7.6-6.6c-3.4-4.4-11.3,0-11.3,0
	C129.2,123,131.5,108.3,131.5,108.3z"/>
<g class="st14">
	<g class="st14">
		<path class="st15" d="M136.8,108c8.5,26.6,15.9,27.8,15.9,27.8c2.5-9.8,4.6-7.6,8-13.7c2.7-4.9,1.8-11.1,1.3-13.4
			c-0.1-0.5-0.5-1-1-1.3c-8.4-4.3-18.7-2.7-22.9-1.8C137.1,105.9,136.5,107,136.8,108z M131.5,108.3c1-3.5,5.6-4.5,5.6-4.5
			c21.9-3.7,26.5,4.2,26.5,4.2c4.4,12.4,0,22.4,0,22.4s-6.2-2.6-7.3,0c-1.1,2.6-3,8.1-3,8.1s-4.3-2.1-7.6-6.6
			c-3.4-4.4-11.3,0-11.3,0C129.2,123,131.5,108.3,131.5,108.3z"/>
	</g>
</g>
<path class="st1" d="M136.8,108c8.5,26.6,15.9,27.8,15.9,27.8c2.5-9.8,4.6-7.6,8-13.7c2.7-4.9,1.8-11.1,1.3-13.4
	c-0.1-0.5-0.5-1-1-1.3c-8.4-4.3-18.7-2.7-22.9-1.8C137.1,105.9,136.5,107,136.8,108z M131.5,108.3c1-3.5,5.6-4.5,5.6-4.5
	c21.9-3.7,26.5,4.2,26.5,4.2c4.4,12.4,0,22.4,0,22.4s-6.2-2.6-7.3,0c-1.1,2.6-3,8.1-3,8.1s-4.3-2.1-7.6-6.6c-3.4-4.4-11.3,0-11.3,0
	C129.2,123,131.5,108.3,131.5,108.3L131.5,108.3z"/>
<path class="st5" d="M167.2,67.7c0,0,18.8,3.8,8.5,16C164.2,97.3,167.2,67.7,167.2,67.7z"/>
<path class="st1" d="M167.2,67.7c0,0,18.8,3.8,8.5,16C164.2,97.3,167.2,67.7,167.2,67.7z"/>
<path class="st10" d="M174.7,97.6c0,0,4.5-18.1-4.1-26.8c-8.5-8.7-17.8-10.5-24.7-6.2c-6.9,4.3-9.8,14.9-8.7,20.4
	c1.1,5.5,0.5,25.2,10,33.4c9.5,8.2,15.3,6.2,21.6-5C173,106.1,175,104,174.7,97.6z"/>
<path class="st1" d="M174.7,97.6c0,0,4.5-18.1-4.1-26.8c-8.5-8.7-17.8-10.5-24.7-6.2c-6.9,4.3-9.8,14.9-8.7,20.4
	c1.1,5.5,0.5,25.2,10,33.4c9.5,8.2,15.3,6.2,21.6-5C173,106.1,175,104,174.7,97.6z"/>
<path class="st5" d="M141.6,94c0,0,7.2-7.1,9.4-15.5c2.2-8.4,3.4-9.8,11.6-5.7c8.2,4.1,20.9-1.4,17.6-11.7
	c-3.5-10.8-14.2,3.2-24.5-0.4c-10.3-3.6-17.6,2.8-17.6,12.3c0,0-6.2,6,0,21.7L141.6,94z"/>
<path class="st1" d="M141.6,94c0,0,7.2-7.1,9.4-15.5c2.2-8.4,3.4-9.8,11.6-5.7c8.2,4.1,20.9-1.4,17.6-11.7
	c-3.5-10.8-14.2,3.2-24.5-0.4c-10.3-3.6-17.6,2.8-17.6,12.3c0,0-6.2,6,0,21.7L141.6,94z"/>
<path class="st10" d="M143.9,92.9c0,0-1.8-9.9-6.9-9c-5,0.9-1.4,15.6,4.5,14"/>
<path class="st1" d="M143.9,92.9c0,0-1.8-9.9-6.9-9c-5,0.9-1.4,15.6,4.5,14"/>
<path class="st10" d="M167.8,96.2c0,0,2,9.2,1.3,10.8c-0.6,1.6-6.7,0.4-6.7,0.4"/>
<path class="st1" d="M167.8,96.2c0,0,2,9.2,1.3,10.8c-0.6,1.6-6.7,0.4-6.7,0.4"/>
<path class="st10" d="M161.6,111.4c0,0-4.8,1.9-9-4.4L161.6,111.4z"/>
<path class="st1" d="M161.6,111.4c0,0-4.8,1.9-9-4.4"/>
<path class="st5" d="M171.1,97c-0.2,0.9,0,1.6,0.5,1.7c0.5,0.1,1-0.5,1.1-1.4c0.2-0.9,0-1.6-0.5-1.7C171.8,95.5,171.3,96.1,171.1,97
	z"/>
<path class="st5" d="M159.4,96.1c-0.2,0.9,0,1.6,0.5,1.7c0.5,0.1,1-0.5,1.1-1.4c0.2-0.9,0-1.6-0.5-1.7
	C160.1,94.6,159.6,95.2,159.4,96.1z"/>
<path class="st1" d="M168.7,96.6c-0.2,2.4,2.2,4.6,5.4,5c3.2,0.3,6.1-1.4,6.3-3.8c0.2-2.4-2.3-3.5-5.5-3.8
	C171.6,93.6,168.9,94.2,168.7,96.6z"/>
<path class="st1" d="M153.6,95.1c-0.2,2.4,2.2,4.6,5.4,5c3.2,0.3,6.1-1.4,6.3-3.8c0.2-2.4-2.3-3.5-5.5-3.8
	C156.5,92.1,153.8,92.7,153.6,95.1z"/>
<path class="st10" d="M168.7,96.6l-3.4-0.3L168.7,96.6z"/>
<path class="st1" d="M168.7,96.6l-3.4-0.3"/>
<path class="st10" d="M154,93.9l-12.4-7.3L154,93.9z"/>
<path class="st1" d="M154,93.9l-12.4-7.3"/>
<path class="st10" d="M139.5,105.2l-0.6,1.4L139.5,105.2z"/>
<path class="st1" d="M139.5,105.2l-0.6,1.4"/>
<path class="st10" d="M175.6,92.7c0,0-1.9-2.4-4.2-1.2L175.6,92.7z"/>
<path class="st1" d="M175.6,92.7c0,0-1.9-2.4-4.2-1.2"/>
<path class="st10" d="M156.3,91.6c0,0,3.3-3.2,6.5-0.9L156.3,91.6z"/>
<path class="st1" d="M156.3,91.6c0,0,3.3-3.2,6.5-0.9"/>
<path class="st12" d="M171.5,62.4c-5,1.6-13.5,3.6-20.5,1.5c-10.6-3.2-7,8.7-9.4,12"/>
<path class="st12" d="M175.8,60.8c0,0-0.8,0.4-2.3,0.9"/>
<path class="st12" d="M163.1,68.3c-0.6-0.2-1.2-0.4-1.8-0.6"/>
<path class="st12" d="M174.6,66.9c0,0-2.3,3.5-9.5,1.9"/>
<path class="st12" d="M147.6,73.7c-0.4,3-1.6,7.4-4.5,11.4"/>
<path class="st12" d="M147.9,70c0,0,0,0.7-0.1,1.9"/>
<g class="st2">
	<g class="st2">
		<path class="st3" d="M138.4,184.3c0.9,0.8,0.4,2.2-0.8,2.2c-7.2,0-26.6,0.1-34.2-0.3c-9.3-0.5-2.2-10.7,5.3-6.8
			C115.6,182.9,130.2,177,138.4,184.3z"/>
	</g>
</g>
<path class="st10" d="M219.6,174.3c0,0-4.4-11.6-15.3-9.8c-11,1.9-2.6,11,2.7,11.8C206.9,176.4,207.7,173.2,219.6,174.3z"/>
<path class="st1" d="M219.6,174.3c0,0-4.4-11.6-15.3-9.8c-11,1.9-2.6,11,2.7,11.8C206.9,176.4,207.7,173.2,219.6,174.3z"/>
<path class="st10" d="M228.8,180.9c1.4,1.4,4.9,1.6,2.6-1.6c-2.6-3.5-5.5-4.6-7.5-5.5c-5.2-2.3-7.2-1.9-11.9-2.9
	c-4.7-1-5.6,0.9-7.2,1.8c-3.9,2.1-4.8,2.5-5.8,4.6c-1,2.1-2,4.9,1,4.9c2.8,0,2.9-4.6,5.6-4.4c2.7,0.2,4,4.4,5.9,4.4h0.7
	c1.6,0,1.7-1.3,0.7-3.4c-1-2.1-2-4-2-4s2.3,1.1,3.6,3.8c1.3,2.7,1.5,3.9,3.9,3.9c2.4,0,2.2-1.7-0.2-5.6c0,0,2.1,1.2,3.3,3.3
	c1.2,2.2,1.8,2,3.3,2c2,0,1.8-3.3-1.7-5.4C223,176.9,223.8,175.9,228.8,180.9z"/>
<path class="st1" d="M228.8,180.9c1.4,1.4,4.9,1.6,2.6-1.6c-2.6-3.5-5.5-4.6-7.5-5.5c-5.2-2.3-7.2-1.9-11.9-2.9
	c-4.7-1-5.6,0.9-7.2,1.8c-3.9,2.1-4.8,2.5-5.8,4.6c-1,2.1-2,4.9,1,4.9c2.8,0,2.9-4.6,5.6-4.4c2.7,0.2,4,4.4,5.9,4.4h0.7
	c1.6,0,1.7-1.3,0.7-3.4c-1-2.1-2-4-2-4s2.3,1.1,3.6,3.8c1.3,2.7,1.5,3.9,3.9,3.9c2.4,0,2.2-1.7-0.2-5.6c0,0,2.1,1.2,3.3,3.3
	c1.2,2.2,1.8,2,3.3,2c2,0,1.8-3.3-1.7-5.4C223,176.9,223.8,175.9,228.8,180.9z"/>
<path class="st10" d="M215.1,173.1c0,0,1.4-0.1,2.2,2.3L215.1,173.1z"/>
<path class="st13" d="M215.1,173.1c0,0,1.4-0.1,2.2,2.3"/>
<path class="st8" d="M290.4,353.1h4l1.1-157h-5V353.1z"/>
<path class="st1" d="M290.4,353.1h4l1.1-157h-5V353.1z"/>
<path class="st9" d="M286.5,353.1h4v-157h-5L286.5,353.1z"/>
<path class="st1" d="M286.5,353.1h4v-157h-5L286.5,353.1z"/>
<path class="st16" d="M64.7,196.1h271v-9.6h-271V196.1z"/>
<path class="st6" d="M8,196.1h60.7v-9.6H8V196.1z"/>
<path class="st17" d="M52.4,212h269.5v-15.8H52.4V212z"/>
<path class="st0" d="M52.4,212H21v-15.8h31.4V212z"/>
<g class="st2">
	<path class="st3" d="M52.4,212H21v-15.8h31.4V212z"/>
</g>
<path class="st18" d="M52.4,212H21v-15.8h31.4V212z"/>
<path class="st8" d="M52.4,353.1h4l1.1-157h-5V353.1z"/>
<path class="st1" d="M52.4,353.1h4l1.1-157h-5V353.1z"/>
<path class="st9" d="M48.4,353.1h4v-157h-5L48.4,353.1z"/>
<path class="st1" d="M48.4,353.1h4v-157h-5L48.4,353.1z"/>
<path class="st8" d="M321.8,353.1h4l1.1-157h-5V353.1z"/>
<path class="st1" d="M321.8,353.1h4l1.1-157h-5V353.1z"/>
<path class="st9" d="M317.9,353.1h4v-157h-5L317.9,353.1z"/>
<path class="st1" d="M317.9,353.1h4v-157h-5L317.9,353.1z"/>
<path class="st8" d="M21,353.1h4l1.1-157h-5V353.1z"/>
<path class="st1" d="M21,353.1h4l1.1-157h-5V353.1z"/>
<path class="st9" d="M17,353.1h4v-157h-5L17,353.1z"/>
<path class="st1" d="M17,353.1h4v-157h-5L17,353.1z"/>
<path class="st8" d="M160.6,185.5h31.8c0.6,0,1.2-0.5,1.2-1.2v-2.6l-34.1,1.1v1.6C159.4,184.9,159.9,185.5,160.6,185.5z"/>
<path class="st1" d="M160.6,185.5h31.8c0.6,0,1.2-0.5,1.2-1.2v-2.6l-34.1,1.1v1.6C159.4,184.9,159.9,185.5,160.6,185.5z"/>
<path class="st9" d="M197,185.5h63.9c1,0,2-0.8,2.3-1.8l13.7-44.5c0.4-1.2-0.4-2.3-1.6-2.3h-63.9c-1,0-2,0.8-2.3,1.8l-13.7,44.5
	C195.1,184.4,195.8,185.5,197,185.5z"/>
<path class="st1" d="M197,185.5h63.9c1,0,2-0.8,2.3-1.8l13.7-44.5c0.4-1.2-0.4-2.3-1.6-2.3h-63.9c-1,0-2,0.8-2.3,1.8l-13.7,44.5
	C195.1,184.4,195.8,185.5,197,185.5z"/>
<path class="st8" d="M192.6,183.1l13.7-44.5c0.3-1,1.3-1.8,2.3-1.8h2.9c-1,0-2,0.8-2.3,1.8l-13.7,44.5c-0.4,1.2,0.4,2.3,1.6,2.3
	h-2.9C192.9,185.5,192.2,184.4,192.6,183.1z"/>
<path class="st1" d="M192.6,183.1l13.7-44.5c0.3-1,1.3-1.8,2.3-1.8h2.9c-1,0-2,0.8-2.3,1.8l-13.7,44.5c-0.4,1.2,0.4,2.3,1.6,2.3
	h-2.9C192.9,185.5,192.2,184.4,192.6,183.1z"/>
<path class="st10" d="M232.2,161.2c-0.3,2.2,1.3,4,3.5,4c2.2,0,4.2-1.8,4.4-4c0.3-2.2-1.3-3.9-3.5-3.9
	C234.5,157.2,232.5,159,232.2,161.2z"/>
<path class="st1" d="M232.2,161.2c-0.3,2.2,1.3,4,3.5,4c2.2,0,4.2-1.8,4.4-4c0.3-2.2-1.3-3.9-3.5-3.9
	C234.5,157.2,232.5,159,232.2,161.2z"/>
</svg>
