<?xml version="1.0" encoding="utf-8"?>
<!-- Generator: Adobe Illustrator 27.0.0, SVG Export Plug-In . SVG Version: 6.00 Build 0)  -->
<svg version="1.1" id="Слой_1" xmlns="http://www.w3.org/2000/svg" xmlns:xlink="http://www.w3.org/1999/xlink" x="0px" y="0px"
	 viewBox="0 0 1209 1420" style="enable-background:new 0 0 1209 1420;" xml:space="preserve">
<style type="text/css">
	.st0{fill:#FFFFFF;fill-opacity:0.5;}
	.st1{fill:#FFFFFF;fill-opacity:0.3;}
	.st2{fill:url(#SVGID_1_);}
	.st3{fill:none;stroke:url(#SVGID_00000026149853779290346600000009877961121727988414_);stroke-width:2;}
	.st4{fill:url(#SVGID_00000104689865261958749680000013196128330328755877_);}
	.st5{fill:none;stroke:url(#SVGID_00000145036085987488774780000006197289339418018472_);stroke-width:2;}
	.st6{fill:url(#SVGID_00000106861526248649460310000001889175579752947106_);}
	.st7{fill:none;stroke:url(#SVGID_00000138532384991134767530000007055811799184154763_);stroke-width:2;}
	.st8{fill:url(#SVGID_00000142159822695454460260000018317267193236914576_);}
	.st9{fill:none;stroke:url(#SVGID_00000172436394549295744880000004650095006753984187_);stroke-width:2;}
	.st10{fill:#E6E7E8;}
	.st11{fill:url(#SVGID_00000018936964666473987400000015882849811807413936_);}
	.st12{fill:url(#SVGID_00000075843909730171120960000012020487064333535887_);}
	.st13{fill:url(#SVGID_00000161603783754363342160000011687758687234340740_);}
	.st14{fill:#252526;}
	.st15{fill:#262627;}
	.st16{fill:#282828;}
	.st17{fill:#29292A;}
	.st18{fill:#2A2A2B;}
	.st19{fill:#2C2C2C;}
	.st20{fill:#2D2D2D;}
	.st21{fill:#2E2E2F;}
	.st22{fill:#212122;}
	.st23{fill:url(#SVGID_00000094607385379030940060000010422461971498028948_);}
	.st24{fill:url(#SVGID_00000026134738558251713630000012356180251554615189_);}
	.st25{fill:#21D4FD;}
	.st26{fill:#D7E8F1;}
	.st27{fill:#231F20;}
	.st28{fill:#373738;}
	.st29{fill:#E0DFD7;}
	.st30{fill:#F0EDE2;}
	.st31{fill:none;}
	.st32{fill:#F7F3F1;}
	.st33{fill:url(#SVGID_00000018235371732890566860000002245463032801137320_);}
	.st34{display:none;fill:#21D4FD;}
	.st35{fill:#0091D1;}
</style>
<g>
	<circle class="st0" cx="874.5" cy="345.5" r="852.5"/>
</g>
<g>
	<circle class="st1" cx="874.5" cy="345.5" r="618.1"/>
	
		<linearGradient id="SVGID_1_" gradientUnits="userSpaceOnUse" x1="2022.3646" y1="1267.0323" x2="347.2365" y2="982.9827" gradientTransform="matrix(1 0 0 -1 0 1417.89)">
		<stop  offset="0" style="stop-color:#FFFFFF"/>
		<stop  offset="1" style="stop-color:#FFFFFF;stop-opacity:0"/>
	</linearGradient>
	<circle class="st2" cx="874.5" cy="345.5" r="618.1"/>
	
		<linearGradient id="SVGID_00000091725969679677515760000010972222842790600884_" gradientUnits="userSpaceOnUse" x1="538.0337" y1="1436.402" x2="1182.5837" y2="739.0823" gradientTransform="matrix(1 0 0 -1 0 1417.89)">
		<stop  offset="0" style="stop-color:#FFFFFF"/>
		<stop  offset="1" style="stop-color:#FFFFFF;stop-opacity:0"/>
	</linearGradient>
	
		<circle style="fill:none;stroke:url(#SVGID_00000091725969679677515760000010972222842790600884_);stroke-width:2;" cx="874.5" cy="345.5" r="617.1"/>
</g>
<g>
	<circle class="st1" cx="874.5" cy="345.5" r="453.8"/>
	
		<linearGradient id="SVGID_00000007400391611579279700000004475544987055437701_" gradientUnits="userSpaceOnUse" x1="1717.2635" y1="1215.2972" x2="487.3866" y2="1006.7473" gradientTransform="matrix(1 0 0 -1 0 1417.89)">
		<stop  offset="0" style="stop-color:#FFFFFF"/>
		<stop  offset="1" style="stop-color:#FFFFFF;stop-opacity:0"/>
	</linearGradient>
	<circle style="fill:url(#SVGID_00000007400391611579279700000004475544987055437701_);" cx="874.5" cy="345.5" r="453.8"/>
	
		<linearGradient id="SVGID_00000066504165304999554160000008161495208039618988_" gradientUnits="userSpaceOnUse" x1="627.4665" y1="1339.6412" x2="1100.7065" y2="827.6703" gradientTransform="matrix(1 0 0 -1 0 1417.89)">
		<stop  offset="0" style="stop-color:#FFFFFF"/>
		<stop  offset="1" style="stop-color:#FFFFFF;stop-opacity:0"/>
	</linearGradient>
	
		<circle style="fill:none;stroke:url(#SVGID_00000066504165304999554160000008161495208039618988_);stroke-width:2;" cx="874.5" cy="345.5" r="452.8"/>
</g>
<g>
	<circle class="st1" cx="874.5" cy="345.5" r="313.6"/>
	
		<linearGradient id="SVGID_00000065071900168078925970000016273732628463093160_" gradientUnits="userSpaceOnUse" x1="1456.8048" y1="1171.1322" x2="607.0258" y2="1027.0343" gradientTransform="matrix(1 0 0 -1 0 1417.89)">
		<stop  offset="0" style="stop-color:#FFFFFF"/>
		<stop  offset="1" style="stop-color:#FFFFFF;stop-opacity:0"/>
	</linearGradient>
	<circle style="fill:url(#SVGID_00000065071900168078925970000016273732628463093160_);" cx="874.5" cy="345.5" r="313.6"/>
	
		<linearGradient id="SVGID_00000003089897540807810560000003233723531735028415_" gradientUnits="userSpaceOnUse" x1="703.814" y1="1257.0471" x2="1030.7939" y2="903.3011" gradientTransform="matrix(1 0 0 -1 0 1417.89)">
		<stop  offset="0" style="stop-color:#FFFFFF"/>
		<stop  offset="1" style="stop-color:#FFFFFF;stop-opacity:0"/>
	</linearGradient>
	
		<circle style="fill:none;stroke:url(#SVGID_00000003089897540807810560000003233723531735028415_);stroke-width:2;" cx="874.5" cy="345.5" r="312.6"/>
</g>
<g>
	<circle class="st1" cx="874.5" cy="345.5" r="199.7"/>
	
		<linearGradient id="SVGID_00000057857899394709403300000004832531683747754126_" gradientUnits="userSpaceOnUse" x1="1245.3525" y1="1135.2733" x2="704.1476" y2="1043.5043" gradientTransform="matrix(1 0 0 -1 0 1417.89)">
		<stop  offset="0" style="stop-color:#FFFFFF"/>
		<stop  offset="1" style="stop-color:#FFFFFF;stop-opacity:0"/>
	</linearGradient>
	<circle style="fill:url(#SVGID_00000057857899394709403300000004832531683747754126_);" cx="874.5" cy="345.5" r="199.7"/>
	
		<linearGradient id="SVGID_00000108304689429778927020000017870752766807442599_" gradientUnits="userSpaceOnUse" x1="765.7946" y1="1189.9922" x2="974.0416" y2="964.7015" gradientTransform="matrix(1 0 0 -1 0 1417.89)">
		<stop  offset="0" style="stop-color:#FFFFFF"/>
		<stop  offset="1" style="stop-color:#FFFFFF;stop-opacity:0"/>
	</linearGradient>
	
		<circle style="fill:none;stroke:url(#SVGID_00000108304689429778927020000017870752766807442599_);stroke-width:2;" cx="874.5" cy="345.5" r="198.7"/>
</g>
<g>
	<g id="Vectorportal.com">
		<g>
			<g>
				<path class="st10" d="M1079.8,409.7l-100.4-59.4l-73.3,42.3c-3,1.7-5.4,5.4-5.4,8.2V415l83.1,49.2L1079.8,409.7L1079.8,409.7z"
					/>
				<path class="st10" d="M1048.7,408.2l-82.7-48l-66.6,38.5c-3,1.7-5.4,5.4-5.4,8.2l0.1,24.1l57.5,33.4c6.6,3.9,17.6,3.9,24.3,0
					l72.8-42C1055.3,418.4,1055.3,412,1048.7,408.2L1048.7,408.2z"/>
				<path class="st10" d="M926.5,258.8c7.9-4.6,20.8-4.6,28.7,0l115.3,67c7.8,4.6,7.8,12.1-0.1,16.6L844.3,473.1
					c-7.9,4.6-20.8,4.6-28.7,0l-115.3-67c-7.8-4.6-7.8-12.1,0.1-16.6L926.5,258.8L926.5,258.8z"/>
			</g>
			
				<linearGradient id="SVGID_00000008840775851308904710000004917248313419629721_" gradientUnits="userSpaceOnUse" x1="714.7531" y1="-3227.123" x2="1038.9448" y2="-3227.123" gradientTransform="matrix(1 0 0 -1 0 -2862.1101)">
				<stop  offset="0" style="stop-color:#231F20"/>
				<stop  offset="0.16" style="stop-color:#302D2F"/>
				<stop  offset="0.47" style="stop-color:#464547"/>
				<stop  offset="0.76" style="stop-color:#535455"/>
				<stop  offset="1" style="stop-color:#58595B"/>
			</linearGradient>
			<path style="fill:url(#SVGID_00000008840775851308904710000004917248313419629721_);" d="M1038.6,269.7c0,0.2,0,0.3-0.1,0.5
				c0,0.2,0,0.3-0.1,0.5c0,0.2-0.1,0.3-0.1,0.4c-0.1,0.2-0.1,0.3-0.2,0.5c-0.1,0.2-0.1,0.3-0.2,0.4c-0.1,0.2-0.2,0.3-0.3,0.5
				c-0.1,0.1-0.2,0.3-0.3,0.3c-0.1,0.2-0.3,0.4-0.4,0.6c-0.1,0.1-0.2,0.3-0.3,0.3c-0.2,0.3-0.4,0.5-0.7,0.7
				c-0.1,0.1-0.3,0.3-0.3,0.3c-0.2,0.1-0.3,0.3-0.4,0.4c-0.2,0.2-0.3,0.3-0.5,0.4c-0.2,0.1-0.3,0.3-0.5,0.3
				c-0.3,0.2-0.6,0.4-0.9,0.6L841.8,387.5c-0.5,0.3-1.1,0.6-1.7,0.9c-0.2,0.1-0.3,0.2-0.5,0.2c-0.5,0.2-0.9,0.4-1.5,0.5
				c-0.2,0-0.3,0.1-0.4,0.2c-0.3,0.1-0.5,0.2-0.8,0.2s-0.5,0.2-0.8,0.2s-0.5,0.1-0.8,0.2c-0.3,0.1-0.5,0.1-0.8,0.2
				c-0.6,0.1-1.3,0.2-1.9,0.3c-0.2,0-0.4,0-0.6,0.1c-0.4,0-0.8,0.1-1.2,0.1c-0.3,0-0.5,0-0.8,0c-0.3,0-0.6,0-0.9,0
				c-0.3,0-0.5,0-0.8,0c-0.3,0-0.6,0-0.9,0c-0.3,0-0.5,0-0.8-0.1c-0.3,0-0.6-0.1-0.9-0.1c-0.3,0-0.5-0.1-0.8-0.1
				c-0.3,0-0.6-0.1-0.9-0.2c-0.3,0-0.4-0.1-0.7-0.2c-0.3-0.1-0.7-0.2-1-0.3c-0.2-0.1-0.4-0.1-0.6-0.2c-0.6-0.2-1.3-0.3-1.8-0.6
				c-0.3-0.1-0.6-0.3-0.9-0.3c-0.2-0.1-0.3-0.2-0.4-0.2c-0.4-0.2-0.9-0.4-1.3-0.7l-97.7-56.8c-1.2-0.7-2.2-1.5-3-2.4
				c-1.3-1.5-2-3-2-4.6l0,0l0.2,70.1c0,2.6,1.6,5.1,5,7l97.7,56.8c0.4,0.3,0.9,0.4,1.3,0.7c0.2,0.1,0.3,0.2,0.4,0.2
				c0.3,0.1,0.5,0.3,0.9,0.3l0,0c0.6,0.3,1.2,0.4,1.8,0.6c0.1,0,0.1,0,0.2,0.1c0.2,0,0.3,0.1,0.4,0.1c0.3,0.1,0.7,0.2,1,0.3
				c0.1,0,0.2,0.1,0.3,0.1c0.1,0,0.3,0,0.3,0.1c0.3,0.1,0.6,0.1,0.9,0.2c0.2,0,0.3,0.1,0.4,0.1c0.1,0,0.3,0,0.3,0
				c0.3,0,0.6,0.1,0.9,0.1c0.2,0,0.3,0,0.4,0.1c0.1,0,0.2,0,0.3,0c0.3,0,0.6,0,0.9,0c0.2,0,0.3,0,0.5,0c0.1,0,0.2,0,0.3,0
				c0.3,0,0.6,0,0.9,0c0.2,0,0.3,0,0.5,0c0.1,0,0.2,0,0.3,0c0.4,0,0.8-0.1,1.2-0.1c0.2,0,0.3,0,0.4,0h0.1c0.7-0.1,1.3-0.2,1.9-0.3
				h0.1c0.3,0,0.4-0.1,0.7-0.2c0.3-0.1,0.5-0.1,0.8-0.2c0.3-0.1,0.5-0.2,0.8-0.2c0.3-0.1,0.5-0.2,0.8-0.2c0,0,0.1,0,0.2,0
				c0.1,0,0.2-0.1,0.3-0.1c0.5-0.2,1-0.3,1.5-0.5c0.2-0.1,0.3-0.2,0.5-0.2c0.6-0.3,1.1-0.5,1.7-0.9l191.8-110.7
				c0.2-0.1,0.3-0.3,0.6-0.3c0.1-0.1,0.2-0.2,0.3-0.3c0.2-0.1,0.3-0.3,0.5-0.3c0.2-0.2,0.3-0.3,0.5-0.4c0.2-0.1,0.3-0.3,0.4-0.3
				c0.1-0.1,0.2-0.1,0.2-0.2c0.1-0.1,0.1-0.1,0.2-0.2c0.3-0.3,0.4-0.4,0.7-0.7c0.1-0.1,0.2-0.2,0.2-0.2s0.1-0.1,0.1-0.2
				c0.2-0.2,0.3-0.4,0.4-0.6c0.1-0.1,0.2-0.2,0.2-0.3c0,0,0-0.1,0.1-0.1c0.1-0.2,0.2-0.3,0.3-0.5c0.1-0.1,0.1-0.3,0.2-0.3v-0.1
				c0.1-0.2,0.1-0.3,0.2-0.5c0-0.1,0.1-0.3,0.1-0.4c0,0,0,0,0-0.1c0-0.2,0.1-0.3,0.1-0.5c0-0.1,0-0.3,0.1-0.4v-0.1L1038.6,269.7
				L1038.6,269.7z"/>
			<g>
				
					<linearGradient id="SVGID_00000154410675406019612640000013814200532475814795_" gradientUnits="userSpaceOnUse" x1="724.6664" y1="-3269.0967" x2="843.6229" y2="-3222.0049" gradientTransform="matrix(1 0 0 -1 0 -2862.1101)">
					<stop  offset="0" style="stop-color:#404041"/>
					<stop  offset="0.26" style="stop-color:#343233"/>
					<stop  offset="0.66" style="stop-color:#272425"/>
					<stop  offset="1" style="stop-color:#231F20"/>
				</linearGradient>
				<path style="fill:url(#SVGID_00000154410675406019612640000013814200532475814795_);" d="M817.5,387.5l-97.7-56.8
					c-1.2-0.7-2.2-1.5-3-2.4c-1.3-1.5-2-3-2-4.6l0,0l0.2,70.1c0,2.6,1.6,5.1,5,7l97.7,56.8L817.5,387.5L817.5,387.5z"/>
				
					<linearGradient id="SVGID_00000038383613589725350480000011589427817010506889_" gradientUnits="userSpaceOnUse" x1="817.4785" y1="-3227.1663" x2="1038.9448" y2="-3227.1663" gradientTransform="matrix(1 0 0 -1 0 -2862.1101)">
					<stop  offset="0" style="stop-color:#231F20"/>
					<stop  offset="0.16" style="stop-color:#302D2F"/>
					<stop  offset="0.47" style="stop-color:#464547"/>
					<stop  offset="0.76" style="stop-color:#535455"/>
					<stop  offset="1" style="stop-color:#58595B"/>
				</linearGradient>
				<path style="fill:url(#SVGID_00000038383613589725350480000011589427817010506889_);" d="M1038.6,269.7c0,0.2,0,0.3-0.1,0.5
					c0,0.2,0,0.3-0.1,0.5c0,0.2-0.1,0.3-0.1,0.4c-0.1,0.2-0.1,0.3-0.2,0.5c-0.1,0.2-0.1,0.3-0.2,0.4c-0.1,0.2-0.2,0.3-0.3,0.5
					c-0.1,0.1-0.2,0.3-0.3,0.3c-0.1,0.2-0.3,0.4-0.4,0.6c-0.1,0.1-0.2,0.3-0.3,0.3c-0.2,0.3-0.4,0.5-0.7,0.7
					c-0.1,0.1-0.3,0.3-0.3,0.3c-0.2,0.1-0.3,0.3-0.4,0.4c-0.2,0.2-0.3,0.3-0.5,0.4c-0.2,0.1-0.3,0.3-0.5,0.3
					c-0.3,0.2-0.6,0.4-0.9,0.6L841.8,387.5c-0.5,0.3-1.1,0.6-1.7,0.9c-0.2,0.1-0.3,0.2-0.5,0.2c-0.5,0.2-0.9,0.4-1.5,0.5
					c-0.2,0-0.3,0.1-0.4,0.2c-0.3,0.1-0.5,0.2-0.8,0.2s-0.5,0.2-0.8,0.2s-0.5,0.1-0.8,0.2c-0.3,0.1-0.5,0.1-0.8,0.2
					c-0.6,0.1-1.3,0.2-1.9,0.3c-0.2,0-0.4,0-0.6,0.1c-0.4,0-0.8,0.1-1.2,0.1c-0.3,0-0.5,0-0.8,0c-0.3,0-0.6,0-0.9,0
					c-0.3,0-0.5,0-0.8,0c-0.3,0-0.6,0-0.9,0c-0.3,0-0.5,0-0.8-0.1c-0.3,0-0.6-0.1-0.9-0.1c-0.3,0-0.5-0.1-0.8-0.1
					c-0.3,0-0.6-0.1-0.9-0.2c-0.3,0-0.4-0.1-0.7-0.2c-0.3-0.1-0.7-0.2-1-0.3c-0.2-0.1-0.4-0.1-0.6-0.2c-0.6-0.2-1.3-0.3-1.8-0.6
					c-0.3-0.1-0.6-0.3-0.9-0.3c-0.2-0.1-0.3-0.2-0.4-0.2c-0.4-0.2-0.9-0.4-1.3-0.7l0.2,70.1c0.4,0.3,0.9,0.4,1.3,0.7
					c0.2,0.1,0.3,0.2,0.4,0.2c0.3,0.1,0.5,0.3,0.9,0.3l0,0c0.6,0.3,1.2,0.4,1.8,0.6c0.1,0,0.1,0,0.2,0.1c0.2,0,0.3,0.1,0.4,0.1
					c0.3,0.1,0.7,0.2,1,0.3c0.1,0,0.2,0.1,0.3,0.1c0.1,0,0.3,0,0.3,0.1c0.3,0.1,0.6,0.1,0.9,0.2c0.2,0,0.3,0.1,0.4,0.1
					c0.1,0,0.3,0,0.3,0c0.3,0,0.6,0.1,0.9,0.1c0.2,0,0.3,0,0.4,0.1c0.1,0,0.2,0,0.3,0c0.3,0,0.6,0,0.9,0c0.2,0,0.3,0,0.5,0
					c0.1,0,0.2,0,0.3,0c0.3,0,0.6,0,0.9,0c0.2,0,0.3,0,0.5,0c0.1,0,0.2,0,0.3,0c0.4,0,0.8-0.1,1.2-0.1c0.2,0,0.3,0,0.4,0h0.1
					c0.7-0.1,1.3-0.2,1.9-0.3h0.1c0.3,0,0.4-0.1,0.7-0.2c0.3-0.1,0.5-0.1,0.8-0.2s0.5-0.2,0.8-0.2c0.3-0.1,0.5-0.2,0.8-0.2
					c0,0,0.1,0,0.2,0c0.1,0,0.2-0.1,0.3-0.1c0.5-0.2,1-0.3,1.5-0.5c0.2-0.1,0.3-0.2,0.5-0.2c0.6-0.3,1.1-0.5,1.7-0.9L1033.7,347
					c0.2-0.1,0.3-0.3,0.6-0.3c0.1-0.1,0.2-0.2,0.3-0.3c0.2-0.1,0.3-0.3,0.5-0.3c0.2-0.2,0.3-0.3,0.5-0.4c0.2-0.1,0.3-0.3,0.4-0.3
					c0.1-0.1,0.2-0.1,0.2-0.2c0.1-0.1,0.1-0.1,0.2-0.2c0.3-0.3,0.4-0.4,0.7-0.7c0.1-0.1,0.2-0.2,0.2-0.2s0.1-0.1,0.1-0.2
					c0.2-0.2,0.3-0.4,0.4-0.6c0.1-0.1,0.2-0.2,0.2-0.3c0,0,0-0.1,0.1-0.1c0.1-0.2,0.2-0.3,0.3-0.5c0.1-0.1,0.1-0.3,0.2-0.3V342
					c0.1-0.2,0.1-0.3,0.2-0.5c0-0.1,0.1-0.3,0.1-0.4c0,0,0,0,0-0.1c0-0.2,0.1-0.3,0.1-0.5c0-0.1,0-0.3,0.1-0.4V340L1038.6,269.7
					L1038.6,269.7z"/>
			</g>
			<g>
				<path class="st14" d="M1038.7,255.5l0.1,15.1v0.1L1038.7,255.5L1038.7,255.5"/>
				<path class="st15" d="M1038.7,255.6l0.1,15.1c0,0.3-0.1,0.7-0.1,0.9l-0.1-15.1C1038.7,256.2,1038.7,255.9,1038.7,255.6"/>
				<path class="st16" d="M1038.6,256.5l0.1,15.1c-0.1,0.3-0.2,0.7-0.3,0.9l-0.1-15.1C1038.4,257.2,1038.5,256.9,1038.6,256.5"/>
				<path class="st17" d="M1038.3,257.6l0.1,15.1c-0.1,0.3-0.3,0.7-0.4,0.9l-0.1-15.1C1038.1,258.2,1038.3,257.8,1038.3,257.6"/>
				<path class="st18" d="M1037.9,258.5l0.1,15.1c-0.2,0.3-0.4,0.7-0.7,1l-0.1-15.1C1037.5,259.2,1037.7,258.8,1037.9,258.5"/>
				<path class="st19" d="M1037.2,259.5l0.1,15.1c-0.3,0.4-0.6,0.8-1,1.1l-0.1-15.1C1036.6,260.3,1037,259.9,1037.2,259.5"/>
				<path class="st20" d="M1036.2,260.7l0.1,15.1c-0.6,0.5-1.2,1-2,1.5l-0.1-15.1C1035,261.7,1035.7,261.2,1036.2,260.7"/>
				<path class="st21" d="M1034.2,262.2l0.1,15.1c-0.2,0.1-0.3,0.3-0.6,0.3l-0.1-15.1C1033.9,262.5,1034,262.3,1034.2,262.2"/>
			</g>
			<g>
				<path class="st22" d="M1038.7,255.5c0,2.6-1.6,5.2-5.1,7.1L841.9,373.3c-0.5,0.3-1.1,0.6-1.7,0.9c-0.2,0.1-0.3,0.2-0.5,0.2
					c-0.5,0.2-0.9,0.4-1.5,0.5c-0.2,0-0.3,0.1-0.4,0.1c-0.3,0.1-0.5,0.2-0.8,0.2s-0.5,0.2-0.8,0.2c-0.3,0.1-0.5,0.1-0.8,0.2
					s-0.5,0.1-0.8,0.2c-0.6,0.1-1.3,0.2-1.9,0.3c-0.2,0-0.4,0-0.6,0.1c-0.4,0-0.8,0.1-1.2,0.1c-0.3,0-0.5,0-0.8,0
					c-0.3,0-0.6,0-0.9,0c-0.3,0-0.5,0-0.8,0s-0.6,0-0.9,0s-0.5,0-0.8-0.1c-0.3,0-0.6-0.1-0.9-0.1s-0.5-0.1-0.8-0.1
					c-0.3,0-0.6-0.1-0.9-0.2c-0.3,0-0.4-0.1-0.7-0.2c-0.3-0.1-0.7-0.2-1-0.3c-0.2-0.1-0.4-0.1-0.6-0.2c-0.6-0.2-1.3-0.3-1.8-0.6
					c-0.3-0.1-0.6-0.3-0.9-0.3c-0.2-0.1-0.3-0.1-0.4-0.2c-0.4-0.2-0.9-0.4-1.3-0.7l-97.7-56.8c-3.3-1.9-5-4.5-5-7v15.1
					c0,2.6,1.6,5.1,5,7l97.7,56.8c0.4,0.3,0.9,0.4,1.3,0.7c0.2,0.1,0.3,0.2,0.4,0.2c0.3,0.1,0.5,0.3,0.9,0.3l0,0
					c0.6,0.3,1.2,0.4,1.8,0.6c0.1,0,0.1,0,0.2,0.1c0.2,0,0.3,0.1,0.4,0.1c0.3,0.1,0.7,0.2,1,0.3c0.1,0,0.2,0.1,0.3,0.1
					c0.1,0,0.3,0,0.3,0.1c0.3,0.1,0.6,0.1,0.9,0.2c0.2,0,0.3,0.1,0.4,0.1c0.1,0,0.3,0,0.3,0c0.3,0,0.6,0.1,0.9,0.1
					c0.2,0,0.3,0,0.4,0.1c0.1,0,0.2,0,0.3,0c0.3,0,0.6,0,0.9,0c0.2,0,0.3,0,0.5,0c0.1,0,0.2,0,0.3,0c0.3,0,0.6,0,0.9,0
					c0.2,0,0.3,0,0.5,0c0.1,0,0.2,0,0.3,0c0.4,0,0.8-0.1,1.2-0.1c0.2,0,0.3,0,0.4,0h0.1c0.7-0.1,1.3-0.2,1.9-0.3h0.1
					c0.3,0,0.4-0.1,0.7-0.2c0.3-0.1,0.5-0.1,0.8-0.2c0.3-0.1,0.5-0.2,0.8-0.2c0.3-0.1,0.5-0.2,0.8-0.2c0,0,0.1,0,0.2,0
					s0.2-0.1,0.3-0.1c0.5-0.2,1-0.3,1.5-0.5c0.2-0.1,0.3-0.2,0.5-0.2c0.6-0.3,1.1-0.5,1.7-0.9l191.8-110.7c3.4-2,5.1-4.6,5.1-7.1
					L1038.7,255.5L1038.7,255.5z"/>
				
					<linearGradient id="SVGID_00000034778777886631183990000002365380869093471370_" gradientUnits="userSpaceOnUse" x1="821.0169" y1="-3153.291" x2="1003.3223" y2="-3124.6951" gradientTransform="matrix(1 0 0 -1 0 -2862.1101)">
					<stop  offset="0" style="stop-color:#404041"/>
					<stop  offset="0.26" style="stop-color:#343233"/>
					<stop  offset="0.66" style="stop-color:#272425"/>
					<stop  offset="1" style="stop-color:#231F20"/>
				</linearGradient>
				<path style="fill:url(#SVGID_00000034778777886631183990000002365380869093471370_);" d="M911.6,191.6c6.7-3.9,17.7-3.9,24.4,0
					l97.7,56.8c6.7,3.9,6.6,10.2-0.1,14.1L841.9,373.3c-6.7,3.9-17.7,3.9-24.4,0l-97.7-56.8c-6.7-3.9-6.6-10.2,0.1-14.1L911.6,191.6
					L911.6,191.6z"/>
			</g>
			<g>
				<path d="M952,237.5L952,237.5v-5.1c0,0.2,0,0.3-0.1,0.5c0,0.2,0,0.3-0.1,0.5c0,0.2-0.1,0.3-0.1,0.4c-0.1,0.2-0.1,0.3-0.2,0.5
					c-0.1,0.2-0.1,0.3-0.2,0.4c-0.1,0.2-0.2,0.3-0.3,0.5c-0.1,0.1-0.2,0.3-0.3,0.3c-0.1,0.2-0.3,0.4-0.4,0.6
					c-0.1,0.1-0.2,0.3-0.3,0.3c-0.2,0.3-0.4,0.5-0.7,0.7c-0.1,0.1-0.3,0.3-0.3,0.3c-0.2,0.1-0.3,0.3-0.4,0.3
					c-0.2,0.2-0.3,0.3-0.5,0.4c-0.2,0.1-0.3,0.3-0.5,0.3c-0.3,0.2-0.6,0.4-0.9,0.6l-127.2,73.5c-0.5,0.3-1.1,0.6-1.7,0.9
					c-0.2,0.1-0.3,0.2-0.5,0.2c-0.5,0.2-0.9,0.4-1.5,0.5c-0.2,0-0.3,0.1-0.4,0.2c-0.3,0.1-0.5,0.2-0.8,0.2c-0.3,0.1-0.5,0.2-0.8,0.2
					c-0.3,0.1-0.5,0.1-0.8,0.2s-0.5,0.1-0.8,0.2c-0.6,0.1-1.3,0.2-1.9,0.3c-0.2,0-0.3,0-0.6,0.1c-0.4,0-0.8,0.1-1.2,0.1
					c-0.3,0-0.5,0-0.8,0c-0.3,0-0.6,0-0.9,0c-0.3,0-0.5,0-0.8,0c-0.3,0-0.6,0-0.9,0s-0.5,0-0.8-0.1c-0.3,0-0.6-0.1-0.9-0.1
					s-0.5-0.1-0.8-0.1c-0.3,0-0.6-0.1-0.9-0.2c-0.3,0-0.4-0.1-0.7-0.2c-0.3-0.1-0.7-0.2-1-0.3c-0.2-0.1-0.4-0.1-0.6-0.2
					c-0.6-0.2-1.3-0.3-1.8-0.6c-0.3-0.1-0.6-0.3-0.9-0.3c-0.2-0.1-0.3-0.1-0.4-0.2c-0.4-0.2-0.9-0.4-1.3-0.7L752.5,288
					c-3.3-1.9-5-4.5-5-7v5c0,2.6,1.6,5.1,5,7l42.8,24.9c0.4,0.3,0.9,0.4,1.3,0.7c0.2,0.1,0.3,0.1,0.4,0.2c0.3,0.1,0.5,0.3,0.9,0.3
					l0,0c0.6,0.3,1.2,0.4,1.8,0.6c0.1,0,0.1,0,0.2,0.1c0.2,0,0.3,0.1,0.4,0.1c0.3,0.1,0.7,0.2,1,0.3c0.1,0,0.2,0.1,0.3,0.1
					c0.1,0,0.3,0,0.3,0.1c0.3,0.1,0.6,0.1,0.9,0.2c0.2,0,0.3,0.1,0.4,0.1c0.1,0,0.3,0,0.3,0c0.3,0,0.6,0.1,0.9,0.1
					c0.2,0,0.3,0,0.4,0.1c0.1,0,0.3,0,0.3,0c0.3,0,0.6,0,0.9,0c0.2,0,0.3,0,0.5,0c0.1,0,0.2,0,0.3,0c0.3,0,0.6,0,0.9,0
					c0.2,0,0.3,0,0.5,0c0.1,0,0.2,0,0.3,0c0.4,0,0.8-0.1,1.2-0.1c0.2,0,0.3,0,0.4,0h0.1c0.7-0.1,1.3-0.2,1.9-0.3h0.1
					c0.2,0,0.4-0.1,0.7-0.2c0.3-0.1,0.5-0.1,0.8-0.2s0.5-0.2,0.8-0.2c0.3-0.1,0.5-0.2,0.8-0.2c0,0,0.1,0,0.2,0s0.2-0.1,0.3-0.1
					c0.5-0.2,1-0.3,1.5-0.5c0.2-0.1,0.3-0.2,0.5-0.2c0.6-0.3,1.1-0.5,1.7-0.9l127.3-73.4c0.2-0.1,0.3-0.3,0.6-0.3
					c0.1-0.1,0.2-0.2,0.3-0.3c0.2-0.1,0.3-0.3,0.5-0.3c0.2-0.2,0.3-0.3,0.5-0.4c0.2-0.1,0.3-0.3,0.4-0.3c0.1-0.1,0.2-0.1,0.2-0.2
					c0.1-0.1,0.1-0.1,0.2-0.2c0.3-0.3,0.4-0.4,0.7-0.7c0.1-0.1,0.2-0.2,0.2-0.2s0.1-0.1,0.1-0.2c0.2-0.2,0.3-0.4,0.4-0.6
					c0.1-0.1,0.2-0.2,0.2-0.3c0,0,0-0.1,0.1-0.1c0.1-0.2,0.2-0.3,0.3-0.5c0.1-0.1,0.1-0.3,0.2-0.3v-0.1c0.1-0.2,0.1-0.3,0.2-0.5
					c0-0.1,0.1-0.3,0.1-0.4c0,0,0,0,0-0.1c0-0.2,0.1-0.3,0.1-0.5C951.9,237.7,951.9,237.7,952,237.5L952,237.5z"/>
				
					<linearGradient id="SVGID_00000134948325994889097320000011205421321197384379_" gradientUnits="userSpaceOnUse" x1="747.5596" y1="-3118.8008" x2="951.8591" y2="-3118.8008" gradientTransform="matrix(1 0 0 -1 0 -2862.1101)">
					<stop  offset="0" style="stop-color:#404041"/>
					<stop  offset="0.26" style="stop-color:#343233"/>
					<stop  offset="0.66" style="stop-color:#272425"/>
					<stop  offset="1" style="stop-color:#231F20"/>
				</linearGradient>
				<path style="fill:url(#SVGID_00000134948325994889097320000011205421321197384379_);" d="M879.8,200.5c6.7-3.9,17.7-3.9,24.3,0
					l42.8,24.9c6.6,3.9,6.6,10.2-0.1,14.1l-127.2,73.4c-6.7,3.9-17.7,3.9-24.3,0L752.6,288c-6.7-3.9-6.6-10.2,0.1-14.1L879.8,200.5
					L879.8,200.5z"/>
			</g>
			<g>
				<path class="st25" d="M835.1,362.4c0,0.3,0,0.5-0.2,0.8c0,0,0,0,0,0.1c-0.1,0.3-0.2,0.4-0.3,0.7c0,0,0,0.1-0.1,0.1
					c-0.2,0.2-0.3,0.4-0.6,0.6c-0.1,0.1-0.3,0.2-0.4,0.3c-0.2,0.2-0.4,0.3-0.6,0.4c-0.3,0.2-0.7,0.3-1,0.5c-0.1,0-0.2,0.1-0.3,0.1
					c-0.3,0.1-0.5,0.2-0.7,0.3c-0.2,0.1-0.4,0.1-0.7,0.2c-0.3,0.1-0.6,0.1-0.9,0.2c-0.1,0-0.1,0-0.2,0c-0.4,0-0.9,0.1-1.3,0.1
					c-0.1,0-0.1,0-0.2,0c-0.4,0-0.9,0-1.2-0.1c-0.1,0-0.1,0-0.2,0c-0.4-0.1-0.8-0.1-1.2-0.2c-0.1,0-0.2,0-0.3-0.1
					c-0.3-0.1-0.8-0.2-1.1-0.3h-0.1c-0.4-0.2-0.8-0.3-1.1-0.5c-1.5-0.9-2.2-1.9-2.2-3v1c0,1.1,0.7,2.2,2.2,3
					c0.3,0.2,0.7,0.3,1.1,0.5l0,0h0.1c0.3,0.1,0.5,0.2,0.8,0.3c0.1,0,0.2,0.1,0.3,0.1c0.1,0,0.2,0,0.3,0.1s0.2,0,0.3,0.1
					c0.3,0.1,0.5,0.1,0.7,0.1c0.1,0,0.2,0,0.2,0c0.1,0,0.1,0,0.2,0c0.1,0,0.2,0,0.3,0c0.3,0,0.5,0,0.7,0c0.1,0,0.1,0,0.2,0
					c0.1,0,0.1,0,0.2,0c0.2,0,0.3,0,0.3,0c0.3,0,0.5,0,0.8-0.1c0,0,0,0,0.1,0c0.1,0,0.1,0,0.2,0c0.3,0,0.4-0.1,0.7-0.1
					c0.1,0,0.2-0.1,0.3-0.1c0.3,0,0.4-0.1,0.7-0.2c0.2,0,0.3-0.1,0.4-0.1c0.1,0,0.3-0.1,0.3-0.1c0.1,0,0.2-0.1,0.3-0.1
					c0.3-0.2,0.7-0.3,1-0.5c0.1-0.1,0.2-0.1,0.3-0.2c0.2-0.1,0.3-0.2,0.3-0.3c0.2-0.1,0.3-0.2,0.4-0.3c0,0,0.1,0,0.1-0.1
					c0.2-0.2,0.3-0.3,0.4-0.5c0,0,0-0.1,0.1-0.1c0,0,0-0.1,0.1-0.1c0.1-0.1,0.1-0.2,0.2-0.3c0.1-0.2,0.2-0.3,0.2-0.4l0,0
					c0,0,0,0,0-0.1s0.1-0.2,0.1-0.3s0-0.3,0-0.4c0,0,0,0,0-0.1L835.1,362.4L835.1,362.4z"/>
				<path class="st25" d="M822.5,359.4c2.8-1.6,7.6-1.6,10.4,0c2.8,1.6,2.8,4.4,0,6c-2.9,1.6-7.6,1.6-10.4,0
					C819.6,363.8,819.6,361.1,822.5,359.4L822.5,359.4z"/>
			</g>
			<g>
				<path class="st25" d="M818.3,354.3c0,0.2,0,0.4-0.1,0.7c0,0,0,0,0,0.1c-0.1,0.2-0.2,0.4-0.3,0.6c0,0,0,0.1-0.1,0.1
					c-0.2,0.2-0.3,0.3-0.4,0.5c-0.1,0.1-0.2,0.2-0.3,0.3c-0.2,0.1-0.3,0.3-0.5,0.3c-0.3,0.2-0.8,0.4-1.3,0.5
					c-0.2,0.1-0.3,0.1-0.4,0.2c-0.2,0.1-0.3,0.1-0.5,0.1c-0.3,0.1-0.5,0.1-0.8,0.2c-0.1,0-0.1,0-0.2,0c-0.3,0-0.7,0.1-1,0.1
					c-0.1,0-0.1,0-0.2,0c-0.3,0-0.7,0-1-0.1c-0.1,0-0.1,0-0.2,0c-0.3,0-0.7-0.1-0.9-0.2c-0.1,0-0.1,0-0.2,0
					c-0.3-0.1-0.6-0.2-0.9-0.3H809c-0.3-0.1-0.7-0.3-0.9-0.4c-1.2-0.7-1.8-1.5-1.8-2.5v1c0,0.9,0.6,1.8,1.8,2.5
					c0.3,0.2,0.6,0.3,0.9,0.4l0,0h0.1c0.2,0.1,0.4,0.2,0.7,0.2c0.1,0,0.2,0,0.3,0.1c0.1,0,0.1,0,0.2,0c0.1,0,0.2,0,0.2,0.1
					c0.2,0,0.4,0.1,0.6,0.1c0.1,0,0.1,0,0.2,0c0.1,0,0.1,0,0.2,0s0.2,0,0.3,0c0.2,0,0.4,0,0.6,0c0.1,0,0.1,0,0.2,0s0.1,0,0.2,0
					c0.1,0,0.2,0,0.3,0c0.3,0,0.4,0,0.7,0c0,0,0,0,0.1,0c0,0,0.1,0,0.2,0c0.2,0,0.3,0,0.6-0.1c0.1,0,0.2,0,0.3-0.1
					c0.2,0,0.3-0.1,0.5-0.1c0.1,0,0.3,0,0.3-0.1c0.1,0,0.1,0,0.2-0.1c0.4-0.2,0.9-0.3,1.3-0.5c0.1,0,0.2-0.1,0.2-0.1
					c0.1-0.1,0.2-0.2,0.3-0.3c0.1-0.1,0.3-0.2,0.3-0.3c0,0,0.1,0,0.1-0.1c0.2-0.1,0.3-0.3,0.3-0.4c0,0,0,0,0-0.1c0,0,0-0.1,0.1-0.1
					c0-0.1,0.1-0.2,0.2-0.2c0.1-0.1,0.1-0.3,0.2-0.3l0,0c0,0,0,0,0-0.1c0-0.1,0.1-0.2,0.1-0.3s0-0.3,0-0.3l0,0L818.3,354.3
					L818.3,354.3z"/>
				<path class="st25" d="M808,351.8c2.4-1.4,6.3-1.4,8.6,0s2.4,3.6,0,5c-2.4,1.4-6.3,1.4-8.6,0C805.7,355.5,805.6,353.2,808,351.8z
					"/>
			</g>
			<polygon class="st26" points="851,404.6 848,406.3 848,392.8 851,391.2 			"/>
			<path class="st27" d="M890.8,426.8l98.9-57.1c3-1.7,5.4-5.4,5.4-8.2l-0.1-32.8c0-2.8-2.5-3.6-5.4-1.8L890.8,384
				c-3,1.7-5.4,5.4-5.4,8.2l0.1,32.8C885.3,427.7,887.8,428.5,890.8,426.8"/>
			<g>
				<path class="st27" d="M1045,401c0,0.2,0,0.3-0.1,0.5c0,0.2-0.1,0.3-0.1,0.4c-0.1,0.2-0.1,0.3-0.2,0.5c-0.1,0.2-0.1,0.3-0.2,0.4
					c-0.1,0.2-0.2,0.3-0.3,0.5c-0.1,0.1-0.2,0.3-0.3,0.3c-0.1,0.2-0.3,0.4-0.4,0.6c-0.1,0.1-0.2,0.3-0.3,0.3
					c-0.2,0.3-0.4,0.5-0.7,0.7c-0.1,0.1-0.3,0.3-0.3,0.3c-0.2,0.2-0.3,0.3-0.4,0.3c-0.2,0.2-0.3,0.3-0.5,0.4
					c-0.2,0.1-0.3,0.3-0.5,0.3c-0.3,0.2-0.6,0.4-0.9,0.6l-72.8,42c-0.5,0.3-1.1,0.6-1.6,0.9c-0.2,0.1-0.3,0.2-0.5,0.2
					c-0.5,0.2-0.9,0.4-1.5,0.5c-0.2,0-0.3,0.1-0.3,0.2c-0.3,0.1-0.5,0.2-0.8,0.2s-0.5,0.2-0.8,0.2s-0.5,0.1-0.8,0.2
					c-0.3,0.1-0.5,0.1-0.8,0.2c-0.6,0.1-1.3,0.2-1.9,0.3c-0.2,0-0.3,0-0.6,0c-0.4,0-0.8,0.1-1.2,0.1c-0.3,0-0.5,0-0.8,0
					c-0.3,0-0.6,0-0.9,0c-0.3,0-0.5,0-0.8,0s-0.6,0-0.9,0s-0.5,0-0.8-0.1c-0.3,0-0.6-0.1-0.9-0.1s-0.5-0.1-0.8-0.1
					c-0.3,0-0.6-0.1-0.9-0.2c-0.3,0-0.5-0.1-0.7-0.2c-0.3-0.1-0.7-0.2-1-0.3c-0.2-0.1-0.4-0.1-0.6-0.2c-0.6-0.2-1.2-0.3-1.8-0.6
					c-0.3-0.1-0.6-0.3-0.9-0.3c-0.2-0.1-0.3-0.2-0.4-0.2c-0.4-0.2-0.9-0.4-1.3-0.7L885.4,416v5.6l57.5,33.4c0.4,0.3,0.9,0.4,1.3,0.7
					c0.2,0.1,0.3,0.2,0.4,0.2c0.3,0.1,0.5,0.3,0.9,0.3c0,0,0,0,0.1,0c0.6,0.3,1.2,0.4,1.8,0.6c0.1,0,0.1,0,0.2,0.1
					c0.2,0,0.3,0.1,0.4,0.1c0.3,0.1,0.7,0.2,1,0.3c0.1,0,0.2,0.1,0.3,0.1c0.1,0,0.3,0,0.3,0.1c0.3,0.1,0.6,0.1,0.9,0.2
					c0.2,0,0.3,0.1,0.4,0.1c0.1,0,0.3,0,0.3,0c0.3,0,0.6,0.1,0.9,0.1c0.2,0,0.3,0,0.4,0.1c0.1,0,0.3,0,0.3,0c0.3,0,0.6,0,0.9,0
					c0.2,0,0.3,0,0.5,0c0.1,0,0.2,0,0.3,0c0.3,0,0.6,0,0.9,0c0.2,0,0.3,0,0.5,0c0.1,0,0.2,0,0.3,0c0.4,0,0.8-0.1,1.2-0.1
					c0.2,0,0.3,0,0.4,0h0.1c0.7-0.1,1.3-0.2,1.9-0.3h0.1c0.3,0,0.4-0.1,0.7-0.2c0.3-0.1,0.5-0.1,0.8-0.2c0.3-0.1,0.5-0.2,0.8-0.2
					c0.3-0.1,0.5-0.2,0.8-0.2c0.1,0,0.1,0,0.2,0c0.1,0,0.2-0.1,0.3-0.1c0.5-0.2,1-0.3,1.5-0.5c0.2-0.1,0.3-0.2,0.5-0.2
					c0.6-0.3,1.1-0.5,1.6-0.9l72.8-42c0.2-0.1,0.3-0.3,0.6-0.3c0.1-0.1,0.2-0.2,0.3-0.3c0.2-0.1,0.3-0.3,0.5-0.3
					c0.2-0.2,0.3-0.3,0.5-0.4c0.2-0.2,0.3-0.3,0.4-0.4c0.1-0.1,0.2-0.1,0.2-0.2c0.1-0.1,0.1-0.2,0.2-0.2c0.3-0.3,0.4-0.4,0.7-0.7
					c0.1-0.1,0.2-0.2,0.2-0.2s0.1-0.1,0.1-0.2c0.2-0.2,0.3-0.4,0.4-0.6c0.1-0.1,0.2-0.2,0.2-0.3c0,0,0-0.1,0.1-0.1
					c0.1-0.2,0.2-0.3,0.3-0.5c0.1-0.1,0.1-0.3,0.2-0.3v-0.1c0.1-0.2,0.1-0.3,0.2-0.5c0-0.2,0.1-0.3,0.1-0.4c0,0,0,0,0-0.1
					c0-0.2,0.1-0.3,0.1-0.5c0-0.2,0-0.3,0-0.3v-0.1v-5.6C1045,400.7,1045,400.8,1045,401L1045,401z"/>
				<path class="st28" d="M1040.1,393.5l-82.7-48L890.8,384c-3,1.7-5.4,5.4-5.4,8.2l0.1,24.1l57.5,33.4c6.6,3.9,17.6,3.9,24.3,0
					l72.8-42C1046.7,403.8,1046.7,397.4,1040.1,393.5L1040.1,393.5z"/>
			</g>
			<path class="st29" d="M1064.3,403.9l-103.8-60.3L890.8,384c-3,1.7-5.4,5.4-5.4,8.2l0.1,17.9l84,48.8L1064.3,403.9L1064.3,403.9z"
				/>
			<path class="st30" d="M890.8,384c-3,1.7-5.4,5.4-5.4,8.2l0.1,16.8l89.3,47.9l91.3-57.1l-106.1-55.6L890.8,384L890.8,384z"/>
			<path class="st31" d="M1065.6,402.3l-102-60.4l-72.8,42c-3,1.7-5.4,5.4-5.4,8.2v14.7l84.3,49.9L1065.6,402.3L1065.6,402.3z"/>
			<path class="st32" d="M1064.3,401.1l-100.4-59.4L890.7,384c-3,1.7-5.4,5.4-5.4,8.2v14.2l83.1,49.2L1064.3,401.1L1064.3,401.1z"/>
			
				<linearGradient id="SVGID_00000023966605667376321840000008764263464696817594_" gradientUnits="userSpaceOnUse" x1="944.9647" y1="-3214.1699" x2="960.0162" y2="-3240.2346" gradientTransform="matrix(1 0 0 -1 0 -2862.1101)">
				<stop  offset="0" style="stop-color:#524944"/>
				<stop  offset="4.000000e-02" style="stop-color:#5E5551"/>
				<stop  offset="0.22" style="stop-color:#8E8885"/>
				<stop  offset="0.4" style="stop-color:#B7B3B1"/>
				<stop  offset="0.57" style="stop-color:#D6D4D3"/>
				<stop  offset="0.73" style="stop-color:#ECEBEB"/>
				<stop  offset="0.88" style="stop-color:#FAFAF9"/>
				<stop  offset="1" style="stop-color:#FFFFFF"/>
			</linearGradient>
			<path style="fill:url(#SVGID_00000023966605667376321840000008764263464696817594_);" d="M1064.3,401.1l-100.4-59.4L890.7,384
				c-3,1.7-5.4,5.4-5.4,8.2v14.2l83.1,49.2L1064.3,401.1L1064.3,401.1z"/>
			<g>
				<polyline class="st25" points="963.2,435.5 946.6,424.7 941.7,427.9 958.3,438.7 963.2,435.5 				"/>
				<polyline class="st25" points="971.5,430 950.4,416.3 945.6,419.4 966.7,433.3 971.5,430 				"/>
				<polyline class="st25" points="979.4,424.9 949.4,405.4 944.7,408.5 974.6,428 979.4,424.9 				"/>
				<polyline class="st25" points="987.4,419.7 962.9,403.7 958.1,406.9 982.5,422.9 987.4,419.7 				"/>
				<polyline class="st25" points="995.3,414.5 968.9,397.3 964,400.4 990.5,417.6 995.3,414.5 				"/>
				<polyline class="st25" points="1003.2,409.3 973.9,390.2 969.2,393.3 998.4,412.5 1003.2,409.3 				"/>
				<polyline class="st25" points="1011.1,404.1 979.4,383.3 974.5,386.5 1006.3,407.2 1011.1,404.1 				"/>
				<polyline class="st25" points="1019.1,398.9 984.6,376.4 979.8,379.5 1014.3,402 1019.1,398.9 				"/>
				<polyline class="st25" points="1027,393.7 990.4,369.7 985.6,372.8 1022.2,396.8 1027,393.7 				"/>
				<path class="st25" d="M940.5,414.6c-0.3,0-0.5,0-0.8-0.1l-3.6,13.3c0.3,0,0.5,0,0.8,0.1L940.5,414.6 M939.3,402.9
					c-0.3,0-0.5,0.1-0.8,0l1.4,8.4c0.3,0,0.5-0.1,0.8-0.1L939.3,402.9 M952.2,401.3l-11.2-0.1c0.1,0.2,0.1,0.4,0,0.5l11.2,0.1
					C952.2,401.6,952.2,401.4,952.2,401.3 M960,396.7c-0.2-0.1-0.4-0.2-0.6-0.3c0,0,0,0-0.1,0l-3.7,3.7c0.3,0.1,0.5,0.2,0.7,0.3
					L960,396.7 M965.8,389.9c-0.3,0-0.5-0.1-0.8-0.2l-3.4,4c0.3,0,0.5,0.1,0.8,0.2L965.8,389.9 M971.4,383.3
					c-0.3-0.1-0.5-0.2-0.7-0.3l-3.3,3.9c0.3,0.1,0.5,0.2,0.7,0.3L971.4,383.3 M977,376.7c-0.3-0.1-0.5-0.2-0.7-0.3l-3.4,3.9
					c0.3,0.1,0.5,0.2,0.7,0.3L977,376.7 M983.4,370.4c-0.2-0.1-0.3-0.2-0.5-0.3c0,0-0.1,0-0.1-0.1l-3.8,3.6c0.3,0.1,0.5,0.2,0.7,0.3
					L983.4,370.4"/>
				<path class="st25" d="M942.2,411.9c-0.4-0.3-0.9-0.4-1.5-0.5c-0.3,0-0.5,0-0.8,0.1c-0.3,0.1-0.8,0.2-1,0.4
					c-0.9,0.6-0.9,1.6,0,2.2c0.3,0.2,0.6,0.3,0.9,0.4c0.3,0.1,0.5,0.1,0.8,0.1c0.6,0,1.2-0.2,1.7-0.5
					C943.2,413.6,943.2,412.5,942.2,411.9"/>
				<path class="st25" d="M937.8,428.2c-0.3-0.2-0.6-0.3-0.9-0.4c-0.3-0.1-0.5-0.1-0.8-0.1c-0.6,0-1.2,0.2-1.7,0.5
					c-0.9,0.6-0.9,1.6,0,2.2c0.9,0.6,2.5,0.6,3.4,0C938.7,429.9,938.7,428.9,937.8,428.2"/>
				<path class="st25" d="M956.4,400.4L956.4,400.4c-0.3-0.1-0.4-0.2-0.7-0.3c-0.9-0.3-2-0.2-2.8,0.3c-0.3,0.2-0.6,0.6-0.7,0.9
					c-0.1,0.2-0.1,0.4,0,0.5c0.1,0.3,0.3,0.6,0.7,0.9c0.9,0.6,2.5,0.6,3.4,0C957.3,402,957.3,401,956.4,400.4"/>
				<path class="st25" d="M940.4,400.3c-0.9-0.6-2.5-0.6-3.4,0c-0.9,0.6-0.9,1.6,0,2.2c0.4,0.3,0.9,0.4,1.5,0.5c0.3,0,0.5,0,0.8,0
					c0.4-0.1,0.8-0.2,1.1-0.4c0.3-0.2,0.6-0.6,0.7-0.9c0.1-0.2,0.1-0.4,0-0.5C941,400.9,940.7,400.6,940.4,400.3"/>
				<path class="st25" d="M986.2,368c-0.9-0.6-2.5-0.6-3.4,0c-0.9,0.6-0.9,1.5-0.1,2.2c0,0,0.1,0,0.1,0.1c0.2,0.1,0.3,0.2,0.5,0.3
					c0.9,0.3,2.1,0.2,2.8-0.3C987.2,369.7,987.2,368.6,986.2,368"/>
				<path class="st25" d="M973.8,380.7c-0.1,0-0.1-0.1-0.2-0.1c-0.2-0.1-0.4-0.2-0.7-0.3c-0.9-0.2-1.8-0.1-2.5,0.4
					c-0.9,0.6-0.9,1.6,0,2.2c0.1,0,0.2,0.1,0.2,0.1c0.3,0.1,0.4,0.2,0.7,0.3c0.9,0.2,1.8,0.1,2.5-0.4
					C974.8,382.2,974.7,381.3,973.8,380.7"/>
				<path class="st25" d="M968,387.3C968,387.3,968,387.1,968,387.3c-0.3-0.2-0.5-0.3-0.7-0.3c-0.9-0.3-2-0.2-2.7,0.3
					c-0.9,0.6-0.9,1.6,0,2.2c0.1,0.1,0.3,0.2,0.3,0.2c0.3,0.1,0.5,0.2,0.8,0.2c0.8,0.1,1.6,0,2.2-0.4
					C968.9,388.9,968.9,387.8,968,387.3"/>
				<path class="st25" d="M962.8,394.2c-0.1-0.1-0.3-0.2-0.4-0.2c-0.3-0.1-0.5-0.2-0.8-0.2c-0.8-0.1-1.6,0-2.2,0.4
					c-0.9,0.6-0.9,1.5-0.1,2.2c0,0,0,0,0.1,0c0.2,0.1,0.3,0.2,0.6,0.3c0.9,0.3,2.1,0.2,2.8-0.3C963.8,395.8,963.8,394.8,962.8,394.2
					"/>
				<path class="st25" d="M979.6,374.1L979.6,374.1c-0.3-0.2-0.4-0.2-0.7-0.3c-0.9-0.3-2-0.2-2.8,0.3c-0.9,0.6-0.9,1.6,0,2.2
					c0.1,0,0.1,0.1,0.2,0.1c0.2,0.1,0.4,0.2,0.7,0.3c0.9,0.2,1.9,0.1,2.6-0.4C980.6,375.7,980.6,374.7,979.6,374.1"/>
			</g>
			<path class="st34" d="M905.7,384.1l30.1,17.3l4.8-2.8l-30.1-17.3L905.7,384.1L905.7,384.1z M906.8,393.9l21.1,12.1l4.8-2.8
				l-21.1-12.1L906.8,393.9z M902.8,401.3l16.6,9.6l4.8-2.8l-16.6-9.6L902.8,401.3L902.8,401.3z M903.3,389.1c0.9-0.5,0.9-1.5,0-2
				c-0.4-0.3-0.9-0.3-1.5-0.4l-1.4-7.5c0.4-0.1,0.8-0.2,1.1-0.3c0.3-0.2,0.6-0.4,0.7-0.8l11.2,0.1c0.1,0.3,0.3,0.5,0.7,0.8
				c0.9,0.5,2.5,0.5,3.4,0c0.9-0.5,0.9-1.5,0-2l0,0l3.7-3.3c0.9,0.3,2.1,0.2,2.8-0.3c0.9-0.5,0.9-1.5,0-2c-0.1-0.1-0.3-0.1-0.4-0.2
				l3.4-3.6c0.8,0.1,1.6,0,2.2-0.3c0.9-0.5,0.9-1.5,0-2l0,0l3.4-3.5c0.9,0.2,1.8,0.1,2.5-0.3c0.9-0.5,0.9-1.5,0-2
				c-0.1,0-0.1-0.1-0.2-0.1l2-2l-2.2,1.3l-0.4,0.4c-0.1,0-0.2,0-0.3,0l-2.8,1.6c0.1,0.3,0.3,0.4,0.6,0.7c0.1,0,0.2,0.1,0.2,0.1
				l-3.3,3.4c-0.9-0.3-2-0.1-2.7,0.3c-0.9,0.5-0.9,1.5,0,2c0.1,0.1,0.3,0.1,0.3,0.2L923,371c-0.8-0.1-1.6,0-2.2,0.3
				c-0.9,0.5-0.9,1.4-0.1,1.9l-3.7,3.3c-0.9-0.3-2-0.2-2.8,0.3c-0.3,0.2-0.6,0.5-0.7,0.8l-11.2-0.1c0-0.1-0.1-0.2-0.2-0.3L899,379
				c0.2,0,0.4,0.1,0.6,0.1l1.4,7.5c-0.4,0.1-0.8,0.2-1,0.3c-0.9,0.5-0.9,1.5,0,2c0.3,0.2,0.6,0.3,0.9,0.3l-3.6,11.8
				c-0.6,0-1.3,0.2-1.7,0.4c-0.9,0.5-0.9,1.5,0,2c0.9,0.5,2.5,0.5,3.4,0c0.9-0.5,0.9-1.5,0-2c-0.3-0.2-0.6-0.3-0.9-0.3l3.6-11.8
				C902.2,389.6,902.9,389.4,903.3,389.1L903.3,389.1z M941.4,354.7l-2.2,1.3c0.6,0,1.1-0.2,1.5-0.4
				C941.1,355.4,941.4,355,941.4,354.7L941.4,354.7z M925.2,377l26.4,15.2l4.8-2.8L930,374.2L925.2,377L925.2,377z M940.9,358.5
				l34.5,19.9l4.8-2.8l-34.5-19.9L940.9,358.5L940.9,358.5z M951.5,349.9l-4.8,2.8l36.7,21.2l4.8-2.8L951.5,349.9L951.5,349.9z
				 M919.3,382.8l24.5,14.1l4.8-2.8L924.1,380L919.3,382.8z M930.3,370.7l29.3,16.9l4.8-2.8l-29.3-16.9L930.3,370.7L930.3,370.7z
				 M935.7,364.7l31.9,18.3l4.8-2.8l-31.9-18.3L935.7,364.7L935.7,364.7z"/>
			<g>
				<path class="st35" d="M849.7,416.7c-0.3,0.5-0.3,1.2,0,1.6c0.3,0.3,0.7,0.3,0.9-0.3c0.3-0.5,0.3-1.3,0-1.6
					C850.4,416.1,849.9,416.2,849.7,416.7L849.7,416.7z"/>
				<path class="st35" d="M847,414.4l0.6,0.9c1.5-2.7,3.6-3.4,5.1-1.7l0.6-1.2C851.4,410.2,848.7,411.2,847,414.4L847,414.4z"/>
				<path class="st35" d="M848,415.8L848,415.8l0.6,0.9c0,0,0,0,0-0.1c0.8-1.6,2.1-2.1,2.8-1c0,0,0.1,0.1,0.1,0.2l0.6-1.3
					c0,0,0-0.1-0.1-0.1C851,412.9,849.2,413.6,848,415.8L848,415.8z"/>
			</g>
		</g>
	</g>
</g>
</svg>
