<?xml version="1.0" encoding="utf-8"?>
<!-- Generator: Adobe Illustrator 27.0.0, SVG Export Plug-In . SVG Version: 6.00 Build 0)  -->
<svg version="1.1" id="Capa_1" xmlns="http://www.w3.org/2000/svg" xmlns:xlink="http://www.w3.org/1999/xlink" x="0px" y="0px"
	 viewBox="0 0 679.2 679.2" style="enable-background:new 0 0 679.2 679.2;" xml:space="preserve">
<style type="text/css">
	.st0{fill:#CACACA;}
</style>
<g>
	<path class="st0" d="M642.9,380.1c-5.4,45.2-19.6,87.8-42.5,127.5c-30.4,52.6-72.3,94.2-125.2,125.2
		c-52.6,30.8-108.6,46.3-168.5,46.3c-57.6,0-113.9-15.9-169.3-47.6c-36.7-20.9-70-50.1-98.9-87.7c-6.2-8.1-6.4-16.1-1.5-24.7
		c4.5-8,11.6-11.5,21.2-10.8c8.5,1.6,21.2,2.3,38.2,2.3c53,0,102.5-12.9,148.4-39.4c46.1-26.5,81.6-62.8,107.8-108.6
		c29.8-52,43.3-107.4,39.4-166.9c-3.9-59.9-23.9-113.3-60.7-160.8c-5.7-7.4-6.4-15.6-1.5-24c4.8-8.2,12-12,21.2-10.8
		c44.5,5.8,86.2,20.4,125.2,42.5c39.9,22.7,73,52.9,100.5,89.6c27.4,36.8,46.3,75.8,57.6,117.5C645.6,291.2,648.3,334.8,642.9,380.1
		z"/>
</g>
</svg>
