<?xml version="1.0" encoding="utf-8"?>
<!-- Generator: Adobe Illustrator 27.0.0, SVG Export Plug-In . SVG Version: 6.00 Build 0)  -->
<svg version="1.1" id="Слой_1" xmlns="http://www.w3.org/2000/svg" xmlns:xlink="http://www.w3.org/1999/xlink" x="0px" y="0px"
	 viewBox="0 0 1160 396" style="enable-background:new 0 0 1160 396;" xml:space="preserve">
<style type="text/css">
	.st0{fill:url(#SVGID_1_);}
	.st1{fill:none;stroke:#1A2E35;stroke-width:1.33;stroke-linecap:round;stroke-linejoin:round;}
	.st2{fill:url(#SVGID_00000057108277435964872610000009927034470975511485_);}
	.st3{opacity:0.3;}
	.st4{opacity:0.3;enable-background:new    ;}
	.st5{fill:url(#SVGID_00000069399363683626569210000007476330010382203803_);}
	.st6{fill:#868686;}
	.st7{fill:#1A2E35;}
	.st8{fill:#868686;stroke:#1A2E35;stroke-width:1.33;stroke-linecap:round;stroke-linejoin:round;}
	.st9{fill:#9A9A9A;stroke:#1A2E35;stroke-width:1.33;stroke-linecap:round;stroke-linejoin:round;}
	.st10{fill:#9A9A9A;}
	.st11{fill:#FFFFFF;}
	.st12{fill:none;stroke:#808080;stroke-linecap:round;stroke-linejoin:round;}
	.st13{fill:none;stroke:#808080;stroke-width:1.33;stroke-linecap:round;stroke-linejoin:round;}
	.st14{fill:url(#SVGID_00000023267399455078183870000001913816417068600453_);}
	.st15{fill:none;stroke:#1A2E35;stroke-linecap:round;stroke-linejoin:round;}
	.st16{fill:url(#SVGID_00000114784792319563964230000008518250402999731858_);}
	.st17{opacity:0.4;}
	.st18{opacity:0.4;fill:#FFFFFF;enable-background:new    ;}
	
		.st19{opacity:0.3;fill:#1A2E35;stroke:#1A2E35;stroke-width:1.33;stroke-linecap:round;stroke-linejoin:round;enable-background:new    ;}
	.st20{fill:none;stroke:#1A2E35;stroke-width:1.33;stroke-miterlimit:10;}
</style>
<linearGradient id="SVGID_1_" gradientUnits="userSpaceOnUse" x1="426.9687" y1="747.1022" x2="531.5052" y2="747.1022" gradientTransform="matrix(1 0 0 1 0 -518)">
	<stop  offset="0" style="stop-color:#21D4FD"/>
	<stop  offset="1" style="stop-color:#B721FF"/>
</linearGradient>
<path class="st0" d="M491.2,248.4c-7.8,6.5-5.2,44.3-29.3,28c-24.1-16.3,17-26,14.6-35.2c-3.3-12.9-57.5,2.7-48.5-22.1
	s41.6,12.4,50,3.3c7.8-8.5-31.2-39.1-13-44.3c18.2-5.2,14.4,39.1,26.1,39.1c9.2,0,7.5-42.4,24.2-27.3c16.8,15.1-19.9,29.7-15.1,39
	c3.6,7.1,32.6-10.4,31.2,5.9C530.1,251.2,499.4,241.5,491.2,248.4L491.2,248.4z"/>
<path class="st1" d="M486,229.1c0,0,17.6,21.3,15.7,79.4"/>
<linearGradient id="SVGID_00000152251453912255515940000005316221967004924346_" gradientUnits="userSpaceOnUse" x1="400.3569" y1="772.3159" x2="470.4166" y2="772.3159" gradientTransform="matrix(1 0 0 1 0 -518)">
	<stop  offset="0" style="stop-color:#21D4FD"/>
	<stop  offset="1" style="stop-color:#B721FF"/>
</linearGradient>
<path style="fill:url(#SVGID_00000152251453912255515940000005316221967004924346_);" d="M451.7,259.2c3.1-6.3,28.9-10.5,14.1-24.2
	c-14.7-13.6-14.7,15.6-21.2,15.5c-9.2-0.1-7.4-39.1-22.6-29.1s15,26,10.1,33.2c-4.5,6.6-31.2-14.9-31.8-1.7
	c-0.6,13,28.5,3.4,30.4,11.4c1.4,6.2-27.3,11.7-14.5,20.7c12.7,8.9,16.8-18.1,23.8-16.4c5.3,1.3-1.8,23.6,8.9,20.1
	C459.7,285.2,448.5,265.8,451.7,259.2L451.7,259.2z"/>
<g class="st3">
	<g class="st3">
		<path class="st4" d="M451.7,259.2c3.1-6.3,28.9-10.5,14.1-24.2c-14.7-13.6-14.7,15.6-21.2,15.5c-9.2-0.1-7.4-39.1-22.6-29.1
			s15,26,10.1,33.2c-4.5,6.6-31.2-14.9-31.8-1.7c-0.6,13,28.5,3.4,30.4,11.4c1.4,6.2-27.3,11.7-14.5,20.7
			c12.7,8.9,16.8-18.1,23.8-16.4c5.3,1.3-1.8,23.6,8.9,20.1C459.7,285,448.5,265.8,451.7,259.2L451.7,259.2z"/>
	</g>
</g>
<path class="st1" d="M438.5,259.5c0,0,49.9-5.2,54.9,48.8"/>
<linearGradient id="SVGID_00000142166527401812272220000013968344088452902078_" gradientUnits="userSpaceOnUse" x1="493.427" y1="752.2964" x2="597.9634" y2="752.2964" gradientTransform="matrix(1 0 0 1 0 -518)">
	<stop  offset="0" style="stop-color:#21D4FD"/>
	<stop  offset="1" style="stop-color:#B721FF"/>
</linearGradient>
<path style="fill:url(#SVGID_00000142166527401812272220000013968344088452902078_);" d="M533.8,253.6c7.8,6.5,5.2,44.3,29.3,28
	c24.1-16.3-17-26-14.6-35.2c3.3-12.9,57.5,2.7,48.5-22.1c-9-24.8-41.6,12.4-50,3.3c-7.8-8.5,31.2-39.1,13-44.3
	c-18.2-5.2-14.4,39.1-26.1,39.1c-9.2,0-7.5-42.4-24.2-27.3c-16.8,15,19.9,29.7,15.1,39c-3.6,7.1-32.6-10.4-31.2,5.9
	C494.8,256.3,525.6,246.9,533.8,253.6L533.8,253.6z"/>
<g class="st3">
	<g class="st3">
		<path class="st4" d="M533.8,253.6c7.8,6.5,5.2,44.3,29.3,28c24.1-16.3-17-26-14.6-35.2c3.3-12.9,57.5,2.7,48.5-22.1
			c-9-24.8-41.6,12.4-50,3.3c-7.8-8.5,31.2-39.1,13-44.3c-18.2-5.2-14.4,39.1-26.1,39.1c-9.2,0-7.5-42.4-24.2-27.3
			c-16.8,15,19.9,29.7,15.1,39c-3.6,7.1-32.6-10.4-31.2,5.9C494.8,256.3,525.6,246.9,533.8,253.6L533.8,253.6z"/>
	</g>
</g>
<path class="st1" d="M539.3,234.3c0,0-22.8,30.4-28,81.3"/>
<path class="st6" d="M523,395.1h-35.5c-6.8,0-12.4-5.2-13-12l-5.5-65.7c-0.6-7.6,5.4-14.3,13-14.3h46.7c7.7,0,13.7,6.5,13,14.3
	l-5.5,65.7C535.4,389.8,529.8,395.1,523,395.1L523,395.1z"/>
<path class="st1" d="M523,395.1h-35.5c-6.8,0-12.4-5.2-13-12l-5.5-65.7c-0.6-7.6,5.4-14.3,13-14.3h46.7c7.7,0,13.7,6.5,13,14.3
	l-5.5,65.7C535.4,389.8,529.8,395.1,523,395.1L523,395.1z"/>
<path class="st7" d="M257.2,300.7c11.8,0,46.2-7.7,46.2-7.7h-92.3C211.1,292.9,245.4,300.7,257.2,300.7L257.2,300.7z"/>
<path class="st1" d="M257.2,300.7c11.8,0,46.2-7.7,46.2-7.7h-92.3C211.1,292.9,245.4,300.7,257.2,300.7L257.2,300.7z"/>
<path class="st8" d="M246.7,311.4h21.1v-14.5h-21.1V311.4z"/>
<path class="st9" d="M243.6,373.7H271v-62.5h-27.4C243.6,311.4,243.6,373.7,243.6,373.7z"/>
<path class="st6" d="M205.8,274.4h17.8c-1.9-12.3-3.4-24.8-4.3-37.2h-17.8C202.3,249.6,203.8,262.2,205.8,274.4z"/>
<path class="st1" d="M205.8,274.4h17.8c-1.9-12.3-3.4-24.8-4.3-37.2h-17.8C202.3,249.6,203.8,262.2,205.8,274.4z"/>
<path class="st6" d="M178.8,127.3h76.7c9,0,15,7.6,13.1,16.7c-4.9,27.7-7.8,55.1-8.8,83.1c-0.1,8.1-6.3,14.4-14.5,14.4h-64.5
	c-8.1,0-15.4-6.3-16.5-14.4c-3.1-27.8-4.2-55.2-3.4-83.1C161.5,135,169.8,127.3,178.8,127.3L178.8,127.3z"/>
<path class="st1" d="M178.8,127.3h76.7c9,0,15,7.6,13.1,16.7c-4.9,27.7-7.8,55.1-8.8,83.1c-0.1,8.1-6.3,14.4-14.5,14.4h-64.5
	c-8.1,0-15.4-6.3-16.5-14.4c-3.1-27.8-4.2-55.2-3.4-83.1C161.5,135,169.8,127.3,178.8,127.3L178.8,127.3z"/>
<path class="st10" d="M174.6,143.9c-0.8,28,0.2,55.3,3.4,83.1c1.1,8.1,8.3,14.4,16.5,14.4h51c8.2,0,14.4-6.3,14.5-14.4
	c1-28.1,3.9-55.4,8.8-83.1c1.7-8.9-4.2-16.7-13.1-16.7h-63.3C183.4,127.3,175,135,174.6,143.9z"/>
<path class="st1" d="M174.6,143.9c-0.8,28,0.2,55.3,3.4,83.1c1.1,8.1,8.3,14.4,16.5,14.4h51c8.2,0,14.4-6.3,14.5-14.4
	c1-28.1,3.9-55.4,8.8-83.1c1.7-8.9-4.2-16.7-13.1-16.7h-63.3C183.4,127.3,175,135,174.6,143.9z"/>
<path class="st7" d="M211.1,384.9c0,1.4,1.3,2.5,2.8,2.3c8.4-1.8,33.5-7.1,43.3-7.1c9.8,0,35,5.3,43.3,7.1c1.4,0.4,2.8-0.7,2.8-2.3
	c0-2.9-1.9-5.3-4.7-5.9c-9.8-2.2-32.2-6.8-41.4-6.8c-9.2,0-31.6,4.6-41.4,6.8C213.1,379.6,211.1,382.1,211.1,384.9L211.1,384.9z"/>
<path class="st1" d="M211.1,384.9c0,1.4,1.3,2.5,2.8,2.3c8.4-1.8,33.5-7.1,43.3-7.1c9.8,0,35,5.3,43.3,7.1c1.4,0.4,2.8-0.7,2.8-2.3
	c0-2.9-1.9-5.3-4.7-5.9c-9.8-2.2-32.2-6.8-41.4-6.8c-9.2,0-31.6,4.6-41.4,6.8C213.1,379.6,211.1,382.1,211.1,384.9L211.1,384.9z"/>
<path class="st6" d="M303.4,392.5c2.4,0,4.2-1.9,4.2-4.2c0-2.3-1.9-4.2-4.2-4.2s-4.2,1.9-4.2,4.2C299.2,390.6,301,392.5,303.4,392.5
	z M303.4,380.3c4.3,0,7.8,3.5,7.8,7.9s-3.5,7.9-7.8,7.9c-4.3,0-7.8-3.5-7.8-7.9S299.1,380.3,303.4,380.3z"/>
<path class="st1" d="M303.4,392.5c2.4,0,4.2-1.9,4.2-4.2c0-2.3-1.9-4.2-4.2-4.2s-4.2,1.9-4.2,4.2C299.2,390.6,301,392.5,303.4,392.5
	z M303.4,380.3c4.3,0,7.8,3.5,7.8,7.9s-3.5,7.9-7.8,7.9c-4.3,0-7.8-3.5-7.8-7.9S299.1,380.3,303.4,380.3z"/>
<path class="st6" d="M257.2,392.5c2.4,0,4.2-1.9,4.2-4.2c0-2.3-1.9-4.2-4.2-4.2s-4.2,1.9-4.2,4.2C253,390.6,254.9,392.5,257.2,392.5
	z M257.2,380.3c4.3,0,7.8,3.5,7.8,7.9s-3.5,7.9-7.8,7.9s-7.8-3.5-7.8-7.9S252.9,380.3,257.2,380.3z"/>
<path class="st1" d="M257.2,392.5c2.4,0,4.2-1.9,4.2-4.2c0-2.3-1.9-4.2-4.2-4.2s-4.2,1.9-4.2,4.2C253,390.6,254.9,392.5,257.2,392.5
	z M257.2,380.3c4.3,0,7.8,3.5,7.8,7.9s-3.5,7.9-7.8,7.9s-7.8-3.5-7.8-7.9S252.9,380.3,257.2,380.3z"/>
<path class="st6" d="M212.1,392.5c2.4,0,4.2-1.9,4.2-4.2c0-2.3-1.9-4.2-4.2-4.2c-2.3,0-4.2,1.9-4.2,4.2
	C207.9,390.6,209.7,392.5,212.1,392.5z M212.1,380.3c4.3,0,7.8,3.5,7.8,7.9s-3.5,7.9-7.8,7.9c-4.3,0-7.8-3.5-7.8-7.9
	S207.8,380.3,212.1,380.3z"/>
<path class="st1" d="M212.1,392.5c2.4,0,4.2-1.9,4.2-4.2c0-2.3-1.9-4.2-4.2-4.2c-2.3,0-4.2,1.9-4.2,4.2
	C207.9,390.6,209.7,392.5,212.1,392.5z M212.1,380.3c4.3,0,7.8,3.5,7.8,7.9s-3.5,7.9-7.8,7.9c-4.3,0-7.8-3.5-7.8-7.9
	S207.8,380.3,212.1,380.3z"/>
<path class="st10" d="M233.9,272c31,1,61.4-0.4,92.1-4.1c6.3-0.8,11.3,3.5,11.3,9.8v1.4c0,6.3-5.1,12.2-11.3,13
	c-30.9,3.7-61.1,5.1-92.1,4.1L233.9,272L233.9,272z"/>
<path class="st1" d="M233.9,272c31,1,61.4-0.4,92.1-4.1c6.3-0.8,11.3,3.5,11.3,9.8v1.4c0,6.3-5.1,12.2-11.3,13
	c-30.9,3.7-61.1,5.1-92.1,4.1L233.9,272L233.9,272z"/>
<path class="st6" d="M185.6,291.8c19.1,2.4,38.1,4,57.3,4.8c4.7,0.1,8.4-3.6,8.4-8.3v-7.4c0-4.7-3.9-8.6-8.4-8.7
	c-19.2-0.8-38.2-2.4-57.3-4.8c-4.7-0.6-8.4,2.5-8.4,7.2v7.4C177.1,286.7,180.9,291.2,185.6,291.8L185.6,291.8z"/>
<path class="st1" d="M185.6,291.8c19.1,2.4,38.1,4,57.3,4.8c4.7,0.1,8.4-3.6,8.4-8.3v-7.4c0-4.7-3.9-8.6-8.4-8.7
	c-19.2-0.8-38.2-2.4-57.3-4.8c-4.7-0.6-8.4,2.5-8.4,7.2v7.4C177.1,286.7,180.9,291.2,185.6,291.8L185.6,291.8z"/>
<path class="st11" d="M313.5,392.1c0.1-4.3,1-12.9,6-24l6.6-23.8l20.6,8.8l-5.8,18.2c0,0,17.7,8.5,24.2,10.8
	c4.3,1.6,17.4,4.5,16.8,10.1c0,1.7-1.3,3-3,3h-62.4C314.7,395.1,313.4,393.6,313.5,392.1L313.5,392.1z"/>
<path class="st1" d="M313.5,392.1c0.1-4.3,1-12.9,6-24l6.6-23.8l20.6,8.8l-5.8,18.2c0,0,17.7,8.5,24.2,10.8
	c4.3,1.6,17.4,4.5,16.8,10.1c0,1.7-1.3,3-3,3h-62.4C314.7,395.1,313.4,393.6,313.5,392.1L313.5,392.1z"/>
<path class="st6" d="M324.7,378c3.3,2.4,20.4,5.3,16,1.9c-4.3-3.4,0-8.8,0-8.8s17.7,8.5,24.2,10.8c4.3,1.6,17.4,4.5,16.8,10.1
	c0,1.7-1.3,3-3,3h-62.4c-1.7,0-3-1.3-3-3c0-3.6,0.7-10.4,4-19.1C320.9,373,321.6,375.7,324.7,378L324.7,378z"/>
<path class="st1" d="M324.7,378c3.3,2.4,20.4,5.3,16,1.9c-4.3-3.4,0-8.8,0-8.8s17.7,8.5,24.2,10.8c4.3,1.6,17.4,4.5,16.8,10.1
	c0,1.7-1.3,3-3,3h-62.4c-1.7,0-3-1.3-3-3c0-3.6,0.7-10.4,4-19.1C320.9,373,321.6,375.7,324.7,378L324.7,378z"/>
<path class="st11" d="M298.6,395.1H253c-1,0-1.7-0.6-1.9-1.6c-0.7-3.6-0.5-11.7,3.6-22.6l0.4-21.9l23.4,4l-3,18.7
	c0,0,9.4,10.4,13.9,12.2c3.1,1.3,10.3,1.4,11.2,8.9C300.6,394,299.8,395.1,298.6,395.1L298.6,395.1z"/>
<path class="st1" d="M298.6,395.1H253c-1,0-1.7-0.6-1.9-1.6c-0.7-3.6-0.5-11.7,3.6-22.6l0.4-21.9l23.4,4l-3,18.7
	c0,0,9.4,10.4,13.9,12.2c3.1,1.3,10.3,1.4,11.2,8.9C300.6,394,299.8,395.1,298.6,395.1L298.6,395.1z"/>
<path class="st6" d="M262.3,378.2c4.8,3.4,8.4,3.7,6.2-1.3c-2.3-5.1,7-5.2,7-5.2s9.4,10.4,13.9,12.2c3.1,1.3,10.3,1.4,11.2,8.9
	c0.1,1.2-0.7,2.2-1.9,2.2h-45.7c-1,0-1.7-0.7-1.9-1.6c-0.7-3.6-0.5-11.7,3.6-22.6C258.1,371.8,257.5,374.8,262.3,378.2L262.3,378.2z
	"/>
<path class="st1" d="M262.3,378.2c4.8,3.4,8.4,3.7,6.2-1.3c-2.3-5.1,7-5.2,7-5.2s9.4,10.4,13.9,12.2c3.1,1.3,10.3,1.4,11.2,8.9
	c0.1,1.2-0.7,2.2-1.9,2.2h-45.7c-1,0-1.7-0.7-1.9-1.6c-0.7-3.6-0.5-11.7,3.6-22.6C258.1,371.8,257.5,374.8,262.3,378.2L262.3,378.2z
	"/>
<path class="st7" d="M303.2,227.8c0,0,4.6,4.7,23.4,7.7c18.8,3,57.8,12.4,57.4,27.9s-36.4,97.8-36.4,97.8s-18-3.4-26.4-8.6
	c0,0,14.5-58.8,25.3-74.3c0,0-48.7-6-75.7-17.2s-11.1-36.6-11.1-36.6L303.2,227.8L303.2,227.8z"/>
<path class="st1" d="M303.2,227.8c0,0,4.6,4.7,23.4,7.7c18.8,3,57.8,12.4,57.4,27.9s-36.4,97.8-36.4,97.8s-18-3.4-26.4-8.6
	c0,0,14.5-58.8,25.3-74.3c0,0-48.7-6-75.7-17.2s-11.1-36.6-11.1-36.6L303.2,227.8L303.2,227.8z"/>
<path class="st7" d="M272.5,225.6c0,0-6.9,11.6-1.7,18c5.2,6.4,34.5,18.5,31.2,33.1c-3.4,14.6-14.2,35.2-21.5,84.2
	c0,0-16.6-2.5-27.7-7.2c0,0-1.8-49.8,11.1-71.3c0,0-37-6.9-40.8-19.3c-3.7-12.4,3.3-31.5,3.4-38.3L272.5,225.6L272.5,225.6z"/>
<path class="st1" d="M272.5,225.6c0,0-6.9,11.6-1.7,18c5.2,6.4,34.5,18.5,31.2,33.1c-3.4,14.6-14.2,35.2-21.5,84.2
	c0,0-16.6-2.5-27.7-7.2c0,0-1.8-49.8,11.1-71.3c0,0-37-6.9-40.8-19.3c-3.7-12.4,3.3-31.5,3.4-38.3L272.5,225.6L272.5,225.6z"/>
<path class="st12" d="M294.8,244.1c0.8,0,1.7,0,2.5,0"/>
<path class="st12" d="M293.2,236.3c0,0-7.6,2.3-10.6,12.2c-0.2,0.7,0.7,1.3,1.3,0.8c1.6-1.6,4.1-3.6,7.4-4.6"/>
<path class="st12" d="M350.1,277.9c0-4.2,18-6.4,13.1-10.3s-15.8,8.7-15.8,8.7"/>
<path class="st12" d="M261.7,294.7c0-4.8,17.2-7.4,16.4-12.6c-0.8-5.2-11.8,5-11.8,5"/>
<path class="st10" d="M349.4,361.6l-1.9,4.3c-0.2,0.5-0.7,0.7-1.3,0.6c-4.1-1-21.5-5.1-27.6-9.4c-0.4-0.2-0.5-0.7-0.4-1.2l1.2-4.8
	c0.1-0.7,1-1.1,1.7-0.7c2.8,1.4,10.4,5.1,27.6,9.7C349.4,360.3,349.7,361,349.4,361.6L349.4,361.6z"/>
<path class="st1" d="M349.4,361.6l-1.9,4.3c-0.2,0.5-0.7,0.7-1.3,0.6c-4.1-1-21.5-5.1-27.6-9.4c-0.4-0.2-0.5-0.7-0.4-1.2l1.2-4.8
	c0.1-0.7,1-1.1,1.7-0.7c2.8,1.4,10.4,5.1,27.6,9.7C349.4,360.3,349.7,361,349.4,361.6L349.4,361.6z"/>
<path class="st10" d="M282.7,358c0.1-0.6-0.5-1.2-1.2-1c-1.2,0.5-3.4,0.8-6.5,0.1c-4.7-1.1-18.5-5.4-22.4-6.8
	c-0.6-0.1-1.1,0.2-1.1,0.8v5.7c0,0.4,0.2,0.6,0.5,0.8c3.3,1.4,20.3,8.7,29.2,6.8c0.4-0.1,0.6-0.4,0.7-0.7L282.7,358z"/>
<path class="st1" d="M282.7,358c0.1-0.6-0.5-1.2-1.2-1c-1.2,0.5-3.4,0.8-6.5,0.1c-4.7-1.1-18.5-5.4-22.4-6.8
	c-0.6-0.1-1.1,0.2-1.1,0.8v5.7c0,0.4,0.2,0.6,0.5,0.8c3.3,1.4,20.3,8.7,29.2,6.8c0.4-0.1,0.6-0.4,0.7-0.7L282.7,358z"/>
<path class="st13" d="M268.9,238.8c0.1,1.8,0.7,3.5,1.9,5c3.7,4.7,20.4,12.3,27.9,21.9"/>
<path class="st13" d="M269.6,232.2c-0.2,1-0.5,1.9-0.6,2.9"/>
<path class="st1" d="M368.2,384.8c0,0-1.3,2.1-2.3,6.2h-46.4c0,0-0.1-3.1-2.5-5.3"/>
<path class="st1" d="M287.5,384.8c0,0-6.4,0.5-8.8,6.2h-24.2c0,0-1.3-2.9-1.3-5.3"/>
<linearGradient id="SVGID_00000051379770769314311810000018110129993150545030_" gradientUnits="userSpaceOnUse" x1="214.7209" y1="683.4135" x2="364.7352" y2="683.4135" gradientTransform="matrix(1 0 0 1 0 -518)">
	<stop  offset="0" style="stop-color:#21D4FD"/>
	<stop  offset="1" style="stop-color:#B721FF"/>
</linearGradient>
<path style="fill:url(#SVGID_00000051379770769314311810000018110129993150545030_);" d="M325.6,154.9c-0.6,2.3-1.2,4.6-1.8,6.8
	c-6.4,23.2-14.8,67.3-14.8,67.3c-41.1,8.7-84.5,0-84.5,0c-0.2-9.7,1-22.3,2.2-35.6c-6.8-1.9-11.6-8.1-11.8-18.5
	c-0.4-12.6,1.9-35.2,3.3-45.7c1.1-9.3,0.4-14.9,14.7-21.9c7.2-4.1,19.2-6.2,33.9-8.1c28.9-3.9,49.8,2.1,57.2,5.2
	c5.9-1.6,7.5,5.3,7.5,5.3c3.3-2.4,7,8,7,8c9.5,12.2,17,32.6,19.5,40c0.5,1.6,1.6,3,2.9,4c6.8,5.2,3,11.5,3,11.5l-13.9,4.2
	c0,0-6.8,1.7-11.8-7.1C333.8,163,326.8,150.5,325.6,154.9L325.6,154.9z"/>
<g class="st3">
	<g class="st3">
		<path class="st4" d="M347.3,171.6c0,0,0.4-6.4,5.4-7.6c5.1-1.2-1.4-3-5.4-2.1c-4,1-3.1-2.5-6.5-8.3c-3.4-5.8-5.1-10.4-8.1-7
			c-2.9,3.4-5.9,3.7-7.1,8.5s4.8,15.3,4.8,15.3l9.6,7.5l4.8,2.8h7.2l2.5-6.3L347.3,171.6L347.3,171.6z"/>
	</g>
</g>
<path class="st1" d="M325.6,154.9c-0.6,2.3-1.2,4.6-1.8,6.8c-6.4,23.2-14.8,67.3-14.8,67.3c-41.1,8.7-84.5,0-84.5,0
	c-0.2-9.7,1-22.3,2.2-35.6c-6.8-1.9-11.6-8.1-11.8-18.5c-0.4-12.6,1.9-35.2,3.3-45.7c1.1-9.3,0.4-14.9,14.7-21.9
	c7.2-4.1,19.2-6.2,33.9-8.1c28.9-3.9,49.8,2.1,57.2,5.2c5.9-1.6,7.5,5.3,7.5,5.3c3.3-2.4,7,8,7,8c9.5,12.2,17,32.6,19.5,40
	c0.5,1.6,1.6,3,2.9,4c6.8,5.2,3,11.5,3,11.5l-13.9,4.2c0,0-6.8,1.7-11.8-7.1C333.8,163,326.8,150.5,325.6,154.9L325.6,154.9z"/>
<g class="st3">
	<g class="st3">
		<path class="st4" d="M224.4,229c-0.1-7,0.4-15.6,1.2-24.8c-1.4,19.6,39.4,25.7,40.6,15.1c1.3-10.6-39.7-26-17.4-20.7
			c19.4,4.7,57,0.2,66.3-1c-3.5,16.8-6.3,31.3-6.3,31.3C267.8,237.7,224.4,229,224.4,229L224.4,229z"/>
	</g>
</g>
<g class="st3">
	<g class="st3">
		<path class="st4" d="M243.1,130.4c0,0,5.8,17,5.8,26.1s16.3,15.1,16.4,15.1c-8.8-1.8-17.2-4.1-21.3-5.3c-1.4-0.5-2.4-1.8-2.3-3.3
			C242.5,153.7,243.3,141.3,243.1,130.4L243.1,130.4L243.1,130.4z"/>
	</g>
</g>
<path class="st15" d="M330.9,126.2c0,0,0.2,12.3-4.3,23.6c-0.5,1.1,0.7,2.1,1.7,1.3c2.2-1.6,5.3-4.8,8.2-11.4"/>
<path class="st15" d="M221.8,178.7c3.4-11.2,9.3-14.1,13.7-14.4c0.7,0,1-1,0.4-1.3c-2.7-1.4-7.8-2.5-14.1,4.5"/>
<path class="st10" d="M287,146.5c0,1.1,0.8,1.9,1.9,1.9c1.1,0,1.9-0.8,1.9-1.9s-0.8-1.9-1.9-1.9C287.8,144.5,287,145.4,287,146.5z"
	/>
<path class="st15" d="M287,146.5c0,1.1,0.8,1.9,1.9,1.9c1.1,0,1.9-0.8,1.9-1.9s-0.8-1.9-1.9-1.9C287.8,144.5,287,145.4,287,146.5z"
	/>
<path class="st10" d="M284.5,168.5c0,1.1,0.8,1.9,1.9,1.9c1.1,0,1.9-0.8,1.9-1.9s-0.8-1.9-1.9-1.9
	C285.3,166.5,284.5,167.4,284.5,168.5z"/>
<path class="st15" d="M284.5,168.5c0,1.1,0.8,1.9,1.9,1.9c1.1,0,1.9-0.8,1.9-1.9s-0.8-1.9-1.9-1.9
	C285.3,166.5,284.5,167.4,284.5,168.5z"/>
<path class="st10" d="M278,221.3c0,1.1,0.8,1.9,1.9,1.9c1.1,0,1.9-0.8,1.9-1.9c0-1.1-0.8-1.9-1.9-1.9
	C278.8,219.3,278,220.2,278,221.3z"/>
<path class="st1" d="M278,221.3c0,1.1,0.8,1.9,1.9,1.9c1.1,0,1.9-0.8,1.9-1.9c0-1.1-0.8-1.9-1.9-1.9
	C278.8,219.3,278,220.2,278,221.3z"/>
<path class="st11" d="M314.9,182.8c0,0,6.3,6,3.4,6.2c-3,0.1-6.8-4-10.3-4.5c-3.5-0.5,2.2-2.7,2.2-2.7L314.9,182.8L314.9,182.8z"/>
<path class="st1" d="M314.9,182.8c0,0,6.3,6,3.4,6.2c-3,0.1-6.8-4-10.3-4.5c-3.5-0.5,2.2-2.7,2.2-2.7L314.9,182.8L314.9,182.8z"/>
<path class="st11" d="M278.1,176c0.6-0.5,1.3-0.7,2.1-0.7c3.1,0.2,11.9,1,15.3,0.7c5.9-0.4,23.4-4.1,23.4-4.1c0.4-0.1,0.8,0,1.2,0.1
	l10.9,3.1c0.4,0.1,0.7,0.4,1.1,0.6l6.5,6c0.2,0.2,0.4,0.5,0.5,0.7l1.3,2.5c0.6,1.1,0.4,2.4-0.5,3.1l-10.9,0.4
	c-0.7,0-1.3-0.2-1.8-0.6l-3.3-2.8c-0.2-0.1-0.4-0.4-0.5-0.6c-0.8-1.3-3.9-5.6-8.6-5.1c0,0,10.3,5.4,8.3,7.7
	c-1.9,2.3-9.8-4.2-12.4-3.5c-2.5,0.6-2.8,7-16.8,4.7c-0.6-0.1-1.3-0.1-1.9,0.1l-12.8,3.5c-1.6,0.5-3.3-0.5-3.6-2.2
	C274.9,186.1,274.1,179.6,278.1,176L278.1,176z"/>
<path class="st1" d="M278.1,176c0.6-0.5,1.3-0.7,2.1-0.7c3.1,0.2,11.9,1,15.3,0.7c5.9-0.4,23.4-4.1,23.4-4.1c0.4-0.1,0.8,0,1.2,0.1
	l10.9,3.1c0.4,0.1,0.7,0.4,1.1,0.6l6.5,6c0.2,0.2,0.4,0.5,0.5,0.7l1.3,2.5c0.6,1.1,0.4,2.4-0.5,3.1l-10.9,0.4
	c-0.7,0-1.3-0.2-1.8-0.6l-3.3-2.8c-0.2-0.1-0.4-0.4-0.5-0.6c-0.8-1.3-3.9-5.6-8.6-5.1c0,0,10.3,5.4,8.3,7.7
	c-1.9,2.3-9.8-4.2-12.4-3.5c-2.5,0.6-2.8,7-16.8,4.7c-0.6-0.1-1.3-0.1-1.9,0.1l-12.8,3.5c-1.6,0.5-3.3-0.5-3.6-2.2
	C274.9,186.1,274.1,179.6,278.1,176L278.1,176z"/>
<path class="st11" d="M317.4,174.3l2.8,0.5c1.3,0.2,2.5,0.8,3.6,1.7l2.9,2.5c0.5,0.5,1,1,1.3,1.4l1.8,2.9c0.2,0.4,0.5,0.6,0.7,0.8
	c1.1,1.2,4.1,4.8,0.8,4.3"/>
<path class="st1" d="M317.4,174.3l2.8,0.5c1.3,0.2,2.5,0.8,3.6,1.7l2.9,2.5c0.5,0.5,1,1,1.3,1.4l1.8,2.9c0.2,0.4,0.5,0.6,0.7,0.8
	c1.1,1.2,4.1,4.8,0.8,4.3"/>
<path class="st11" d="M325,175.2l2.8,0.7c0.8,0.2,1.7,0.7,2.3,1.3l2.2,2.2c0.2,0.2,0.4,0.4,0.6,0.6l3.6,4.8c0,0,1.9,3.4,0,3.5"/>
<path class="st1" d="M325,175.2l2.8,0.7c0.8,0.2,1.7,0.7,2.3,1.3l2.2,2.2c0.2,0.2,0.4,0.4,0.6,0.6l3.6,4.8c0,0,1.9,3.4,0,3.5"/>
<path class="st1" d="M243,127.8c0.5,11.5-0.5,25.2-1.3,35.3c-0.1,1.4,0.8,2.9,2.3,3.3c5.7,1.6,19.7,5.6,31.1,7"/>
<path class="st15" d="M242.4,119.8c0.1,1.3,0.2,2.7,0.4,4.1"/>
<path class="st15" d="M238,107.7c1.4,1.3,2.5,3.6,3.4,6.8"/>
<path class="st11" d="M302.4,100.1c0,0-0.8-2.5-5.2-4c-4.3-1.4-19.4-3.7-27.1,0s7.1,24.3,7.1,24.3l6.9,9.5l6.2,4.6l2.8-8.2l3.5-3.6
	c0,0,7.6-6.3,7-12.4C302.9,103.8,302.4,100.1,302.4,100.1L302.4,100.1z"/>
<linearGradient id="SVGID_00000171680419434101396700000017493045537857923509_" gradientUnits="userSpaceOnUse" x1="263.8362" y1="632.3549" x2="305.5192" y2="632.3549" gradientTransform="matrix(1 0 0 1 0 -518)">
	<stop  offset="0" style="stop-color:#21D4FD"/>
	<stop  offset="1" style="stop-color:#B721FF"/>
</linearGradient>
<path style="fill:url(#SVGID_00000171680419434101396700000017493045537857923509_);" d="M270.8,99.2c10.3,32.1,19.2,33.6,19.2,33.6
	c3-11.8,5.5-9.2,9.6-16.7c3.3-5.9,2.2-13.4,1.6-16.2c-0.1-0.7-0.6-1.2-1.2-1.6c-10.1-5.2-22.6-3.3-27.6-2.2
	C271.2,96.6,270.5,97.9,270.8,99.2L270.8,99.2z M264.4,99.5c1.2-4.2,6.8-5.4,6.8-5.4c26.4-4.5,32,5.1,32,5.1c5.3,15,0,26.9,0,26.9
	s-7.5-3.1-8.8,0s-3.6,9.8-3.6,9.8s-5.2-2.5-9.2-8c-4-5.4-13.6,0-13.6,0C261.7,117.2,264.4,99.5,264.4,99.5L264.4,99.5z"/>
<g class="st17">
	<g class="st17">
		<path class="st18" d="M270.8,99.2c10.3,32.1,19.2,33.6,19.2,33.6c3-11.8,5.5-9.2,9.6-16.7c3.3-5.9,2.2-13.4,1.6-16.2
			c-0.1-0.7-0.6-1.2-1.2-1.6c-10.1-5.2-22.6-3.3-27.6-2.2C271.2,96.6,270.5,97.9,270.8,99.2L270.8,99.2z M264.4,99.5
			c1.2-4.2,6.8-5.4,6.8-5.4c26.4-4.5,32,5.1,32,5.1c5.3,15,0,26.9,0,26.9s-7.5-3.1-8.8,0s-3.6,9.8-3.6,9.8s-5.2-2.5-9.2-8
			c-4-5.4-13.6,0-13.6,0C261.7,117.2,264.4,99.5,264.4,99.5L264.4,99.5z"/>
	</g>
</g>
<path class="st1" d="M270.8,99.2c10.3,32.1,19.2,33.6,19.2,33.6c3-11.8,5.5-9.2,9.6-16.7c3.3-5.9,2.2-13.4,1.6-16.2
	c-0.1-0.7-0.6-1.2-1.2-1.6c-10.1-5.2-22.6-3.3-27.6-2.2C271.2,96.6,270.5,97.9,270.8,99.2L270.8,99.2z M264.4,99.5
	c1.2-4.2,6.8-5.4,6.8-5.4c26.4-4.5,32,5.1,32,5.1c5.3,15,0,26.9,0,26.9s-7.5-3.1-8.8,0s-3.6,9.8-3.6,9.8s-5.2-2.5-9.2-8
	c-4-5.4-13.6,0-13.6,0C261.7,117.2,264.4,99.5,264.4,99.5L264.4,99.5L264.4,99.5z"/>
<path class="st7" d="M307.5,50.4c0,0,22.7,4.6,10.3,19.3C303.9,86.2,307.5,50.4,307.5,50.4z"/>
<path class="st1" d="M307.5,50.4c0,0,22.7,4.6,10.3,19.3C303.9,86.2,307.5,50.4,307.5,50.4z"/>
<path class="st11" d="M316.4,86.6c0,0,5.4-21.9-4.9-32.4c-10.3-10.5-21.5-12.7-29.8-7.5c-8.3,5.2-11.8,18-10.5,24.6
	c1.3,6.6,0.7,30.4,12.2,40.3c11.5,9.9,18.6,7.5,26.1-6C314.5,96.8,316.9,94.3,316.4,86.6z"/>
<path class="st1" d="M316.4,86.6c0,0,5.4-21.9-4.9-32.4c-10.3-10.5-21.5-12.7-29.8-7.5c-8.3,5.2-11.8,18-10.5,24.6
	c1.3,6.6,0.7,30.4,12.2,40.3c11.5,9.9,18.6,7.5,26.1-6C314.5,96.8,316.9,94.3,316.4,86.6z"/>
<path class="st7" d="M276.6,82.3c0,0,8.7-8.6,11.3-18.7s4.1-11.8,14-6.9c9.9,5,25.2-1.7,21.2-14.1c-4.2-13-17.1,3.9-29.5-0.5
	c-12.4-4.2-21.3,3.5-21.3,14.9c0,0-7.5,7.2,0,26.2L276.6,82.3L276.6,82.3z"/>
<path class="st1" d="M276.6,82.3c0,0,8.7-8.6,11.3-18.7s4.1-11.8,14-6.9c9.9,5,25.2-1.7,21.2-14.1c-4.2-13-17.1,3.9-29.5-0.5
	c-12.4-4.2-21.3,3.5-21.3,14.9c0,0-7.5,7.2,0,26.2L276.6,82.3L276.6,82.3z"/>
<path class="st11" d="M279.4,80.8c0,0-2.2-12-8.3-10.9c-6,1.1-1.7,18.8,5.4,16.9"/>
<path class="st1" d="M279.4,80.8c0,0-2.2-12-8.3-10.9c-6,1.1-1.7,18.8,5.4,16.9"/>
<path class="st11" d="M308.2,84.9c0,0,2.4,11.1,1.6,13c-0.8,1.9-8.2,0.5-8.2,0.5"/>
<path class="st1" d="M308.2,84.9c0,0,2.4,11.1,1.6,13c-0.8,1.9-8.2,0.5-8.2,0.5"/>
<path class="st11" d="M300.7,103.2c0,0-5.8,2.3-10.9-5.3L300.7,103.2z"/>
<path class="st1" d="M300.7,103.2c0,0-5.8,2.3-10.9-5.3"/>
<path class="st7" d="M312.2,85.8c-0.2,1.1,0.1,1.9,0.6,2.1c0.5,0.1,1.2-0.6,1.3-1.7c0.1-1.1-0.1-1.9-0.6-2.1
	C313.1,84,312.4,84.8,312.2,85.8L312.2,85.8z"/>
<path class="st7" d="M298.1,84.8c-0.2,1.1,0.1,1.9,0.6,2.1c0.5,0.1,1.2-0.6,1.3-1.7c0.2-1.1-0.1-1.9-0.6-2.1
	C298.9,82.9,298.3,83.7,298.1,84.8L298.1,84.8z"/>
<path class="st1" d="M309.3,85.4c-0.2,2.9,2.7,5.6,6.5,6c3.9,0.4,7.4-1.7,7.6-4.6s-2.8-4.2-6.6-4.6
	C312.8,81.7,309.6,82.5,309.3,85.4L309.3,85.4z"/>
<path class="st1" d="M291.1,83.5c-0.2,2.9,2.7,5.6,6.5,6c3.9,0.4,7.4-1.7,7.6-4.6c0.2-2.9-2.8-4.2-6.6-4.6
	C294.6,79.9,291.3,80.6,291.1,83.5L291.1,83.5z"/>
<path class="st11" d="M309.3,85.4l-4.1-0.4L309.3,85.4z"/>
<path class="st1" d="M309.3,85.4l-4.1-0.4"/>
<path class="st11" d="M291.6,82.1l-15-8.8L291.6,82.1z"/>
<path class="st1" d="M291.6,82.1l-15-8.8"/>
<path class="st11" d="M274.1,95.7l-0.7,1.7L274.1,95.7z"/>
<path class="st1" d="M274.1,95.7l-0.7,1.7"/>
<path class="st11" d="M317.6,80.6c0,0-2.3-2.9-5.1-1.4L317.6,80.6z"/>
<path class="st1" d="M317.6,80.6c0,0-2.3-2.9-5.1-1.4"/>
<path class="st11" d="M294.4,79.3c0,0,4-3.9,7.8-1.1L294.4,79.3z"/>
<path class="st1" d="M294.4,79.3c0,0,4-3.9,7.8-1.1"/>
<path class="st13" d="M312.7,44c-6,1.9-16.3,4.3-24.7,1.8c-12.8-3.9-8.4,10.5-11.3,14.5"/>
<path class="st13" d="M317.9,42.1c0,0-1.1,0.5-2.8,1.1"/>
<path class="st13" d="M302.6,51.2c-0.7-0.2-1.4-0.5-2.2-0.7"/>
<path class="st13" d="M316.4,49.5c0,0-2.7,4.2-11.5,2.3"/>
<path class="st13" d="M283.9,57.7c-0.5,3.6-1.9,8.9-5.4,13.8"/>
<path class="st13" d="M284.1,53.2c0,0,0,0.8-0.1,2.3"/>
<g class="st3">
	<g class="st3">
		<path class="st4" d="M272.8,191.3c1.1,1,0.5,2.7-1,2.7c-8.7,0-32.1,0.1-41.2-0.5c-11.2-0.6-2.7-12.9,6.4-8.2
			C245.3,189.6,262.9,182.5,272.8,191.3z"/>
	</g>
</g>
<path class="st11" d="M370.7,179.3c0,0-5.3-14-18.5-11.8c-13.4,2.3-3.1,13.3,3.3,14.3C355.4,181.8,356.3,177.9,370.7,179.3
	L370.7,179.3z"/>
<path class="st1" d="M370.7,179.3c0,0-5.3-14-18.5-11.8c-13.4,2.3-3.1,13.3,3.3,14.3C355.4,181.8,356.3,177.9,370.7,179.3
	L370.7,179.3z"/>
<path class="st11" d="M381.8,187.2c1.7,1.7,5.9,1.9,3.1-1.9c-3.1-4.2-6.6-5.6-9-6.6c-6.3-2.8-8.7-2.3-14.4-3.5
	c-5.7-1.2-6.8,1.1-8.7,2.2c-4.7,2.5-5.8,3-7,5.6s-2.4,5.9,1.2,5.9c3.4,0,3.5-5.6,6.8-5.3c3.3,0.2,4.8,5.3,7.1,5.3h0.8
	c1.9,0,2.1-1.6,0.8-4.1s-2.4-4.8-2.4-4.8s2.8,1.3,4.3,4.6c1.6,3.3,1.8,4.7,4.7,4.7c2.9,0,2.7-2.2-0.1-6.8c0,0,2.5,1.4,4,4
	c1.4,2.5,2.2,2.4,4,2.4c2.4,0,2.2-4-2.1-6.5C374.8,182.4,375.8,181.1,381.8,187.2L381.8,187.2z"/>
<path class="st1" d="M381.8,187.2c1.7,1.7,5.9,1.9,3.1-1.9c-3.1-4.2-6.6-5.6-9-6.6c-6.3-2.8-8.7-2.3-14.4-3.5
	c-5.7-1.2-6.8,1.1-8.7,2.2c-4.7,2.5-5.8,3-7,5.6s-2.4,5.9,1.2,5.9c3.4,0,3.5-5.6,6.8-5.3c3.3,0.2,4.8,5.3,7.1,5.3h0.8
	c1.9,0,2.1-1.6,0.8-4.1s-2.4-4.8-2.4-4.8s2.8,1.3,4.3,4.6c1.6,3.3,1.8,4.7,4.7,4.7c2.9,0,2.7-2.2-0.1-6.8c0,0,2.5,1.4,4,4
	c1.4,2.5,2.2,2.4,4,2.4c2.4,0,2.2-4-2.1-6.5C374.8,182.4,375.8,181.1,381.8,187.2L381.8,187.2z"/>
<path class="st11" d="M365.3,177.8c0,0,1.7-0.1,2.7,2.8L365.3,177.8z"/>
<path class="st15" d="M365.3,177.8c0,0,1.7-0.1,2.7,2.8"/>
<path class="st6" d="M456.1,395.2h4.8l1.3-189.6h-6L456.1,395.2L456.1,395.2z"/>
<path class="st1" d="M456.1,395.2h4.8l1.3-189.6h-6L456.1,395.2L456.1,395.2z"/>
<path class="st10" d="M451.4,395.2h4.8V205.5h-6L451.4,395.2L451.4,395.2z"/>
<path class="st1" d="M451.4,395.2h4.8V205.5h-6L451.4,395.2L451.4,395.2z"/>
<path class="st8" d="M183.9,205.5h326.8V194H183.9L183.9,205.5L183.9,205.5z"/>
<path class="st8" d="M115.5,205.5h73.2V194h-73.2V205.5z"/>
<path class="st8" d="M169.1,224.8h325v-19.2h-325V224.8z"/>
<path class="st8" d="M169.1,224.8h-37.9v-19.2h37.9V224.8z"/>
<g>
	<path class="st19" d="M169.1,224.8h-37.9v-19.2h37.9V224.8z"/>
</g>
<path class="st20" d="M169.1,224.8h-37.9v-19.2h37.9V224.8z"/>
<path class="st6" d="M169.1,395.2h4.7l1.3-189.6h-6V395.2z"/>
<path class="st1" d="M169.1,395.2h4.7l1.3-189.6h-6V395.2z"/>
<path class="st10" d="M164.2,395.2h4.8V205.5h-6L164.2,395.2z"/>
<path class="st1" d="M164.2,395.2h4.8V205.5h-6L164.2,395.2z"/>
<path class="st6" d="M494,395.2h4.8l1.3-189.6h-6L494,395.2L494,395.2z"/>
<path class="st1" d="M494,395.2h4.8l1.3-189.6h-6L494,395.2L494,395.2z"/>
<path class="st10" d="M489.3,395.2h4.8V205.5h-6L489.3,395.2L489.3,395.2z"/>
<path class="st1" d="M489.3,395.2h4.8V205.5h-6L489.3,395.2L489.3,395.2z"/>
<path class="st6" d="M131.2,395.2h4.8l1.3-189.6h-6v189.6H131.2z"/>
<path class="st1" d="M131.2,395.2h4.8l1.3-189.6h-6v189.6H131.2z"/>
<path class="st10" d="M126.4,395.2h4.8V205.5h-6L126.4,395.2z"/>
<path class="st1" d="M126.4,395.2h4.8V205.5h-6L126.4,395.2z"/>
<path class="st6" d="M299.5,192.6h38.4c0.7,0,1.4-0.6,1.4-1.4V188l-41.1,1.3v1.9C298.1,192,298.7,192.7,299.5,192.6L299.5,192.6z"/>
<path class="st1" d="M299.5,192.6h38.4c0.7,0,1.4-0.6,1.4-1.4V188l-41.1,1.3v1.9C298.1,192,298.7,192.7,299.5,192.6L299.5,192.6z"/>
<path class="st10" d="M343.4,192.6h77.1c1.2,0,2.4-1,2.8-2.2l16.5-53.8c0.5-1.4-0.5-2.8-1.9-2.8h-77.1c-1.2,0-2.4,1-2.8,2.2
	l-16.5,53.8C341,191.4,342,192.6,343.4,192.6L343.4,192.6z"/>
<path class="st1" d="M343.4,192.6h77.1c1.2,0,2.4-1,2.8-2.2l16.5-53.8c0.5-1.4-0.5-2.8-1.9-2.8h-77.1c-1.2,0-2.4,1-2.8,2.2
	l-16.5,53.8C341,191.4,342,192.6,343.4,192.6L343.4,192.6z"/>
<path class="st6" d="M338.1,189.8l16.5-53.8c0.4-1.2,1.6-2.2,2.8-2.2h3.5c-1.2,0-2.4,1-2.8,2.2l-16.5,53.8c-0.5,1.4,0.5,2.8,1.9,2.8
	h-3.5C338.5,192.6,337.7,191.4,338.1,189.8z"/>
<path class="st1" d="M338.1,189.8l16.5-53.8c0.4-1.2,1.6-2.2,2.8-2.2h3.5c-1.2,0-2.4,1-2.8,2.2l-16.5,53.8c-0.5,1.4,0.5,2.8,1.9,2.8
	h-3.5C338.5,192.6,337.7,191.4,338.1,189.8z"/>
<path class="st11" d="M385.9,163.4c-0.4,2.7,1.6,4.7,4.2,4.7c2.7,0,5.1-2.2,5.3-4.7c0.2-2.5-1.6-4.7-4.2-4.7
	C388.5,158.7,386.3,160.7,385.9,163.4z"/>
<path class="st1" d="M385.9,163.4c-0.4,2.7,1.6,4.7,4.2,4.7c2.7,0,5.1-2.2,5.3-4.7c0.2-2.5-1.6-4.7-4.2-4.7
	C388.5,158.7,386.3,160.7,385.9,163.4z"/>
</svg>
