<?xml version="1.0" encoding="utf-8"?>
<!-- Generator: Adobe Illustrator 27.0.0, SVG Export Plug-In . SVG Version: 6.00 Build 0)  -->
<svg version="1.1" id="Слой_1" xmlns="http://www.w3.org/2000/svg" xmlns:xlink="http://www.w3.org/1999/xlink" x="0px" y="0px"
	 viewBox="0 0 660 660" style="enable-background:new 0 0 660 660;" xml:space="preserve">
<style type="text/css">
	.st0{fill:#E6E7E8;}
	.st1{fill:url(#SVGID_1_);}
	.st2{fill:url(#SVGID_00000086651110473957188960000005295921887415895990_);}
	.st3{fill:url(#SVGID_00000051348637800732430160000009286886714046167950_);}
	.st4{fill:#252526;}
	.st5{fill:#262627;}
	.st6{fill:#282828;}
	.st7{fill:#29292A;}
	.st8{fill:#2A2A2B;}
	.st9{fill:#2C2C2C;}
	.st10{fill:#2D2D2D;}
	.st11{fill:#2E2E2F;}
	.st12{fill:#212122;}
	.st13{fill:url(#SVGID_00000122685524804229371370000001960111959170971523_);}
	.st14{fill:url(#SVGID_00000163049127923127018650000003632984217981620912_);}
	.st15{fill:#21D4FD;}
	.st16{fill:#D7E8F1;}
	.st17{fill:#231F20;}
	.st18{fill:#373738;}
	.st19{fill:#E0DFD7;}
	.st20{fill:#F0EDE2;}
	.st21{fill:none;}
	.st22{fill:#F7F3F1;}
	.st23{fill:url(#SVGID_00000157286384996748562810000016897478446723825062_);}
	.st24{fill:url(#SVGID_00000029725303131194680750000017004909597848841662_);}
	.st25{fill:url(#SVGID_00000027576916258114931650000003743799277325359240_);}
	.st26{fill:url(#SVGID_00000026880995699662999300000007467779964458714281_);}
	.st27{fill:url(#SVGID_00000073719473861782027390000012176542135505982599_);}
	.st28{fill:url(#SVGID_00000031899383575105970330000008444885486547021497_);}
	.st29{fill:url(#SVGID_00000102515807445489263340000013734239971994081199_);}
	.st30{fill:url(#SVGID_00000075860928761126149930000004994462794975432124_);}
	.st31{fill:url(#SVGID_00000057830144620388304840000002898168816035150224_);}
	.st32{fill:url(#SVGID_00000029766091076671208250000011441263461732288185_);}
	.st33{fill:url(#SVGID_00000003789245238272969070000005930690625010285449_);}
	.st34{fill:url(#SVGID_00000144308475227236294160000006155512570127604389_);}
	.st35{fill:url(#SVGID_00000009569871998568731040000001730674820677951926_);}
	.st36{fill:url(#SVGID_00000126315600514973121750000001647834264838821530_);}
	.st37{fill:url(#SVGID_00000010274960717518839720000009072950052880048829_);}
	.st38{fill:url(#SVGID_00000145743427849418458440000002351918698866055580_);}
	.st39{fill:url(#SVGID_00000043428453863764145160000015302252350509611917_);}
	.st40{fill:url(#SVGID_00000161592190390154735290000003080950232185102496_);}
	.st41{fill:url(#SVGID_00000135669725520888758770000002179530934209027225_);}
	.st42{fill:url(#SVGID_00000052819551345804414480000005666209264687218572_);}
	.st43{fill:url(#SVGID_00000001657628082152740130000008696391183559392930_);}
	.st44{fill:#0091D1;}
</style>
<g>
	<g id="Vectorportal.com">
		<g>
			<g>
				<path class="st0" d="M551,413.6l-116.6-69l-85.1,49.1c-3.5,2-6.3,6.3-6.3,9.5l0,16.5l96.5,57.1L551,413.6L551,413.6z"/>
				<path class="st0" d="M514.9,411.8L418.8,356l-77.4,44.7c-3.5,2-6.3,6.3-6.3,9.5l0.1,28l66.8,38.8c7.7,4.5,20.5,4.5,28.2,0
					l84.5-48.8C522.6,423.7,522.6,416.3,514.9,411.8L514.9,411.8z"/>
				<path class="st0" d="M373,238.4c9.2-5.3,24.2-5.3,33.3,0l133.9,77.8c9.1,5.3,9.1,14-0.1,19.3L277.5,487.1
					c-9.2,5.3-24.2,5.3-33.3,0l-133.9-77.8c-9.1-5.3-9.1-14,0.1-19.3L373,238.4z"/>
			</g>
			
				<linearGradient id="SVGID_1_" gradientUnits="userSpaceOnUse" x1="127.1199" y1="300.3" x2="503.5299" y2="300.3" gradientTransform="matrix(1 0 0 -1 0 662)">
				<stop  offset="0" style="stop-color:#231F20"/>
				<stop  offset="0.16" style="stop-color:#302D2F"/>
				<stop  offset="0.47" style="stop-color:#464547"/>
				<stop  offset="0.76" style="stop-color:#535455"/>
				<stop  offset="1" style="stop-color:#58595B"/>
			</linearGradient>
			<path class="st1" d="M503.3,250.9c0,0.2,0,0.4,0,0.6c0,0.2,0,0.4-0.1,0.6c0,0.2-0.1,0.4-0.1,0.5c0,0.2-0.1,0.4-0.2,0.6
				c-0.1,0.2-0.1,0.3-0.2,0.5c-0.1,0.2-0.2,0.4-0.3,0.6c-0.1,0.1-0.2,0.3-0.3,0.4c-0.1,0.2-0.3,0.5-0.5,0.7
				c-0.1,0.1-0.2,0.3-0.3,0.4c-0.2,0.3-0.5,0.6-0.8,0.8c-0.1,0.1-0.3,0.3-0.4,0.4c-0.2,0.1-0.3,0.3-0.5,0.5
				c-0.2,0.2-0.4,0.3-0.6,0.5c-0.2,0.1-0.4,0.3-0.6,0.4c-0.3,0.2-0.7,0.5-1,0.7L274.7,387.7c-0.6,0.4-1.3,0.7-2,1
				c-0.2,0.1-0.4,0.2-0.6,0.2c-0.6,0.2-1.1,0.5-1.7,0.6c-0.1,0-0.3,0.1-0.5,0.1c-0.3,0.1-0.6,0.2-0.9,0.2c-0.3,0.1-0.6,0.2-0.9,0.2
				c-0.3,0.1-0.6,0.1-0.9,0.2s-0.6,0.1-0.9,0.2c-0.7,0.1-1.5,0.2-2.2,0.3c-0.2,0-0.5,0-0.7,0.1c-0.5,0-0.9,0.1-1.4,0.1
				c-0.3,0-0.6,0-0.9,0c-0.4,0-0.7,0-1.1,0c-0.3,0-0.6,0-0.9,0c-0.3,0-0.7,0-1,0c-0.3,0-0.6,0-0.9-0.1c-0.3,0-0.7-0.1-1-0.1
				c-0.3,0-0.6-0.1-0.9-0.1c-0.4,0-0.7-0.1-1.1-0.2c-0.3,0-0.6-0.1-0.8-0.2c-0.4-0.1-0.8-0.2-1.2-0.3c-0.2-0.1-0.5-0.1-0.7-0.2
				c-0.7-0.2-1.4-0.4-2.1-0.7c-0.4-0.1-0.7-0.3-1-0.4c-0.2-0.1-0.4-0.1-0.5-0.2c-0.5-0.2-1-0.5-1.5-0.8l-113.6-66
				c-1.4-0.8-2.6-1.8-3.5-2.8c-1.5-1.7-2.3-3.5-2.3-5.4l0,0l0.2,81.4c0,3,1.9,5.9,5.8,8.1l113.6,66c0.5,0.3,1,0.5,1.5,0.8
				c0.2,0.1,0.4,0.1,0.5,0.2c0.3,0.1,0.6,0.3,1,0.4c0,0,0,0,0.1,0c0.7,0.3,1.4,0.5,2.1,0.7c0.1,0,0.1,0,0.2,0.1
				c0.2,0,0.3,0.1,0.5,0.1c0.4,0.1,0.8,0.2,1.2,0.3c0.1,0,0.2,0.1,0.4,0.1c0.1,0,0.3,0,0.4,0.1c0.4,0.1,0.7,0.1,1.1,0.2
				c0.2,0,0.3,0.1,0.5,0.1c0.1,0,0.3,0,0.4,0c0.3,0,0.7,0.1,1,0.1c0.2,0,0.4,0,0.5,0.1c0.1,0,0.2,0,0.4,0c0.3,0,0.7,0,1,0
				c0.2,0,0.4,0,0.6,0c0.1,0,0.2,0,0.4,0c0.4,0,0.7,0,1.1,0c0.2,0,0.4,0,0.6,0c0.1,0,0.2,0,0.3,0c0.5,0,0.9-0.1,1.4-0.1
				c0.2,0,0.4,0,0.5,0c0,0,0.1,0,0.1,0c0.8-0.1,1.5-0.2,2.2-0.3c0,0,0.1,0,0.1,0c0.3,0,0.5-0.1,0.8-0.2c0.3-0.1,0.6-0.1,0.9-0.2
				c0.3-0.1,0.6-0.2,0.9-0.2c0.3-0.1,0.6-0.2,0.9-0.2c0,0,0.1,0,0.1,0c0.1,0,0.2-0.1,0.3-0.1c0.6-0.2,1.2-0.4,1.7-0.6
				c0.2-0.1,0.4-0.2,0.6-0.2c0.7-0.3,1.3-0.6,2-1l222.7-128.6c0.2-0.1,0.5-0.3,0.7-0.4c0.1-0.1,0.2-0.2,0.4-0.3
				c0.2-0.1,0.4-0.3,0.6-0.4c0.2-0.2,0.4-0.3,0.6-0.5c0.2-0.1,0.4-0.3,0.5-0.4c0.1-0.1,0.2-0.1,0.2-0.2c0.1-0.1,0.1-0.1,0.2-0.2
				c0.3-0.3,0.5-0.5,0.8-0.8c0.1-0.1,0.1-0.2,0.2-0.2c0,0,0.1-0.1,0.1-0.2c0.2-0.2,0.3-0.5,0.5-0.7c0.1-0.1,0.1-0.2,0.2-0.3
				c0,0,0-0.1,0-0.1c0.1-0.2,0.2-0.4,0.3-0.6c0.1-0.1,0.1-0.3,0.2-0.4c0,0,0-0.1,0-0.1c0.1-0.2,0.1-0.4,0.2-0.6
				c0-0.1,0.1-0.3,0.1-0.5c0,0,0,0,0-0.1c0-0.2,0-0.4,0.1-0.6c0-0.1,0-0.3,0-0.5c0,0,0-0.1,0-0.1L503.3,250.9L503.3,250.9z"/>
			<g>
				
					<linearGradient id="SVGID_00000148660755867607383170000009431844845728819093_" gradientUnits="userSpaceOnUse" x1="138.6802" y1="251.5295" x2="276.8302" y2="306.2095" gradientTransform="matrix(1 0 0 -1 0 662)">
					<stop  offset="0" style="stop-color:#404041"/>
					<stop  offset="0.26" style="stop-color:#343233"/>
					<stop  offset="0.66" style="stop-color:#272425"/>
					<stop  offset="1" style="stop-color:#231F20"/>
				</linearGradient>
				<path style="fill:url(#SVGID_00000148660755867607383170000009431844845728819093_);" d="M246.4,387.7l-113.6-66
					c-1.4-0.8-2.6-1.8-3.5-2.8c-1.5-1.7-2.3-3.5-2.3-5.4l0,0l0.2,81.4c0,3,1.9,5.9,5.8,8.1l113.6,66L246.4,387.7L246.4,387.7z"/>
				
					<linearGradient id="SVGID_00000042726557393518122710000007165439092908858267_" gradientUnits="userSpaceOnUse" x1="246.4399" y1="300.3" x2="503.5199" y2="300.3" gradientTransform="matrix(1 0 0 -1 0 662)">
					<stop  offset="0" style="stop-color:#231F20"/>
					<stop  offset="0.16" style="stop-color:#302D2F"/>
					<stop  offset="0.47" style="stop-color:#464547"/>
					<stop  offset="0.76" style="stop-color:#535455"/>
					<stop  offset="1" style="stop-color:#58595B"/>
				</linearGradient>
				<path style="fill:url(#SVGID_00000042726557393518122710000007165439092908858267_);" d="M503.3,250.9c0,0.2,0,0.4,0,0.6
					c0,0.2,0,0.4-0.1,0.6c0,0.2-0.1,0.4-0.1,0.5c0,0.2-0.1,0.4-0.2,0.6c-0.1,0.2-0.1,0.3-0.2,0.5c-0.1,0.2-0.2,0.4-0.3,0.6
					c-0.1,0.1-0.2,0.3-0.3,0.4c-0.1,0.2-0.3,0.5-0.5,0.7c-0.1,0.1-0.2,0.3-0.3,0.4c-0.2,0.3-0.5,0.6-0.8,0.8
					c-0.1,0.1-0.3,0.3-0.4,0.4c-0.2,0.1-0.3,0.3-0.5,0.5c-0.2,0.2-0.4,0.3-0.6,0.5c-0.2,0.1-0.4,0.3-0.6,0.4c-0.3,0.2-0.7,0.5-1,0.7
					L274.7,387.7c-0.6,0.4-1.3,0.7-2,1c-0.2,0.1-0.4,0.2-0.6,0.2c-0.6,0.2-1.1,0.5-1.7,0.6c-0.1,0-0.3,0.1-0.5,0.1
					c-0.3,0.1-0.6,0.2-0.9,0.2c-0.3,0.1-0.6,0.2-0.9,0.2c-0.3,0.1-0.6,0.1-0.9,0.2s-0.6,0.1-0.9,0.2c-0.7,0.1-1.5,0.2-2.2,0.3
					c-0.2,0-0.5,0-0.7,0.1c-0.5,0-0.9,0.1-1.4,0.1c-0.3,0-0.6,0-0.9,0c-0.4,0-0.7,0-1.1,0c-0.3,0-0.6,0-0.9,0c-0.3,0-0.7,0-1,0
					c-0.3,0-0.6,0-0.9-0.1c-0.3,0-0.7-0.1-1-0.1c-0.3,0-0.6-0.1-0.9-0.1c-0.4,0-0.7-0.1-1.1-0.2c-0.3,0-0.6-0.1-0.8-0.2
					c-0.4-0.1-0.8-0.2-1.2-0.3c-0.2-0.1-0.5-0.1-0.7-0.2c-0.7-0.2-1.4-0.4-2.1-0.7c-0.4-0.1-0.7-0.3-1-0.4c-0.2-0.1-0.4-0.1-0.5-0.2
					c-0.5-0.2-1-0.5-1.5-0.8l0.2,81.4c0.5,0.3,1,0.5,1.5,0.8c0.2,0.1,0.4,0.1,0.5,0.2c0.3,0.1,0.6,0.3,1,0.4c0,0,0,0,0.1,0
					c0.7,0.3,1.4,0.5,2.1,0.7c0.1,0,0.1,0,0.2,0.1c0.2,0,0.3,0.1,0.5,0.1c0.4,0.1,0.8,0.2,1.2,0.3c0.1,0,0.2,0.1,0.4,0.1
					c0.1,0,0.3,0,0.4,0.1c0.4,0.1,0.7,0.1,1.1,0.2c0.2,0,0.3,0.1,0.5,0.1c0.1,0,0.3,0,0.4,0c0.3,0,0.7,0.1,1,0.1
					c0.2,0,0.4,0,0.5,0.1c0.1,0,0.2,0,0.4,0c0.3,0,0.7,0,1,0c0.2,0,0.4,0,0.6,0c0.1,0,0.2,0,0.4,0c0.4,0,0.7,0,1.1,0
					c0.2,0,0.4,0,0.6,0c0.1,0,0.2,0,0.3,0c0.5,0,0.9-0.1,1.4-0.1c0.2,0,0.4,0,0.5,0c0,0,0.1,0,0.1,0c0.8-0.1,1.5-0.2,2.2-0.3
					c0,0,0.1,0,0.1,0c0.3,0,0.5-0.1,0.8-0.2c0.3-0.1,0.6-0.1,0.9-0.2c0.3-0.1,0.6-0.2,0.9-0.2c0.3-0.1,0.6-0.2,0.9-0.2
					c0,0,0.1,0,0.1,0c0.1,0,0.2-0.1,0.3-0.1c0.6-0.2,1.2-0.4,1.7-0.6c0.2-0.1,0.4-0.2,0.6-0.2c0.7-0.3,1.3-0.6,2-1l222.7-128.6
					c0.2-0.1,0.5-0.3,0.7-0.4c0.1-0.1,0.2-0.2,0.4-0.3c0.2-0.1,0.4-0.3,0.6-0.4c0.2-0.2,0.4-0.3,0.6-0.5c0.2-0.1,0.4-0.3,0.5-0.4
					c0.1-0.1,0.2-0.1,0.2-0.2c0.1-0.1,0.1-0.1,0.2-0.2c0.3-0.3,0.5-0.5,0.8-0.8c0.1-0.1,0.1-0.2,0.2-0.2c0,0,0.1-0.1,0.1-0.2
					c0.2-0.2,0.3-0.5,0.5-0.7c0.1-0.1,0.1-0.2,0.2-0.3c0,0,0-0.1,0-0.1c0.1-0.2,0.2-0.4,0.3-0.6c0.1-0.1,0.1-0.3,0.2-0.4
					c0,0,0-0.1,0-0.1c0.1-0.2,0.1-0.4,0.2-0.6c0-0.1,0.1-0.3,0.1-0.5c0,0,0,0,0-0.1c0-0.2,0-0.4,0.1-0.6c0-0.1,0-0.3,0-0.5
					c0,0,0-0.1,0-0.1L503.3,250.9L503.3,250.9z"/>
			</g>
			<g>
				<path class="st4" d="M503.4,234.4l0,17.4c0,0,0,0.1,0,0.1l0-17.4C503.4,234.5,503.4,234.4,503.4,234.4"/>
				<path class="st5" d="M503.4,234.5l0,17.4c0,0.4,0,0.8-0.1,1.1l0-17.4C503.3,235.3,503.3,234.9,503.4,234.5"/>
				<path class="st6" d="M503.2,235.7l0,17.4c-0.1,0.4-0.2,0.8-0.3,1.1l0-17.4C503.1,236.4,503.2,236,503.2,235.7"/>
				<path class="st7" d="M502.9,236.8l0,17.4c-0.1,0.4-0.3,0.8-0.5,1.1l0-17.4C502.6,237.6,502.8,237.2,502.9,236.8"/>
				<path class="st8" d="M502.4,237.9l0,17.4c-0.2,0.4-0.5,0.8-0.8,1.2l0-17.4C501.9,238.7,502.2,238.3,502.4,237.9"/>
				<path class="st9" d="M501.6,239.1l0,17.4c-0.3,0.5-0.7,0.9-1.2,1.3l0-17.4C500.9,240,501.3,239.5,501.6,239.1"/>
				<path class="st10" d="M500.5,240.4l0,17.4c-0.7,0.6-1.4,1.2-2.3,1.8l0-17.4C499,241.6,499.8,241,500.5,240.4"/>
				<path class="st11" d="M498.1,242.2l0,17.5c-0.2,0.1-0.4,0.3-0.7,0.4l0-17.4C497.7,242.5,497.9,242.4,498.1,242.2"/>
			</g>
			<g>
				<path class="st12" d="M503.4,234.4c0,3-2,6-5.9,8.2L274.8,371.2c-0.6,0.4-1.3,0.7-2,1c-0.2,0.1-0.4,0.2-0.6,0.2
					c-0.6,0.2-1.1,0.5-1.7,0.6c-0.1,0-0.3,0.1-0.5,0.1c-0.3,0.1-0.6,0.2-0.9,0.2s-0.6,0.2-0.9,0.2c-0.3,0.1-0.6,0.1-0.9,0.2
					c-0.3,0.1-0.6,0.1-0.9,0.2c-0.7,0.1-1.5,0.2-2.2,0.3c-0.2,0-0.5,0-0.7,0.1c-0.5,0-0.9,0.1-1.4,0.1c-0.3,0-0.6,0-0.9,0
					c-0.4,0-0.7,0-1.1,0c-0.3,0-0.6,0-0.9,0c-0.3,0-0.7,0-1,0c-0.3,0-0.6,0-0.9-0.1c-0.3,0-0.7-0.1-1-0.1c-0.3,0-0.6-0.1-0.9-0.1
					c-0.4,0-0.7-0.1-1.1-0.2c-0.3,0-0.6-0.1-0.8-0.2c-0.4-0.1-0.8-0.2-1.2-0.3c-0.2-0.1-0.5-0.1-0.7-0.2c-0.7-0.2-1.4-0.4-2.1-0.7
					c-0.4-0.1-0.7-0.3-1-0.4c-0.2-0.1-0.4-0.1-0.5-0.2c-0.5-0.2-1-0.5-1.5-0.8l-113.5-66c-3.9-2.2-5.8-5.2-5.8-8.1l0.1,17.5
					c0,3,1.9,5.9,5.8,8.1l113.5,66c0.5,0.3,1,0.5,1.5,0.8c0.2,0.1,0.4,0.1,0.5,0.2c0.3,0.1,0.6,0.3,1,0.4c0,0,0,0,0.1,0
					c0.7,0.3,1.4,0.5,2.1,0.7c0.1,0,0.1,0,0.2,0.1c0.2,0,0.3,0.1,0.5,0.1c0.4,0.1,0.8,0.2,1.2,0.3c0.1,0,0.2,0.1,0.4,0.1
					c0.1,0,0.3,0,0.4,0.1c0.4,0.1,0.7,0.1,1.1,0.2c0.2,0,0.3,0.1,0.5,0.1c0.1,0,0.3,0,0.4,0c0.3,0,0.7,0.1,1,0.1
					c0.2,0,0.4,0,0.5,0.1c0.1,0,0.2,0,0.4,0c0.3,0,0.7,0,1,0c0.2,0,0.4,0,0.6,0c0.1,0,0.2,0,0.4,0c0.4,0,0.7,0,1.1,0
					c0.2,0,0.4,0,0.6,0c0.1,0,0.2,0,0.3,0c0.5,0,0.9-0.1,1.4-0.1c0.2,0,0.4,0,0.5,0c0,0,0.1,0,0.1,0c0.8-0.1,1.5-0.2,2.2-0.3
					c0,0,0.1,0,0.1,0c0.3,0,0.5-0.1,0.8-0.2c0.3-0.1,0.6-0.1,0.9-0.2c0.3-0.1,0.6-0.2,0.9-0.2s0.6-0.2,0.9-0.2c0,0,0.1,0,0.1,0
					c0.1,0,0.2-0.1,0.3-0.1c0.6-0.2,1.2-0.4,1.7-0.6c0.2-0.1,0.4-0.2,0.6-0.2c0.7-0.3,1.3-0.6,2-1l222.7-128.6
					c3.9-2.3,5.9-5.3,5.9-8.2L503.4,234.4L503.4,234.4z"/>
				
					<linearGradient id="SVGID_00000137127684594420081910000010771716750717511314_" gradientUnits="userSpaceOnUse" x1="250.5394" y1="386.1141" x2="462.2594" y2="419.3241" gradientTransform="matrix(1 0 0 -1 0 662)">
					<stop  offset="0" style="stop-color:#404041"/>
					<stop  offset="0.26" style="stop-color:#343233"/>
					<stop  offset="0.66" style="stop-color:#272425"/>
					<stop  offset="1" style="stop-color:#231F20"/>
				</linearGradient>
				<path style="fill:url(#SVGID_00000137127684594420081910000010771716750717511314_);" d="M355.8,160.3c7.8-4.5,20.5-4.5,28.3,0
					l113.5,66c7.8,4.5,7.7,11.9-0.1,16.4L274.8,371.2c-7.8,4.5-20.5,4.5-28.3,0l-113.5-66c-7.8-4.5-7.7-11.9,0.1-16.4L355.8,160.3
					L355.8,160.3z"/>
			</g>
			<g>
				<path d="M402.6,213.6c0,0,0-0.1,0-0.1l0-5.8c0,0.2,0,0.4,0,0.6c0,0.2,0,0.4-0.1,0.6c0,0.2-0.1,0.4-0.1,0.5
					c0,0.2-0.1,0.4-0.2,0.6c-0.1,0.2-0.1,0.3-0.2,0.5c-0.1,0.2-0.2,0.4-0.3,0.6c-0.1,0.1-0.2,0.3-0.3,0.4c-0.1,0.2-0.3,0.5-0.5,0.7
					c-0.1,0.1-0.2,0.3-0.3,0.4c-0.2,0.3-0.5,0.6-0.8,0.8c-0.1,0.1-0.3,0.3-0.4,0.4c-0.2,0.1-0.3,0.3-0.5,0.4
					c-0.2,0.2-0.4,0.3-0.6,0.5c-0.2,0.1-0.4,0.3-0.6,0.4c-0.3,0.2-0.7,0.4-1,0.7l-147.8,85.3c-0.6,0.4-1.3,0.7-1.9,1
					c-0.2,0.1-0.4,0.2-0.6,0.2c-0.6,0.2-1.1,0.5-1.7,0.6c-0.1,0-0.3,0.1-0.5,0.2c-0.3,0.1-0.6,0.2-0.9,0.2c-0.3,0.1-0.6,0.2-0.9,0.2
					c-0.3,0.1-0.6,0.1-0.9,0.2s-0.6,0.1-0.9,0.2c-0.7,0.1-1.5,0.2-2.2,0.3c-0.2,0-0.4,0-0.7,0.1c-0.5,0-0.9,0.1-1.4,0.1
					c-0.3,0-0.6,0-0.9,0c-0.4,0-0.7,0-1.1,0c-0.3,0-0.6,0-0.9,0c-0.3,0-0.7,0-1,0c-0.3,0-0.6,0-0.9-0.1c-0.3,0-0.7-0.1-1-0.1
					c-0.3,0-0.6-0.1-0.9-0.1c-0.4,0-0.7-0.1-1.1-0.2c-0.3,0-0.6-0.1-0.8-0.2c-0.4-0.1-0.8-0.2-1.2-0.3c-0.2-0.1-0.5-0.1-0.7-0.2
					c-0.7-0.2-1.4-0.4-2.1-0.7c-0.4-0.1-0.7-0.3-1-0.4c-0.2-0.1-0.4-0.1-0.5-0.2c-0.5-0.2-1-0.5-1.5-0.8L171,272.3
					c-3.9-2.2-5.8-5.2-5.8-8.1l0,5.8c0,3,1.9,5.9,5.8,8.1l49.7,28.9c0.5,0.3,1,0.5,1.5,0.8c0.2,0.1,0.4,0.1,0.5,0.2
					c0.3,0.1,0.6,0.3,1,0.4c0,0,0,0,0.1,0c0.7,0.3,1.4,0.5,2.1,0.7c0.1,0,0.1,0,0.2,0.1c0.2,0,0.3,0.1,0.5,0.1
					c0.4,0.1,0.8,0.2,1.2,0.3c0.1,0,0.2,0.1,0.4,0.1c0.1,0,0.3,0,0.4,0.1c0.4,0.1,0.7,0.1,1.1,0.2c0.2,0,0.3,0.1,0.5,0.1
					c0.1,0,0.3,0,0.4,0c0.3,0,0.7,0.1,1,0.1c0.2,0,0.4,0,0.5,0.1c0.1,0,0.3,0,0.4,0c0.3,0,0.7,0,1,0c0.2,0,0.4,0,0.6,0
					c0.1,0,0.2,0,0.4,0c0.4,0,0.7,0,1.1,0c0.2,0,0.4,0,0.6,0c0.1,0,0.2,0,0.3,0c0.5,0,0.9-0.1,1.4-0.1c0.2,0,0.4,0,0.5,0
					c0,0,0.1,0,0.1,0c0.8-0.1,1.5-0.2,2.2-0.3c0,0,0.1,0,0.1,0c0.2,0,0.5-0.1,0.8-0.2c0.3-0.1,0.6-0.1,0.9-0.2s0.6-0.2,0.9-0.2
					c0.3-0.1,0.6-0.2,0.9-0.2c0.1,0,0.1,0,0.1,0c0.1,0,0.2-0.1,0.3-0.1c0.6-0.2,1.2-0.4,1.7-0.6c0.2-0.1,0.4-0.2,0.6-0.2
					c0.7-0.3,1.3-0.6,1.9-1l147.8-85.3c0.2-0.1,0.5-0.3,0.7-0.4c0.1-0.1,0.2-0.2,0.4-0.3c0.2-0.1,0.4-0.3,0.6-0.4
					c0.2-0.2,0.4-0.3,0.6-0.5c0.2-0.1,0.4-0.3,0.5-0.4c0.1-0.1,0.1-0.1,0.2-0.2c0.1-0.1,0.1-0.1,0.2-0.2c0.3-0.3,0.5-0.6,0.8-0.8
					c0.1-0.1,0.1-0.2,0.2-0.2c0-0.1,0.1-0.1,0.1-0.2c0.2-0.2,0.3-0.5,0.5-0.7c0.1-0.1,0.1-0.2,0.2-0.3c0,0,0-0.1,0-0.1
					c0.1-0.2,0.2-0.4,0.3-0.6c0.1-0.1,0.1-0.3,0.2-0.4c0,0,0-0.1,0-0.1c0.1-0.2,0.1-0.4,0.2-0.6c0-0.1,0.1-0.3,0.1-0.4
					c0,0,0-0.1,0-0.1c0-0.2,0-0.4,0.1-0.6C402.6,213.9,402.6,213.7,402.6,213.6L402.6,213.6z"/>
				
					<linearGradient id="SVGID_00000126298028532697882710000000773251249560332462_" gradientUnits="userSpaceOnUse" x1="165.1924" y1="426.125" x2="402.6288" y2="426.125" gradientTransform="matrix(1 0 0 -1 0 662)">
					<stop  offset="0" style="stop-color:#404041"/>
					<stop  offset="0.26" style="stop-color:#343233"/>
					<stop  offset="0.66" style="stop-color:#272425"/>
					<stop  offset="1" style="stop-color:#231F20"/>
				</linearGradient>
				<path style="fill:url(#SVGID_00000126298028532697882710000000773251249560332462_);" d="M318.9,170.6c7.8-4.5,20.5-4.5,28.2,0
					l49.7,28.9c7.7,4.5,7.7,11.9-0.1,16.4L249,301.2c-7.8,4.5-20.5,4.5-28.2,0L171,272.3c-7.8-4.5-7.7-11.9,0.1-16.4L318.9,170.6
					L318.9,170.6z"/>
			</g>
			<g>
				<path class="st15" d="M266.9,358.6c0,0.3,0,0.6-0.1,0.9c0,0,0,0,0,0.1c-0.1,0.3-0.2,0.5-0.4,0.8c0,0,0,0.1-0.1,0.1
					c-0.2,0.2-0.4,0.5-0.7,0.7c-0.1,0.1-0.3,0.2-0.5,0.4c-0.2,0.2-0.5,0.4-0.7,0.5c-0.4,0.2-0.8,0.4-1.2,0.6c-0.1,0-0.2,0.1-0.4,0.1
					c-0.3,0.1-0.6,0.2-0.9,0.3c-0.2,0.1-0.5,0.1-0.8,0.2c-0.4,0.1-0.7,0.1-1.1,0.2c-0.1,0-0.1,0-0.2,0c-0.5,0-1,0.1-1.5,0.1
					c-0.1,0-0.1,0-0.2,0c-0.5,0-1,0-1.4-0.1c-0.1,0-0.1,0-0.2,0c-0.5-0.1-0.9-0.1-1.4-0.2c-0.1,0-0.2,0-0.3-0.1
					c-0.4-0.1-0.9-0.2-1.3-0.4c0,0-0.1,0-0.1,0c-0.5-0.2-0.9-0.4-1.3-0.6c-1.7-1-2.5-2.2-2.5-3.5v1.2c0,1.3,0.8,2.5,2.5,3.5
					c0.4,0.2,0.8,0.4,1.3,0.6c0,0,0,0,0,0c0,0,0.1,0,0.1,0c0.3,0.1,0.6,0.2,0.9,0.3c0.1,0,0.2,0.1,0.4,0.1c0.1,0,0.2,0,0.3,0.1
					s0.2,0,0.3,0.1c0.3,0.1,0.6,0.1,0.8,0.1c0.1,0,0.2,0,0.2,0c0.1,0,0.1,0,0.2,0c0.1,0,0.2,0,0.4,0c0.3,0,0.6,0,0.8,0
					c0.1,0,0.1,0,0.2,0c0.1,0,0.1,0,0.2,0c0.1,0,0.3,0,0.4,0c0.3,0,0.6,0,0.9-0.1c0,0,0,0,0.1,0c0.1,0,0.1,0,0.2,0
					c0.3,0,0.5-0.1,0.8-0.1c0.1,0,0.2-0.1,0.3-0.1c0.3,0,0.5-0.1,0.8-0.2c0.1,0,0.3-0.1,0.5-0.1c0.1,0,0.3-0.1,0.4-0.1
					c0.1,0,0.2-0.1,0.4-0.1c0.4-0.2,0.8-0.4,1.2-0.6c0.1-0.1,0.2-0.1,0.3-0.2c0.2-0.1,0.3-0.2,0.4-0.3c0.2-0.1,0.3-0.2,0.5-0.4
					c0,0,0.1,0,0.1-0.1c0.2-0.2,0.4-0.4,0.5-0.6c0,0,0-0.1,0.1-0.1c0,0,0-0.1,0.1-0.1c0.1-0.1,0.1-0.2,0.2-0.3
					c0.1-0.2,0.2-0.3,0.2-0.5c0,0,0,0,0,0c0,0,0,0,0-0.1c0-0.1,0.1-0.2,0.1-0.4c0-0.2,0-0.3,0-0.5c0,0,0,0,0-0.1L266.9,358.6
					L266.9,358.6z"/>
				<path class="st15" d="M252.3,355.1c3.4-1.9,8.8-1.9,12.1,0c3.3,1.9,3.3,5.1,0,7c-3.4,1.9-8.8,1.9-12.1,0S248.9,357,252.3,355.1
					L252.3,355.1z"/>
			</g>
			<g>
				<path class="st15" d="M247.5,349.2c0,0.2,0,0.5-0.1,0.8c0,0,0,0,0,0.1c-0.1,0.2-0.2,0.5-0.4,0.7c0,0,0,0.1-0.1,0.1
					c-0.1,0.2-0.3,0.4-0.6,0.6c-0.1,0.1-0.2,0.2-0.4,0.3c-0.2,0.1-0.4,0.3-0.6,0.4c-0.4,0.2-0.9,0.5-1.4,0.6
					c-0.2,0.1-0.4,0.1-0.6,0.2c-0.2,0.1-0.4,0.1-0.6,0.1c-0.3,0.1-0.6,0.1-0.9,0.2c-0.1,0-0.1,0-0.2,0c-0.4,0-0.8,0.1-1.2,0.1
					c-0.1,0-0.1,0-0.2,0c-0.4,0-0.8,0-1.2-0.1c-0.1,0-0.1,0-0.2,0c-0.4,0-0.8-0.1-1.1-0.2c-0.1,0-0.1,0-0.2,0
					c-0.4-0.1-0.7-0.2-1.1-0.3c0,0-0.1,0-0.1,0c-0.4-0.1-0.8-0.3-1.1-0.5c-1.4-0.8-2.1-1.8-2.1-2.9v1.2c0,1,0.7,2.1,2.1,2.9
					c0.3,0.2,0.7,0.4,1.1,0.5c0,0,0,0,0,0c0,0,0.1,0,0.1,0c0.2,0.1,0.5,0.2,0.8,0.2c0.1,0,0.2,0,0.3,0.1c0.1,0,0.1,0,0.2,0
					c0.1,0,0.1,0,0.2,0.1c0.2,0,0.5,0.1,0.7,0.1c0.1,0,0.1,0,0.2,0c0.1,0,0.1,0,0.2,0c0.1,0,0.2,0,0.3,0c0.2,0,0.5,0,0.7,0
					c0.1,0,0.1,0,0.2,0s0.1,0,0.2,0c0.1,0,0.2,0,0.4,0c0.3,0,0.5,0,0.8,0c0,0,0,0,0.1,0c0.1,0,0.1,0,0.2,0c0.2,0,0.4,0,0.7-0.1
					c0.1,0,0.2,0,0.3-0.1c0.2,0,0.4-0.1,0.6-0.1c0.1,0,0.3,0,0.4-0.1c0.1,0,0.1,0,0.2-0.1c0.5-0.2,1-0.4,1.4-0.6
					c0.1,0,0.2-0.1,0.2-0.1c0.1-0.1,0.2-0.2,0.4-0.3c0.1-0.1,0.3-0.2,0.4-0.3c0,0,0.1,0,0.1-0.1c0.2-0.1,0.3-0.3,0.4-0.5
					c0,0,0,0,0.1-0.1s0-0.1,0.1-0.1c0.1-0.1,0.1-0.2,0.2-0.2c0.1-0.1,0.1-0.3,0.2-0.4c0,0,0,0,0,0c0,0,0,0,0-0.1
					c0-0.1,0.1-0.2,0.1-0.3c0-0.1,0-0.3,0-0.4c0,0,0,0,0,0L247.5,349.2L247.5,349.2z"/>
				<path class="st15" d="M235.4,346.3c2.8-1.6,7.3-1.6,10,0c2.8,1.6,2.8,4.2,0,5.8c-2.8,1.6-7.3,1.6-10,0S232.6,347.9,235.4,346.3z
					"/>
			</g>
			<polygon class="st16" points="285.3,407.7 281.9,409.6 281.9,394 285.3,392 			"/>
			<path class="st17" d="M331.6,433.3L446.5,367c3.5-2,6.3-6.3,6.3-9.5l-0.1-38.1c0-3.2-2.9-4.2-6.4-2.1l-114.9,66.3
				c-3.5,2-6.3,6.3-6.3,9.5l0.1,38.1C325.3,434.4,328.2,435.4,331.6,433.3"/>
			<g>
				<path class="st17" d="M510.6,403.5c0,0.2,0,0.4-0.1,0.6c0,0.2-0.1,0.4-0.1,0.5c0,0.2-0.1,0.4-0.2,0.6c-0.1,0.2-0.1,0.3-0.2,0.5
					c-0.1,0.2-0.2,0.4-0.3,0.6c-0.1,0.1-0.2,0.3-0.3,0.4c-0.1,0.2-0.3,0.5-0.5,0.7c-0.1,0.1-0.2,0.3-0.3,0.4
					c-0.2,0.3-0.5,0.6-0.8,0.8c-0.1,0.1-0.3,0.3-0.4,0.4c-0.2,0.1-0.3,0.3-0.5,0.4c-0.2,0.2-0.4,0.3-0.6,0.5
					c-0.2,0.1-0.4,0.3-0.6,0.4c-0.3,0.2-0.7,0.5-1,0.7l-84.5,48.8c-0.6,0.4-1.3,0.7-2,1c-0.2,0.1-0.4,0.2-0.6,0.2
					c-0.6,0.2-1.1,0.5-1.7,0.6c-0.1,0-0.3,0.1-0.5,0.1c-0.3,0.1-0.6,0.2-0.9,0.2c-0.3,0.1-0.6,0.2-0.9,0.2c-0.3,0.1-0.6,0.1-0.9,0.2
					s-0.6,0.1-0.9,0.2c-0.7,0.1-1.5,0.2-2.2,0.3c-0.2,0-0.4,0-0.7,0c-0.5,0-0.9,0.1-1.4,0.1c-0.3,0-0.6,0-0.9,0c-0.4,0-0.7,0-1.1,0
					c-0.3,0-0.6,0-0.9,0c-0.3,0-0.7,0-1,0c-0.3,0-0.6,0-0.9-0.1c-0.3,0-0.7-0.1-1-0.1c-0.3,0-0.6-0.1-0.9-0.1
					c-0.4,0-0.7-0.1-1.1-0.2c-0.3,0-0.5-0.1-0.8-0.2c-0.4-0.1-0.8-0.2-1.2-0.3c-0.2-0.1-0.5-0.1-0.7-0.2c-0.7-0.2-1.5-0.4-2.1-0.7
					c-0.4-0.1-0.7-0.3-1-0.4c-0.2-0.1-0.4-0.1-0.5-0.2c-0.5-0.2-1-0.5-1.5-0.8l-66.8-38.8l0,6.5l66.8,38.8c0.5,0.3,1,0.5,1.5,0.8
					c0.2,0.1,0.4,0.1,0.5,0.2c0.3,0.1,0.6,0.3,1,0.4c0,0,0,0,0,0c0.7,0.3,1.4,0.5,2.1,0.7c0.1,0,0.1,0,0.2,0.1
					c0.2,0,0.3,0.1,0.5,0.1c0.4,0.1,0.8,0.2,1.2,0.3c0.1,0,0.2,0.1,0.4,0.1c0.1,0,0.3,0,0.4,0.1c0.4,0.1,0.7,0.1,1.1,0.2
					c0.2,0,0.3,0.1,0.5,0.1c0.1,0,0.3,0,0.4,0c0.3,0,0.7,0.1,1,0.1c0.2,0,0.4,0,0.5,0.1c0.1,0,0.3,0,0.4,0c0.3,0,0.7,0,1,0
					c0.2,0,0.4,0,0.6,0c0.1,0,0.2,0,0.4,0c0.4,0,0.7,0,1.1,0c0.2,0,0.4,0,0.6,0c0.1,0,0.2,0,0.3,0c0.5,0,0.9-0.1,1.4-0.1
					c0.2,0,0.4,0,0.5,0c0,0,0.1,0,0.1,0c0.8-0.1,1.5-0.2,2.2-0.3c0,0,0.1,0,0.1,0c0.3,0,0.5-0.1,0.8-0.2c0.3-0.1,0.6-0.1,0.9-0.2
					c0.3-0.1,0.6-0.2,0.9-0.2c0.3-0.1,0.6-0.2,0.9-0.2c0,0,0.1,0,0.1,0c0.1,0,0.2-0.1,0.3-0.1c0.6-0.2,1.2-0.4,1.7-0.6
					c0.2-0.1,0.4-0.2,0.6-0.2c0.7-0.3,1.3-0.6,2-1l84.5-48.8c0.2-0.1,0.5-0.3,0.7-0.4c0.1-0.1,0.2-0.2,0.4-0.3
					c0.2-0.1,0.4-0.3,0.6-0.4c0.2-0.2,0.4-0.3,0.6-0.5c0.2-0.1,0.4-0.3,0.5-0.5c0.1-0.1,0.1-0.1,0.2-0.2c0.1-0.1,0.1-0.2,0.2-0.2
					c0.3-0.3,0.5-0.5,0.8-0.8c0.1-0.1,0.1-0.2,0.2-0.2c0,0,0.1-0.1,0.1-0.2c0.2-0.2,0.3-0.5,0.5-0.7c0.1-0.1,0.1-0.2,0.2-0.3
					c0,0,0-0.1,0-0.1c0.1-0.2,0.2-0.4,0.3-0.6c0.1-0.1,0.1-0.3,0.2-0.4c0,0,0-0.1,0-0.1c0.1-0.2,0.1-0.4,0.2-0.6
					c0-0.1,0.1-0.3,0.1-0.5c0,0,0,0,0-0.1c0-0.2,0-0.4,0.1-0.6c0-0.1,0-0.3,0-0.4c0,0,0-0.1,0-0.1l0-6.5
					C510.6,403.1,510.6,403.3,510.6,403.5L510.6,403.5z"/>
				<path class="st18" d="M504.9,394.8L408.9,339l-77.4,44.7c-3.5,2-6.3,6.3-6.3,9.5l0.1,28l66.8,38.8c7.7,4.5,20.5,4.5,28.2,0
					l84.5-48.8C512.6,406.7,512.6,399.3,504.9,394.8L504.9,394.8z"/>
			</g>
			<path class="st19" d="M533.2,406.8l-120.5-70l-81.1,46.8c-3.5,2-6.3,6.3-6.3,9.5l0.1,20.8l97.5,56.7L533.2,406.8L533.2,406.8z"/>
			<path class="st20" d="M331.5,383.6c-3.5,2-6.3,6.3-6.3,9.5l0.1,19.5l103.7,55.6l106-66.3l-123.2-64.6L331.5,383.6L331.5,383.6z"
				/>
			<path class="st21" d="M534.6,404.9l-118.5-70.1l-84.6,48.8c-3.5,2-6.3,6.3-6.3,9.5l0,17.1l97.9,58L534.6,404.9L534.6,404.9z"/>
			<path class="st22" d="M533.1,403.5l-116.6-69l-85.1,49.1c-3.5,2-6.3,6.3-6.3,9.5l0,16.5l96.5,57.1L533.1,403.5L533.1,403.5z"/>
			<g>
				
					<linearGradient id="SVGID_00000143606700405866672680000004744015300333279412_" gradientUnits="userSpaceOnUse" x1="403.74" y1="218.98" x2="428.64" y2="218.98" gradientTransform="matrix(1 0 0 -1 0 662)">
					<stop  offset="0" style="stop-color:#B721FF"/>
					<stop  offset="0.13" style="stop-color:#B226FE"/>
					<stop  offset="0.28" style="stop-color:#A634FE"/>
					<stop  offset="0.44" style="stop-color:#924CFE"/>
					<stop  offset="0.62" style="stop-color:#756EFE"/>
					<stop  offset="0.8" style="stop-color:#519AFD"/>
					<stop  offset="0.98" style="stop-color:#25CEFD"/>
					<stop  offset="1" style="stop-color:#21D4FD"/>
				</linearGradient>
				<polyline style="fill:url(#SVGID_00000143606700405866672680000004744015300333279412_);" points="428.6,447 409.3,435.8 
					403.7,439.1 423.1,450.2 428.6,447 				"/>
				
					<linearGradient id="SVGID_00000129893581239544298190000013947914848193710236_" gradientUnits="userSpaceOnUse" x1="408.26" y1="226.085" x2="438.31" y2="226.085" gradientTransform="matrix(1 0 0 -1 0 662)">
					<stop  offset="0" style="stop-color:#B721FF"/>
					<stop  offset="0.13" style="stop-color:#B226FE"/>
					<stop  offset="0.28" style="stop-color:#A634FE"/>
					<stop  offset="0.44" style="stop-color:#924CFE"/>
					<stop  offset="0.62" style="stop-color:#756EFE"/>
					<stop  offset="0.8" style="stop-color:#519AFD"/>
					<stop  offset="0.98" style="stop-color:#25CEFD"/>
					<stop  offset="1" style="stop-color:#21D4FD"/>
				</linearGradient>
				<polyline style="fill:url(#SVGID_00000129893581239544298190000013947914848193710236_);" points="438.3,441.4 413.8,427.2 
					408.3,430.5 432.7,444.6 438.3,441.4 				"/>
				
					<linearGradient id="SVGID_00000165232376279735814860000017692963419171637638_" gradientUnits="userSpaceOnUse" x1="407.09" y1="234.435" x2="447.53" y2="234.435" gradientTransform="matrix(1 0 0 -1 0 662)">
					<stop  offset="0" style="stop-color:#B721FF"/>
					<stop  offset="0.13" style="stop-color:#B226FE"/>
					<stop  offset="0.28" style="stop-color:#A634FE"/>
					<stop  offset="0.44" style="stop-color:#924CFE"/>
					<stop  offset="0.62" style="stop-color:#756EFE"/>
					<stop  offset="0.8" style="stop-color:#519AFD"/>
					<stop  offset="0.98" style="stop-color:#25CEFD"/>
					<stop  offset="1" style="stop-color:#21D4FD"/>
				</linearGradient>
				<polyline style="fill:url(#SVGID_00000165232376279735814860000017692963419171637638_);" points="447.5,436 412.7,415.9 
					407.1,419.1 442,439.2 447.5,436 				"/>
				
					<linearGradient id="SVGID_00000085221489619568780460000004155560944391218856_" gradientUnits="userSpaceOnUse" x1="422.78" y1="237.915" x2="456.73" y2="237.915" gradientTransform="matrix(1 0 0 -1 0 662)">
					<stop  offset="0" style="stop-color:#B721FF"/>
					<stop  offset="0.13" style="stop-color:#B226FE"/>
					<stop  offset="0.28" style="stop-color:#A634FE"/>
					<stop  offset="0.44" style="stop-color:#924CFE"/>
					<stop  offset="0.62" style="stop-color:#756EFE"/>
					<stop  offset="0.8" style="stop-color:#519AFD"/>
					<stop  offset="0.98" style="stop-color:#25CEFD"/>
					<stop  offset="1" style="stop-color:#21D4FD"/>
				</linearGradient>
				<polyline style="fill:url(#SVGID_00000085221489619568780460000004155560944391218856_);" points="456.7,430.7 428.4,414.3 
					422.8,417.5 451.1,433.9 456.7,430.7 				"/>
				
					<linearGradient id="SVGID_00000060714382358415492770000017657268568865307036_" gradientUnits="userSpaceOnUse" x1="429.66" y1="243.94" x2="465.94" y2="243.94" gradientTransform="matrix(1 0 0 -1 0 662)">
					<stop  offset="0" style="stop-color:#B721FF"/>
					<stop  offset="0.13" style="stop-color:#B226FE"/>
					<stop  offset="0.28" style="stop-color:#A634FE"/>
					<stop  offset="0.44" style="stop-color:#924CFE"/>
					<stop  offset="0.62" style="stop-color:#756EFE"/>
					<stop  offset="0.8" style="stop-color:#519AFD"/>
					<stop  offset="0.98" style="stop-color:#25CEFD"/>
					<stop  offset="1" style="stop-color:#21D4FD"/>
				</linearGradient>
				<polyline style="fill:url(#SVGID_00000060714382358415492770000017657268568865307036_);" points="465.9,425.3 435.2,407.6 
					429.7,410.8 460.4,428.5 465.9,425.3 				"/>
				
					<linearGradient id="SVGID_00000085220161945629534780000000982373948598240943_" gradientUnits="userSpaceOnUse" x1="435.58" y1="250.24" x2="475.14" y2="250.24" gradientTransform="matrix(1 0 0 -1 0 662)">
					<stop  offset="0" style="stop-color:#B721FF"/>
					<stop  offset="0.13" style="stop-color:#B226FE"/>
					<stop  offset="0.28" style="stop-color:#A634FE"/>
					<stop  offset="0.44" style="stop-color:#924CFE"/>
					<stop  offset="0.62" style="stop-color:#756EFE"/>
					<stop  offset="0.8" style="stop-color:#519AFD"/>
					<stop  offset="0.98" style="stop-color:#25CEFD"/>
					<stop  offset="1" style="stop-color:#21D4FD"/>
				</linearGradient>
				<polyline style="fill:url(#SVGID_00000085220161945629534780000000982373948598240943_);" points="475.1,420 441.1,400.3 
					435.6,403.6 469.6,423.2 475.1,420 				"/>
				
					<linearGradient id="SVGID_00000127737454929380704910000013046832317925406898_" gradientUnits="userSpaceOnUse" x1="441.82" y1="256.445" x2="484.35" y2="256.445" gradientTransform="matrix(1 0 0 -1 0 662)">
					<stop  offset="0" style="stop-color:#B721FF"/>
					<stop  offset="0.13" style="stop-color:#B226FE"/>
					<stop  offset="0.28" style="stop-color:#A634FE"/>
					<stop  offset="0.44" style="stop-color:#924CFE"/>
					<stop  offset="0.62" style="stop-color:#756EFE"/>
					<stop  offset="0.8" style="stop-color:#519AFD"/>
					<stop  offset="0.98" style="stop-color:#25CEFD"/>
					<stop  offset="1" style="stop-color:#21D4FD"/>
				</linearGradient>
				<polyline style="fill:url(#SVGID_00000127737454929380704910000013046832317925406898_);" points="484.4,414.6 447.4,393.3 
					441.8,396.5 478.8,417.8 484.4,414.6 				"/>
				
					<linearGradient id="SVGID_00000099636482429444072140000002057372561318978441_" gradientUnits="userSpaceOnUse" x1="447.92" y1="262.695" x2="493.56" y2="262.695" gradientTransform="matrix(1 0 0 -1 0 662)">
					<stop  offset="0" style="stop-color:#B721FF"/>
					<stop  offset="0.13" style="stop-color:#B226FE"/>
					<stop  offset="0.28" style="stop-color:#A634FE"/>
					<stop  offset="0.44" style="stop-color:#924CFE"/>
					<stop  offset="0.62" style="stop-color:#756EFE"/>
					<stop  offset="0.8" style="stop-color:#519AFD"/>
					<stop  offset="0.98" style="stop-color:#25CEFD"/>
					<stop  offset="1" style="stop-color:#21D4FD"/>
				</linearGradient>
				<polyline style="fill:url(#SVGID_00000099636482429444072140000002057372561318978441_);" points="493.6,409.3 453.5,386.1 
					447.9,389.4 488,412.5 493.6,409.3 				"/>
				
					<linearGradient id="SVGID_00000175287834225439016590000017631503073970401698_" gradientUnits="userSpaceOnUse" x1="454.62" y1="268.765" x2="502.76" y2="268.765" gradientTransform="matrix(1 0 0 -1 0 662)">
					<stop  offset="0" style="stop-color:#B721FF"/>
					<stop  offset="0.13" style="stop-color:#B226FE"/>
					<stop  offset="0.28" style="stop-color:#A634FE"/>
					<stop  offset="0.44" style="stop-color:#924CFE"/>
					<stop  offset="0.62" style="stop-color:#756EFE"/>
					<stop  offset="0.8" style="stop-color:#519AFD"/>
					<stop  offset="0.98" style="stop-color:#25CEFD"/>
					<stop  offset="1" style="stop-color:#21D4FD"/>
				</linearGradient>
				<polyline style="fill:url(#SVGID_00000175287834225439016590000017631503073970401698_);" points="502.8,403.9 460.2,379.3 
					454.6,382.6 497.2,407.1 502.8,403.9 				"/>
				
					<linearGradient id="SVGID_00000046314640610993108320000011827815994456523665_" gradientUnits="userSpaceOnUse" x1="397.17" y1="252.59" x2="452.08" y2="252.59" gradientTransform="matrix(1 0 0 -1 0 662)">
					<stop  offset="0" style="stop-color:#B721FF"/>
					<stop  offset="0.13" style="stop-color:#B226FE"/>
					<stop  offset="0.28" style="stop-color:#A634FE"/>
					<stop  offset="0.44" style="stop-color:#924CFE"/>
					<stop  offset="0.62" style="stop-color:#756EFE"/>
					<stop  offset="0.8" style="stop-color:#519AFD"/>
					<stop  offset="0.98" style="stop-color:#25CEFD"/>
					<stop  offset="1" style="stop-color:#21D4FD"/>
				</linearGradient>
				<path style="fill:url(#SVGID_00000046314640610993108320000011827815994456523665_);" d="M402.3,425.4c-0.3,0-0.6,0-0.9-0.1
					l-4.2,13.7c0.3,0,0.6,0,0.9,0.1L402.3,425.4 M400.9,413.5c-0.3,0-0.6,0.1-1,0l1.6,8.7c0.3,0,0.6-0.1,1-0.1L400.9,413.5
					 M416,411.7l-13-0.1c0.1,0.2,0.1,0.4,0,0.5l13,0.1C415.9,412.1,415.9,411.9,416,411.7 M425,407c-0.2-0.1-0.5-0.2-0.7-0.3
					c0,0,0,0-0.1,0l-4.3,3.8c0.3,0.1,0.5,0.2,0.8,0.3L425,407 M431.6,400c-0.3,0-0.6-0.1-0.9-0.2l-3.9,4.2c0.3,0,0.6,0.1,0.9,0.2
					L431.6,400 M438.1,393.2c-0.3-0.1-0.6-0.1-0.8-0.3l-3.8,4c0.3,0.1,0.6,0.2,0.8,0.3L438.1,393.2 M444.7,386.4
					c-0.3-0.1-0.6-0.2-0.8-0.3l-4,4c0.3,0.1,0.6,0.2,0.8,0.3L444.7,386.4 M452.1,380.1c-0.2-0.1-0.4-0.2-0.6-0.3c0,0-0.1,0-0.1-0.1
					l-4.4,3.7c0.3,0.1,0.5,0.2,0.8,0.3L452.1,380.1"/>
				
					<linearGradient id="SVGID_00000067916656359752198090000007370511546595346849_" gradientUnits="userSpaceOnUse" x1="399.5075" y1="238.1967" x2="405.1075" y2="238.1967" gradientTransform="matrix(1 0 0 -1 0 662)">
					<stop  offset="0" style="stop-color:#B721FF"/>
					<stop  offset="0.13" style="stop-color:#B226FE"/>
					<stop  offset="0.28" style="stop-color:#A634FE"/>
					<stop  offset="0.44" style="stop-color:#924CFE"/>
					<stop  offset="0.62" style="stop-color:#756EFE"/>
					<stop  offset="0.8" style="stop-color:#519AFD"/>
					<stop  offset="0.98" style="stop-color:#25CEFD"/>
					<stop  offset="1" style="stop-color:#21D4FD"/>
				</linearGradient>
				<path style="fill:url(#SVGID_00000067916656359752198090000007370511546595346849_);" d="M404.3,422.6c-0.5-0.3-1.1-0.4-1.8-0.5
					c-0.3,0-0.6,0-1,0.1c-0.5,0.1-0.9,0.2-1.2,0.4c-1.1,0.6-1.1,1.7,0,2.3c0.3,0.2,0.7,0.3,1,0.4c0.3,0.1,0.6,0.1,0.9,0.1
					c0.7,0,1.4-0.2,2-0.5C405.4,424.3,405.4,423.3,404.3,422.6"/>
				
					<linearGradient id="SVGID_00000085215425574084367820000005190572520585253557_" gradientUnits="userSpaceOnUse" x1="394.36" y1="221.3838" x2="399.9688" y2="221.3838" gradientTransform="matrix(1 0 0 -1 0 662)">
					<stop  offset="0" style="stop-color:#B721FF"/>
					<stop  offset="0.13" style="stop-color:#B226FE"/>
					<stop  offset="0.28" style="stop-color:#A634FE"/>
					<stop  offset="0.44" style="stop-color:#924CFE"/>
					<stop  offset="0.62" style="stop-color:#756EFE"/>
					<stop  offset="0.8" style="stop-color:#519AFD"/>
					<stop  offset="0.98" style="stop-color:#25CEFD"/>
					<stop  offset="1" style="stop-color:#21D4FD"/>
				</linearGradient>
				<path style="fill:url(#SVGID_00000085215425574084367820000005190572520585253557_);" d="M399.1,439.5c-0.3-0.2-0.6-0.3-1-0.4
					c-0.3-0.1-0.6-0.1-0.9-0.1c-0.7,0-1.5,0.2-2,0.5c-1.1,0.6-1.1,1.7,0,2.3c1.1,0.6,2.9,0.6,4,0
					C400.2,441.1,400.2,440.1,399.1,439.5"/>
				
					<linearGradient id="SVGID_00000042018519117017967690000005126890077033726870_" gradientUnits="userSpaceOnUse" x1="415.94" y1="250.0473" x2="421.54" y2="250.0473" gradientTransform="matrix(1 0 0 -1 0 662)">
					<stop  offset="0" style="stop-color:#B721FF"/>
					<stop  offset="0.13" style="stop-color:#B226FE"/>
					<stop  offset="0.28" style="stop-color:#A634FE"/>
					<stop  offset="0.44" style="stop-color:#924CFE"/>
					<stop  offset="0.62" style="stop-color:#756EFE"/>
					<stop  offset="0.8" style="stop-color:#519AFD"/>
					<stop  offset="0.98" style="stop-color:#25CEFD"/>
					<stop  offset="1" style="stop-color:#21D4FD"/>
				</linearGradient>
				<path style="fill:url(#SVGID_00000042018519117017967690000005126890077033726870_);" d="M420.7,410.8
					C420.7,410.8,420.7,410.8,420.7,410.8c-0.3-0.1-0.5-0.2-0.8-0.3c-1-0.3-2.3-0.2-3.1,0.3c-0.4,0.2-0.7,0.6-0.8,0.9
					c0,0.2,0,0.4,0,0.5c0.1,0.3,0.4,0.6,0.8,0.9c1.1,0.6,2.9,0.6,4,0C421.8,412.5,421.8,411.4,420.7,410.8"/>
				
					<linearGradient id="SVGID_00000046308189130975066990000013556861528916049539_" gradientUnits="userSpaceOnUse" x1="397.365" y1="250.1014" x2="402.9675" y2="250.1014" gradientTransform="matrix(1 0 0 -1 0 662)">
					<stop  offset="0" style="stop-color:#B721FF"/>
					<stop  offset="0.13" style="stop-color:#B226FE"/>
					<stop  offset="0.28" style="stop-color:#A634FE"/>
					<stop  offset="0.44" style="stop-color:#924CFE"/>
					<stop  offset="0.62" style="stop-color:#756EFE"/>
					<stop  offset="0.8" style="stop-color:#519AFD"/>
					<stop  offset="0.98" style="stop-color:#25CEFD"/>
					<stop  offset="1" style="stop-color:#21D4FD"/>
				</linearGradient>
				<path style="fill:url(#SVGID_00000046308189130975066990000013556861528916049539_);" d="M402.1,410.8c-1.1-0.6-2.9-0.6-4,0
					c-1.1,0.6-1.1,1.7,0,2.3c0.5,0.3,1.1,0.4,1.8,0.5c0.3,0,0.6,0,1,0c0.5-0.1,0.9-0.2,1.3-0.4c0.4-0.2,0.7-0.6,0.8-0.9
					c0-0.2,0-0.4,0-0.5C402.8,411.3,402.6,411,402.1,410.8"/>
				
					<linearGradient id="SVGID_00000041276256349404952020000017626148715643887793_" gradientUnits="userSpaceOnUse" x1="450.63" y1="283.3492" x2="456.24" y2="283.3492" gradientTransform="matrix(1 0 0 -1 0 662)">
					<stop  offset="0" style="stop-color:#B721FF"/>
					<stop  offset="0.13" style="stop-color:#B226FE"/>
					<stop  offset="0.28" style="stop-color:#A634FE"/>
					<stop  offset="0.44" style="stop-color:#924CFE"/>
					<stop  offset="0.62" style="stop-color:#756EFE"/>
					<stop  offset="0.8" style="stop-color:#519AFD"/>
					<stop  offset="0.98" style="stop-color:#25CEFD"/>
					<stop  offset="1" style="stop-color:#21D4FD"/>
				</linearGradient>
				<path style="fill:url(#SVGID_00000041276256349404952020000017626148715643887793_);" d="M455.4,377.5c-1.1-0.6-2.9-0.6-4,0
					c-1,0.6-1.1,1.6-0.1,2.2c0,0,0.1,0,0.1,0.1c0.2,0.1,0.4,0.2,0.6,0.3c1.1,0.3,2.4,0.2,3.4-0.3
					C456.5,379.2,456.5,378.1,455.4,377.5"/>
				
					<linearGradient id="SVGID_00000075862682955379101810000009386885881368903818_" gradientUnits="userSpaceOnUse" x1="436.1937" y1="270.3543" x2="441.8" y2="270.3543" gradientTransform="matrix(1 0 0 -1 0 662)">
					<stop  offset="0" style="stop-color:#B721FF"/>
					<stop  offset="0.13" style="stop-color:#B226FE"/>
					<stop  offset="0.28" style="stop-color:#A634FE"/>
					<stop  offset="0.44" style="stop-color:#924CFE"/>
					<stop  offset="0.62" style="stop-color:#756EFE"/>
					<stop  offset="0.8" style="stop-color:#519AFD"/>
					<stop  offset="0.98" style="stop-color:#25CEFD"/>
					<stop  offset="1" style="stop-color:#21D4FD"/>
				</linearGradient>
				<path style="fill:url(#SVGID_00000075862682955379101810000009386885881368903818_);" d="M441,390.5c-0.1,0-0.1-0.1-0.2-0.1
					c-0.2-0.1-0.5-0.2-0.8-0.3c-1-0.2-2.1-0.1-2.9,0.4c-1.1,0.6-1.1,1.7,0,2.3c0.1,0,0.1,0.1,0.2,0.1c0.3,0.1,0.5,0.2,0.8,0.3
					c1,0.2,2.1,0.1,2.9-0.4C442.1,392.1,442.1,391.1,441,390.5"/>
				
					<linearGradient id="SVGID_00000127729201552541855370000006873445244710389673_" gradientUnits="userSpaceOnUse" x1="429.475" y1="263.5601" x2="435.0763" y2="263.5601" gradientTransform="matrix(1 0 0 -1 0 662)">
					<stop  offset="0" style="stop-color:#B721FF"/>
					<stop  offset="0.13" style="stop-color:#B226FE"/>
					<stop  offset="0.28" style="stop-color:#A634FE"/>
					<stop  offset="0.44" style="stop-color:#924CFE"/>
					<stop  offset="0.62" style="stop-color:#756EFE"/>
					<stop  offset="0.8" style="stop-color:#519AFD"/>
					<stop  offset="0.98" style="stop-color:#25CEFD"/>
					<stop  offset="1" style="stop-color:#21D4FD"/>
				</linearGradient>
				<path style="fill:url(#SVGID_00000127729201552541855370000006873445244710389673_);" d="M434.3,397.3
					C434.3,397.3,434.2,397.3,434.3,397.3c-0.3-0.1-0.6-0.3-0.8-0.3c-1-0.3-2.3-0.1-3.1,0.3c-1.1,0.6-1.1,1.7,0,2.3
					c0.1,0.1,0.3,0.1,0.5,0.2c0.3,0.1,0.6,0.2,0.9,0.2c0.9,0.1,1.9,0,2.6-0.4C435.4,398.9,435.4,397.9,434.3,397.3"/>
				
					<linearGradient id="SVGID_00000163067275205845569840000015175163489144561833_" gradientUnits="userSpaceOnUse" x1="423.461" y1="256.4439" x2="429.0663" y2="256.4439" gradientTransform="matrix(1 0 0 -1 0 662)">
					<stop  offset="0" style="stop-color:#B721FF"/>
					<stop  offset="0.13" style="stop-color:#B226FE"/>
					<stop  offset="0.28" style="stop-color:#A634FE"/>
					<stop  offset="0.44" style="stop-color:#924CFE"/>
					<stop  offset="0.62" style="stop-color:#756EFE"/>
					<stop  offset="0.8" style="stop-color:#519AFD"/>
					<stop  offset="0.98" style="stop-color:#25CEFD"/>
					<stop  offset="1" style="stop-color:#21D4FD"/>
				</linearGradient>
				<path style="fill:url(#SVGID_00000163067275205845569840000015175163489144561833_);" d="M428.2,404.4c-0.1-0.1-0.3-0.1-0.5-0.2
					c-0.3-0.1-0.6-0.2-0.9-0.2c-0.9-0.1-1.9,0-2.6,0.4c-1.1,0.6-1.1,1.6,0,2.2c0,0,0,0,0.1,0c0.2,0.1,0.5,0.2,0.7,0.3
					c1.1,0.3,2.4,0.2,3.3-0.3C429.3,406.1,429.3,405,428.2,404.4"/>
				
					<linearGradient id="SVGID_00000019637247916558683970000000201091877279773845_" gradientUnits="userSpaceOnUse" x1="442.9187" y1="277.1332" x2="448.5275" y2="277.1332" gradientTransform="matrix(1 0 0 -1 0 662)">
					<stop  offset="0" style="stop-color:#B721FF"/>
					<stop  offset="0.13" style="stop-color:#B226FE"/>
					<stop  offset="0.28" style="stop-color:#A634FE"/>
					<stop  offset="0.44" style="stop-color:#924CFE"/>
					<stop  offset="0.62" style="stop-color:#756EFE"/>
					<stop  offset="0.8" style="stop-color:#519AFD"/>
					<stop  offset="0.98" style="stop-color:#25CEFD"/>
					<stop  offset="1" style="stop-color:#21D4FD"/>
				</linearGradient>
				<path style="fill:url(#SVGID_00000019637247916558683970000000201091877279773845_);" d="M447.7,383.7L447.7,383.7
					c-0.3-0.1-0.5-0.2-0.8-0.3c-1-0.3-2.3-0.2-3.2,0.3c-1.1,0.6-1.1,1.7,0,2.3c0,0,0.1,0.1,0.2,0.1c0.2,0.1,0.5,0.2,0.8,0.3
					c1,0.2,2.2,0.1,3-0.4C448.8,385.4,448.8,384.3,447.7,383.7"/>
			</g>
			
				<linearGradient id="SVGID_00000085253124703475490970000006941904860187264148_" gradientUnits="userSpaceOnUse" x1="374.1774" y1="303.0407" x2="396.0797" y2="265.1068" gradientTransform="matrix(1 0 0 -1 0 662)">
				<stop  offset="0" style="stop-color:#21D4FD"/>
				<stop  offset="2.000000e-02" style="stop-color:#25CEFD"/>
				<stop  offset="0.2" style="stop-color:#519AFD"/>
				<stop  offset="0.38" style="stop-color:#756EFE"/>
				<stop  offset="0.56" style="stop-color:#924CFE"/>
				<stop  offset="0.72" style="stop-color:#A634FE"/>
				<stop  offset="0.87" style="stop-color:#B226FE"/>
				<stop  offset="1" style="stop-color:#B721FF"/>
			</linearGradient>
			<path style="fill:url(#SVGID_00000085253124703475490970000006941904860187264148_);" d="M348.9,383.8l34.9,20.1l5.6-3.2
				l-34.9-20.1L348.9,383.8L348.9,383.8z M350.1,395.1l24.5,14.1l5.6-3.2l-24.5-14.1L350.1,395.1z M345.6,403.7l19.3,11.2l5.6-3.2
				l-19.3-11.2L345.6,403.7z M346.1,389.6c1.1-0.6,1.1-1.7,0-2.3c-0.5-0.3-1.1-0.4-1.8-0.5l-1.6-8.7c0.5-0.1,0.9-0.2,1.3-0.4
				c0.4-0.2,0.7-0.5,0.8-0.9l13,0.1c0.1,0.3,0.4,0.6,0.8,0.9c1.1,0.6,2.9,0.6,4,0s1.1-1.7,0-2.3c0,0,0,0,0,0l4.3-3.8
				c1.1,0.3,2.4,0.2,3.3-0.3c1.1-0.6,1.1-1.7,0-2.3c-0.1-0.1-0.3-0.1-0.5-0.2l3.9-4.2c0.9,0.1,1.9,0,2.6-0.4c1.1-0.6,1.1-1.7,0-2.3
				c0,0,0,0,0,0l3.9-4.1c1,0.2,2.1,0.1,2.9-0.4c1.1-0.6,1.1-1.7,0-2.3c-0.1,0-0.1-0.1-0.2-0.1l2.3-2.3l-2.6,1.5l-0.5,0.5
				c-0.1,0-0.2,0-0.3,0l-3.4,1.9c0.1,0.3,0.4,0.5,0.7,0.8c0.1,0,0.1,0.1,0.2,0.1l-3.8,4c-1-0.3-2.3-0.1-3.1,0.3
				c-1.1,0.6-1.1,1.7,0,2.3c0.1,0.1,0.3,0.1,0.5,0.2l-3.9,4.2c-0.9-0.1-1.9,0-2.6,0.4c-1.1,0.6-1.1,1.6,0,2.2l-4.3,3.8
				c-1-0.3-2.3-0.2-3.1,0.3c-0.4,0.2-0.7,0.6-0.8,0.9l-13-0.1c0-0.1-0.1-0.2-0.1-0.3l-3.6,2c0.2,0,0.5,0.1,0.7,0.1l1.6,8.7
				c-0.5,0.1-0.9,0.2-1.2,0.4c-1.1,0.6-1.1,1.7,0,2.3c0.3,0.2,0.7,0.3,1,0.4l-4.2,13.7c-0.7,0-1.5,0.2-2,0.5c-1.1,0.6-1.1,1.7,0,2.3
				c1.1,0.6,2.9,0.6,4,0c1.1-0.6,1.1-1.7,0-2.3c-0.3-0.2-0.6-0.3-1-0.4l4.2-13.7C344.9,390.1,345.6,390,346.1,389.6L346.1,389.6z
				 M390.4,349.6l-2.6,1.5c0.7,0,1.3-0.2,1.8-0.5C390.1,350.4,390.3,350,390.4,349.6L390.4,349.6z M371.5,375.5l30.7,17.7l5.6-3.2
				l-30.7-17.7L371.5,375.5L371.5,375.5z M389.8,354l40.1,23.1l5.6-3.2l-40.1-23.1L389.8,354L389.8,354z M402.1,344l-5.6,3.2
				l42.6,24.6l5.6-3.2L402.1,344L402.1,344z M364.6,382.2l28.4,16.4l5.6-3.2l-28.4-16.4L364.6,382.2z M377.4,368.2l34,19.6l5.6-3.2
				L383,365L377.4,368.2z M383.7,361.2l37,21.3l5.6-3.2l-37-21.3L383.7,361.2z"/>
			
				<linearGradient id="SVGID_00000154384425105504586520000014108666999326334336_" gradientUnits="userSpaceOnUse" x1="394.5579" y1="315.4546" x2="412.0379" y2="285.1746" gradientTransform="matrix(1 0 0 -1 0 662)">
				<stop  offset="0" style="stop-color:#524944"/>
				<stop  offset="4.000000e-02" style="stop-color:#5E5551"/>
				<stop  offset="0.22" style="stop-color:#8E8885"/>
				<stop  offset="0.4" style="stop-color:#B7B3B1"/>
				<stop  offset="0.57" style="stop-color:#D6D4D3"/>
				<stop  offset="0.73" style="stop-color:#ECEBEB"/>
				<stop  offset="0.88" style="stop-color:#FAFAF9"/>
				<stop  offset="1" style="stop-color:#FFFFFF"/>
			</linearGradient>
			<path style="fill:url(#SVGID_00000154384425105504586520000014108666999326334336_);" d="M533.1,403.5l-116.6-69l-85.1,49.1
				c-3.5,2-6.3,6.3-6.3,9.5l0,16.5l96.5,57.1L533.1,403.5L533.1,403.5z"/>
			<g>
				<path class="st44" d="M283.9,421.6c-0.3,0.6-0.3,1.4,0,1.9c0.3,0.4,0.8,0.3,1.1-0.4c0.3-0.6,0.3-1.5,0-1.9
					C284.6,420.9,284.1,421.1,283.9,421.6L283.9,421.6z"/>
				<path class="st44" d="M280.7,419l0.7,1c1.6-3.1,4.2-4,5.9-2l0.7-1.4C285.8,414.1,282.7,415.2,280.7,419z"/>
				<path class="st44" d="M281.9,420.7L281.9,420.7l0.7,1c0,0,0,0,0-0.1c0.9-1.9,2.4-2.4,3.4-1.2c0,0,0.1,0.1,0.1,0.1l0.7-1.5
					c0,0,0-0.1-0.1-0.1C285.3,417.3,283.2,418,281.9,420.7L281.9,420.7z"/>
			</g>
		</g>
	</g>
</g>
</svg>
