<?xml version="1.0" encoding="utf-8"?>
<!-- Generator: Adobe Illustrator 27.0.0, SVG Export Plug-In . SVG Version: 6.00 Build 0)  -->
<svg version="1.1" id="Слой_1" xmlns="http://www.w3.org/2000/svg" xmlns:xlink="http://www.w3.org/1999/xlink" x="0px" y="0px"
	 viewBox="0 0 447.5 334.2" style="enable-background:new 0 0 447.5 334.2;" xml:space="preserve">
<style type="text/css">
	.st0{fill:#555555;}
	.st1{fill:url(#SVGID_1_);}
	.st2{fill:url(#SVGID_00000161600426595410120240000000701536231478054284_);}
	.st3{fill:url(#SVGID_00000108293563313467470930000013303403896221829528_);}
	.st4{fill:#252526;}
	.st5{fill:#262627;}
	.st6{fill:#282828;}
	.st7{fill:#29292A;}
	.st8{fill:#2A2A2B;}
	.st9{fill:#2C2C2C;}
	.st10{fill:#2D2D2D;}
	.st11{fill:#2E2E2F;}
	.st12{fill:#212122;}
	.st13{fill:url(#SVGID_00000158017039504927141530000013058774054568515997_);}
	.st14{fill:url(#SVGID_00000097470883146799639080000002191395018475512490_);}
	.st15{fill:#21D4FD;}
	.st16{fill:#D7E8F1;}
	.st17{fill:#231F20;}
	.st18{fill:#373738;}
	.st19{fill:#E0DFD7;}
	.st20{fill:#F0EDE2;}
	.st21{fill:none;}
	.st22{fill:#F7F3F1;}
	.st23{fill:url(#SVGID_00000075859042152743512990000009263567536482558112_);}
	.st24{display:none;fill:#21D4FD;}
	.st25{fill:#0091D1;}
</style>
<g>
	<g id="Vectorportal.com">
		<g>
			<g>
				<path class="st0" d="M447.5,256.7l-116.6-69l-85.1,49.1c-3.5,2-6.3,6.3-6.3,9.5v16.5l96.5,57.1L447.5,256.7L447.5,256.7z"/>
				<path class="st0" d="M411.4,254.9l-96.1-55.8L238,243.8c-3.5,2-6.3,6.3-6.3,9.5l0.1,28l66.8,38.8c7.7,4.5,20.4,4.5,28.2,0
					l84.5-48.8C419.1,266.8,419.1,259.4,411.4,254.9L411.4,254.9z"/>
				<path class="st0" d="M269.5,81.5c9.2-5.3,24.2-5.3,33.3,0l133.9,77.8c9.1,5.3,9.1,14-0.1,19.3L174,330.3
					c-9.2,5.3-24.2,5.3-33.3,0L6.8,252.5c-9.1-5.3-9.1-14,0.1-19.3L269.5,81.5L269.5,81.5z"/>
			</g>
			
				<linearGradient id="SVGID_1_" gradientUnits="userSpaceOnUse" x1="23.6" y1="5185.6499" x2="400.1001" y2="5185.6499" gradientTransform="matrix(1 0 0 1 0 -4980.8501)">
				<stop  offset="0" style="stop-color:#231F20"/>
				<stop  offset="0.16" style="stop-color:#302D2F"/>
				<stop  offset="0.47" style="stop-color:#464547"/>
				<stop  offset="0.76" style="stop-color:#535455"/>
				<stop  offset="1" style="stop-color:#58595B"/>
			</linearGradient>
			<path class="st1" d="M399.7,94.1c0,0.2,0,0.4-0.1,0.6c0,0.2,0,0.4-0.1,0.6c0,0.2-0.1,0.4-0.1,0.5c-0.1,0.2-0.1,0.4-0.2,0.6
				s-0.1,0.3-0.2,0.5s-0.2,0.4-0.3,0.6c-0.1,0.1-0.2,0.3-0.3,0.4c-0.1,0.2-0.3,0.5-0.5,0.7c-0.1,0.1-0.2,0.3-0.3,0.4
				c-0.2,0.3-0.5,0.6-0.8,0.8c-0.1,0.1-0.3,0.3-0.4,0.4c-0.2,0.1-0.3,0.3-0.5,0.5s-0.4,0.3-0.6,0.5c-0.2,0.1-0.4,0.3-0.6,0.4
				c-0.3,0.2-0.7,0.5-1,0.7L171.2,230.9c-0.6,0.4-1.3,0.7-2,1c-0.2,0.1-0.4,0.2-0.6,0.2c-0.6,0.2-1.1,0.5-1.7,0.6
				c-0.2,0-0.3,0.1-0.5,0.2c-0.3,0.1-0.6,0.2-0.9,0.2s-0.6,0.2-0.9,0.2s-0.6,0.1-0.9,0.2c-0.3,0.1-0.6,0.1-0.9,0.2
				c-0.7,0.1-1.5,0.2-2.2,0.3c-0.2,0-0.5,0-0.7,0.1c-0.5,0-0.9,0.1-1.4,0.1c-0.3,0-0.6,0-0.9,0c-0.4,0-0.7,0-1.1,0
				c-0.3,0-0.6,0-0.9,0c-0.3,0-0.7,0-1,0s-0.6,0-0.9-0.1c-0.3,0-0.7-0.1-1-0.1s-0.6-0.1-0.9-0.1c-0.4,0-0.7-0.1-1.1-0.2
				c-0.3,0-0.5-0.1-0.8-0.2c-0.4-0.1-0.8-0.2-1.2-0.3c-0.2-0.1-0.5-0.1-0.7-0.2c-0.7-0.2-1.5-0.4-2.1-0.7c-0.3-0.1-0.7-0.3-1-0.4
				c-0.2-0.1-0.4-0.2-0.5-0.2c-0.5-0.2-1-0.5-1.5-0.8l-113.5-66c-1.4-0.8-2.6-1.8-3.5-2.8c-1.5-1.7-2.3-3.5-2.3-5.4l0,0l0.2,81.4
				c0,3,1.9,5.9,5.8,8.1l113.5,66c0.5,0.3,1,0.5,1.5,0.8c0.2,0.1,0.4,0.2,0.5,0.2c0.3,0.1,0.6,0.3,1,0.4l0,0
				c0.7,0.3,1.4,0.5,2.1,0.7c0.1,0,0.1,0,0.2,0.1c0.2,0,0.3,0.1,0.5,0.1c0.4,0.1,0.8,0.2,1.2,0.3c0.1,0,0.2,0.1,0.4,0.1
				c0.1,0,0.3,0,0.4,0.1c0.3,0.1,0.7,0.1,1.1,0.2c0.2,0,0.3,0.1,0.5,0.1c0.1,0,0.3,0,0.4,0c0.3,0,0.7,0.1,1,0.1c0.2,0,0.4,0,0.5,0.1
				c0.1,0,0.2,0,0.4,0c0.3,0,0.7,0,1,0c0.2,0,0.4,0,0.6,0c0.1,0,0.2,0,0.3,0c0.4,0,0.7,0,1.1,0c0.2,0,0.4,0,0.6,0c0.1,0,0.2,0,0.3,0
				c0.5,0,0.9-0.1,1.4-0.1c0.2,0,0.4,0,0.5,0h0.1c0.8-0.1,1.5-0.2,2.2-0.3h0.1c0.3,0,0.5-0.1,0.8-0.2s0.6-0.1,0.9-0.2
				s0.6-0.2,0.9-0.2c0.3-0.1,0.6-0.2,0.9-0.2c0,0,0.1,0,0.2,0c0.1,0,0.2-0.1,0.3-0.1c0.6-0.2,1.2-0.4,1.7-0.6
				c0.2-0.1,0.4-0.2,0.6-0.2c0.7-0.3,1.3-0.6,2-1L394,183.8c0.2-0.1,0.4-0.3,0.7-0.4c0.1-0.1,0.2-0.2,0.4-0.3
				c0.2-0.1,0.4-0.3,0.6-0.4c0.2-0.2,0.4-0.3,0.6-0.5c0.2-0.1,0.3-0.3,0.5-0.4c0.1-0.1,0.2-0.1,0.2-0.2c0.1-0.1,0.1-0.1,0.2-0.2
				c0.3-0.3,0.5-0.5,0.8-0.8c0.1-0.1,0.2-0.2,0.2-0.2s0.1-0.1,0.1-0.2c0.2-0.2,0.3-0.5,0.5-0.7c0.1-0.1,0.2-0.2,0.2-0.3
				c0,0,0-0.1,0.1-0.1c0.1-0.2,0.2-0.4,0.3-0.6c0.1-0.1,0.1-0.3,0.2-0.4V178c0.1-0.2,0.1-0.4,0.2-0.6c0-0.1,0.1-0.3,0.1-0.5
				c0,0,0,0,0-0.1c0-0.2,0.1-0.4,0.1-0.6c0-0.1,0-0.3,0.1-0.5v-0.1L399.7,94.1L399.7,94.1z"/>
			<g>
				
					<linearGradient id="SVGID_00000111177999884354190750000003318715376582850468_" gradientUnits="userSpaceOnUse" x1="35.132" y1="5234.3882" x2="173.282" y2="5179.6982" gradientTransform="matrix(1 0 0 1 0 -4980.8501)">
					<stop  offset="0" style="stop-color:#404041"/>
					<stop  offset="0.26" style="stop-color:#343233"/>
					<stop  offset="0.66" style="stop-color:#272425"/>
					<stop  offset="1" style="stop-color:#231F20"/>
				</linearGradient>
				<path style="fill:url(#SVGID_00000111177999884354190750000003318715376582850468_);" d="M142.9,230.9l-113.5-66
					c-1.4-0.8-2.6-1.8-3.5-2.8c-1.5-1.7-2.3-3.5-2.3-5.4l0,0l0.2,81.4c0,3,1.9,5.9,5.8,8.1l113.5,66L142.9,230.9L142.9,230.9z"/>
				
					<linearGradient id="SVGID_00000097473683152920777810000012703785262487170741_" gradientUnits="userSpaceOnUse" x1="142.9" y1="5185.7002" x2="400.1001" y2="5185.7002" gradientTransform="matrix(1 0 0 1 0 -4980.8501)">
					<stop  offset="0" style="stop-color:#231F20"/>
					<stop  offset="0.16" style="stop-color:#302D2F"/>
					<stop  offset="0.47" style="stop-color:#464547"/>
					<stop  offset="0.76" style="stop-color:#535455"/>
					<stop  offset="1" style="stop-color:#58595B"/>
				</linearGradient>
				<path style="fill:url(#SVGID_00000097473683152920777810000012703785262487170741_);" d="M399.7,94.1c0,0.2,0,0.4-0.1,0.6
					c0,0.2,0,0.4-0.1,0.6c0,0.2-0.1,0.4-0.1,0.5c-0.1,0.2-0.1,0.4-0.2,0.6s-0.1,0.3-0.2,0.5s-0.2,0.4-0.3,0.6
					c-0.1,0.1-0.2,0.3-0.3,0.4c-0.1,0.2-0.3,0.5-0.5,0.7c-0.1,0.1-0.2,0.3-0.3,0.4c-0.2,0.3-0.5,0.6-0.8,0.8
					c-0.1,0.1-0.3,0.3-0.4,0.4c-0.2,0.1-0.3,0.3-0.5,0.5s-0.4,0.3-0.6,0.5c-0.2,0.1-0.4,0.3-0.6,0.4c-0.3,0.2-0.7,0.5-1,0.7
					L171.2,230.9c-0.6,0.4-1.3,0.7-2,1c-0.2,0.1-0.4,0.2-0.6,0.2c-0.6,0.2-1.1,0.5-1.7,0.6c-0.2,0-0.3,0.1-0.5,0.2
					c-0.3,0.1-0.6,0.2-0.9,0.2s-0.6,0.2-0.9,0.2s-0.6,0.1-0.9,0.2c-0.3,0.1-0.6,0.1-0.9,0.2c-0.7,0.1-1.5,0.2-2.2,0.3
					c-0.2,0-0.5,0-0.7,0.1c-0.5,0-0.9,0.1-1.4,0.1c-0.3,0-0.6,0-0.9,0c-0.4,0-0.7,0-1.1,0c-0.3,0-0.6,0-0.9,0c-0.3,0-0.7,0-1,0
					s-0.6,0-0.9-0.1c-0.3,0-0.7-0.1-1-0.1s-0.6-0.1-0.9-0.1c-0.4,0-0.7-0.1-1.1-0.2c-0.3,0-0.5-0.1-0.8-0.2
					c-0.4-0.1-0.8-0.2-1.2-0.3c-0.2-0.1-0.5-0.1-0.7-0.2c-0.7-0.2-1.5-0.4-2.1-0.7c-0.3-0.1-0.7-0.3-1-0.4c-0.2-0.1-0.4-0.2-0.5-0.2
					c-0.5-0.2-1-0.5-1.5-0.8l0.2,81.4c0.5,0.3,1,0.5,1.5,0.8c0.2,0.1,0.4,0.2,0.5,0.2c0.3,0.1,0.6,0.3,1,0.4l0,0
					c0.7,0.3,1.4,0.5,2.1,0.7c0.1,0,0.1,0,0.2,0.1c0.2,0,0.3,0.1,0.5,0.1c0.4,0.1,0.8,0.2,1.2,0.3c0.1,0,0.2,0.1,0.4,0.1
					c0.1,0,0.3,0,0.4,0.1c0.3,0.1,0.7,0.1,1.1,0.2c0.2,0,0.3,0.1,0.5,0.1c0.1,0,0.3,0,0.4,0c0.3,0,0.7,0.1,1,0.1
					c0.2,0,0.4,0,0.5,0.1c0.1,0,0.2,0,0.4,0c0.3,0,0.7,0,1,0c0.2,0,0.4,0,0.6,0c0.1,0,0.2,0,0.3,0c0.4,0,0.7,0,1.1,0
					c0.2,0,0.4,0,0.6,0c0.1,0,0.2,0,0.3,0c0.5,0,0.9-0.1,1.4-0.1c0.2,0,0.4,0,0.5,0h0.1c0.8-0.1,1.5-0.2,2.2-0.3h0.1
					c0.3,0,0.5-0.1,0.8-0.2s0.6-0.1,0.9-0.2s0.6-0.2,0.9-0.2c0.3-0.1,0.6-0.2,0.9-0.2c0,0,0.1,0,0.2,0c0.1,0,0.2-0.1,0.3-0.1
					c0.6-0.2,1.2-0.4,1.7-0.6c0.2-0.1,0.4-0.2,0.6-0.2c0.7-0.3,1.3-0.6,2-1L394,183.9c0.2-0.1,0.4-0.3,0.7-0.4
					c0.1-0.1,0.2-0.2,0.4-0.3c0.2-0.1,0.4-0.3,0.6-0.4c0.2-0.2,0.4-0.3,0.6-0.5c0.2-0.1,0.3-0.3,0.5-0.4c0.1-0.1,0.2-0.1,0.2-0.2
					c0.1-0.1,0.1-0.1,0.2-0.2c0.3-0.3,0.5-0.5,0.8-0.8c0.1-0.1,0.2-0.2,0.2-0.2s0.1-0.1,0.1-0.2c0.2-0.2,0.3-0.5,0.5-0.7
					c0.1-0.1,0.2-0.2,0.2-0.3c0,0,0-0.1,0.1-0.1c0.1-0.2,0.2-0.4,0.3-0.6c0.1-0.1,0.1-0.3,0.2-0.4v-0.1c0.1-0.2,0.1-0.4,0.2-0.6
					c0-0.1,0.1-0.3,0.1-0.5c0,0,0,0,0-0.1c0-0.2,0.1-0.4,0.1-0.6c0-0.1,0-0.3,0.1-0.5v-0.1L399.7,94.1L399.7,94.1z"/>
			</g>
			<g>
				<path class="st4" d="M399.8,77.6l0.1,17.5v0.1L399.8,77.6L399.8,77.6"/>
				<path class="st5" d="M399.8,77.7l0.1,17.5c0,0.4-0.1,0.8-0.1,1.1l-0.1-17.5C399.8,78.4,399.8,78.1,399.8,77.7"/>
				<path class="st6" d="M399.7,78.8l0.1,17.5c-0.1,0.4-0.2,0.8-0.3,1.1l-0.1-17.5C399.5,79.6,399.6,79.2,399.7,78.8"/>
				<path class="st7" d="M399.4,80l0.1,17.5c-0.1,0.4-0.3,0.8-0.5,1.1l-0.1-17.5C399.1,80.7,399.3,80.3,399.4,80"/>
				<path class="st8" d="M398.9,81.1l0.1,17.5c-0.2,0.4-0.5,0.8-0.8,1.2l-0.1-17.5C398.4,81.9,398.7,81.5,398.9,81.1"/>
				<path class="st9" d="M398.1,82.3l0.1,17.5c-0.3,0.5-0.7,0.9-1.2,1.3l-0.1-17.5C397.4,83.2,397.8,82.7,398.1,82.3"/>
				<path class="st10" d="M396.9,83.6l0.1,17.5c-0.7,0.6-1.4,1.2-2.3,1.8l-0.1-17.5C395.5,84.8,396.3,84.2,396.9,83.6"/>
				<path class="st11" d="M394.6,85.4l0.1,17.5c-0.2,0.1-0.4,0.3-0.7,0.4l-0.1-17.5C394.2,85.7,394.4,85.5,394.6,85.4"/>
			</g>
			<g>
				<path class="st12" d="M399.8,77.6c0,3-1.9,6-5.9,8.2L171.3,214.4c-0.6,0.4-1.3,0.7-2,1c-0.2,0.1-0.4,0.2-0.6,0.2
					c-0.6,0.2-1.1,0.5-1.7,0.6c-0.2,0-0.3,0.1-0.5,0.1c-0.3,0.1-0.6,0.2-0.9,0.2s-0.6,0.2-0.9,0.2c-0.3,0.1-0.6,0.1-0.9,0.2
					s-0.6,0.1-0.9,0.2c-0.7,0.1-1.5,0.2-2.2,0.3c-0.2,0-0.5,0-0.7,0.1c-0.5,0-0.9,0.1-1.4,0.1c-0.3,0-0.6,0-0.9,0
					c-0.4,0-0.7,0-1.1,0c-0.3,0-0.6,0-0.9,0c-0.3,0-0.7,0-1,0s-0.6,0-0.9-0.1c-0.3,0-0.7-0.1-1-0.1s-0.6-0.1-0.9-0.1
					c-0.4,0-0.7-0.1-1.1-0.2c-0.3,0-0.5-0.1-0.8-0.2c-0.4-0.1-0.8-0.2-1.2-0.3c-0.2-0.1-0.5-0.1-0.7-0.2c-0.7-0.2-1.5-0.4-2.1-0.7
					c-0.3-0.1-0.7-0.3-1-0.4c-0.2-0.1-0.4-0.1-0.5-0.2c-0.5-0.2-1-0.5-1.5-0.8l-113.5-66c-3.8-2.2-5.8-5.2-5.8-8.1v17.5
					c0,3,1.9,5.9,5.8,8.1l113.5,66c0.5,0.3,1,0.5,1.5,0.8c0.2,0.1,0.4,0.2,0.5,0.2c0.3,0.1,0.6,0.3,1,0.4l0,0
					c0.7,0.3,1.4,0.5,2.1,0.7c0.1,0,0.1,0,0.2,0.1c0.2,0,0.3,0.1,0.5,0.1c0.4,0.1,0.8,0.2,1.2,0.3c0.1,0,0.2,0.1,0.4,0.1
					c0.1,0,0.3,0,0.4,0.1c0.3,0.1,0.7,0.1,1.1,0.2c0.2,0,0.3,0.1,0.5,0.1c0.1,0,0.3,0,0.4,0c0.3,0,0.7,0.1,1,0.1
					c0.2,0,0.4,0,0.5,0.1c0.1,0,0.2,0,0.4,0c0.3,0,0.7,0,1,0c0.2,0,0.4,0,0.6,0c0.1,0,0.2,0,0.3,0c0.4,0,0.7,0,1.1,0
					c0.2,0,0.4,0,0.6,0c0.1,0,0.2,0,0.3,0c0.5,0,0.9-0.1,1.4-0.1c0.2,0,0.4,0,0.5,0h0.1c0.8-0.1,1.5-0.2,2.2-0.3h0.1
					c0.3,0,0.5-0.1,0.8-0.2c0.3-0.1,0.6-0.1,0.9-0.2c0.3-0.1,0.6-0.2,0.9-0.2c0.3-0.1,0.6-0.2,0.9-0.2c0,0,0.1,0,0.2,0
					c0.1,0,0.2-0.1,0.3-0.1c0.6-0.2,1.2-0.4,1.7-0.6c0.2-0.1,0.4-0.2,0.6-0.2c0.7-0.3,1.3-0.6,2-1l222.7-128.6
					c3.9-2.3,5.9-5.3,5.9-8.2L399.8,77.6L399.8,77.6z"/>
				
					<linearGradient id="SVGID_00000054260330400793671750000011104214940921662899_" gradientUnits="userSpaceOnUse" x1="147.0252" y1="5099.9023" x2="358.7452" y2="5066.6924" gradientTransform="matrix(1 0 0 1 0 -4980.8501)">
					<stop  offset="0" style="stop-color:#404041"/>
					<stop  offset="0.26" style="stop-color:#343233"/>
					<stop  offset="0.66" style="stop-color:#272425"/>
					<stop  offset="1" style="stop-color:#231F20"/>
				</linearGradient>
				<path style="fill:url(#SVGID_00000054260330400793671750000011104214940921662899_);" d="M252.2,3.4c7.8-4.5,20.5-4.5,28.3,0
					l113.5,66c7.8,4.5,7.7,11.9-0.1,16.4L171.3,214.4c-7.8,4.5-20.5,4.5-28.3,0l-113.5-66c-7.8-4.5-7.7-11.9,0.1-16.4L252.2,3.4
					L252.2,3.4z"/>
			</g>
			<g>
				<path d="M299.1,56.7L299.1,56.7v-5.9c0,0.2,0,0.4-0.1,0.6c0,0.2,0,0.4-0.1,0.6c0,0.2-0.1,0.4-0.1,0.5c-0.1,0.2-0.1,0.4-0.2,0.6
					s-0.1,0.3-0.2,0.5s-0.2,0.4-0.3,0.6c-0.1,0.1-0.2,0.3-0.3,0.4c-0.1,0.2-0.3,0.5-0.5,0.7c-0.1,0.1-0.2,0.3-0.3,0.4
					c-0.2,0.3-0.5,0.6-0.8,0.8c-0.1,0.1-0.3,0.3-0.4,0.4c-0.2,0.1-0.3,0.3-0.5,0.4c-0.2,0.2-0.4,0.3-0.6,0.5
					c-0.2,0.1-0.4,0.3-0.6,0.4c-0.3,0.2-0.7,0.5-1,0.7l-147.7,85.4c-0.6,0.4-1.3,0.7-2,1c-0.2,0.1-0.4,0.2-0.6,0.2
					c-0.6,0.2-1.1,0.5-1.7,0.6c-0.2,0-0.3,0.1-0.5,0.2c-0.3,0.1-0.6,0.2-0.9,0.2c-0.3,0.1-0.6,0.2-0.9,0.2c-0.3,0.1-0.6,0.1-0.9,0.2
					s-0.6,0.1-0.9,0.2c-0.7,0.1-1.5,0.2-2.2,0.3c-0.2,0-0.4,0-0.7,0.1c-0.5,0-0.9,0.1-1.4,0.1c-0.3,0-0.6,0-0.9,0
					c-0.4,0-0.7,0-1.1,0c-0.3,0-0.6,0-0.9,0c-0.3,0-0.7,0-1,0s-0.6,0-0.9-0.1c-0.3,0-0.7-0.1-1-0.1s-0.6-0.1-0.9-0.1
					s-0.7-0.1-1.1-0.2c-0.3,0-0.5-0.1-0.8-0.2c-0.4-0.1-0.8-0.2-1.2-0.3c-0.2-0.1-0.5-0.1-0.7-0.2c-0.7-0.2-1.5-0.4-2.1-0.7
					c-0.3-0.1-0.7-0.3-1-0.4c-0.2-0.1-0.4-0.1-0.5-0.2c-0.5-0.2-1-0.5-1.5-0.8l-49.7-28.9c-3.8-2.2-5.8-5.2-5.8-8.1v5.8
					c0,3,1.9,5.9,5.8,8.1l49.7,28.9c0.5,0.3,1,0.5,1.5,0.8c0.2,0.1,0.4,0.1,0.5,0.2c0.3,0.1,0.6,0.3,1,0.4l0,0
					c0.7,0.3,1.4,0.5,2.1,0.7c0.1,0,0.1,0,0.2,0.1c0.2,0,0.3,0.1,0.5,0.1c0.4,0.1,0.8,0.2,1.2,0.3c0.1,0,0.2,0.1,0.4,0.1
					c0.1,0,0.3,0,0.4,0.1c0.3,0.1,0.7,0.1,1.1,0.2c0.2,0,0.3,0.1,0.5,0.1c0.1,0,0.3,0,0.4,0c0.3,0,0.7,0.1,1,0.1
					c0.2,0,0.4,0,0.5,0.1c0.1,0,0.3,0,0.4,0c0.3,0,0.7,0,1,0c0.2,0,0.4,0,0.6,0c0.1,0,0.2,0,0.3,0c0.4,0,0.7,0,1.1,0
					c0.2,0,0.4,0,0.6,0c0.1,0,0.2,0,0.3,0c0.5,0,0.9-0.1,1.4-0.1c0.2,0,0.4,0,0.5,0h0.1c0.8-0.1,1.5-0.2,2.2-0.3h0.1
					c0.2,0,0.5-0.1,0.8-0.2s0.6-0.1,0.9-0.2s0.6-0.2,0.9-0.2c0.3-0.1,0.6-0.2,0.9-0.2c0,0,0.1,0,0.2,0c0.1,0,0.2-0.1,0.3-0.1
					c0.6-0.2,1.2-0.4,1.7-0.6c0.2-0.1,0.4-0.2,0.6-0.2c0.7-0.3,1.3-0.6,2-1L293.1,65c0.2-0.1,0.4-0.3,0.7-0.4
					c0.1-0.1,0.2-0.2,0.4-0.3c0.2-0.1,0.4-0.3,0.6-0.4c0.2-0.2,0.4-0.3,0.6-0.5c0.2-0.1,0.3-0.3,0.5-0.4c0.1-0.1,0.2-0.1,0.2-0.2
					c0.1-0.1,0.1-0.1,0.2-0.2c0.3-0.3,0.5-0.5,0.8-0.8c0.1-0.1,0.2-0.2,0.2-0.2s0.1-0.1,0.1-0.2c0.2-0.2,0.3-0.5,0.5-0.7
					c0.1-0.1,0.2-0.2,0.2-0.3c0,0,0-0.1,0.1-0.1c0.1-0.2,0.2-0.4,0.3-0.6c0.1-0.1,0.1-0.3,0.2-0.4v-0.1c0.1-0.2,0.1-0.4,0.2-0.6
					c0-0.1,0.1-0.3,0.1-0.5c0,0,0,0,0-0.1c0-0.2,0.1-0.4,0.1-0.6C299,57,299,56.9,299.1,56.7L299.1,56.7z"/>
				
					<linearGradient id="SVGID_00000058547491116524500120000006865513032045733767_" gradientUnits="userSpaceOnUse" x1="61.6998" y1="5059.8501" x2="298.9626" y2="5059.8501" gradientTransform="matrix(1 0 0 1 0 -4980.8501)">
					<stop  offset="0" style="stop-color:#404041"/>
					<stop  offset="0.26" style="stop-color:#343233"/>
					<stop  offset="0.66" style="stop-color:#272425"/>
					<stop  offset="1" style="stop-color:#231F20"/>
				</linearGradient>
				<path style="fill:url(#SVGID_00000058547491116524500120000006865513032045733767_);" d="M215.3,13.7c7.8-4.5,20.5-4.5,28.2,0
					l49.7,28.9c7.7,4.5,7.7,11.9-0.1,16.4l-147.7,85.3c-7.8,4.5-20.5,4.5-28.2,0l-49.7-28.9c-7.8-4.5-7.7-11.9,0.1-16.4L215.3,13.7
					L215.3,13.7z"/>
			</g>
			<g>
				<path class="st15" d="M163.4,201.8c0,0.3,0,0.6-0.2,0.9c0,0,0,0,0,0.1c-0.1,0.3-0.2,0.5-0.4,0.8c0,0,0,0.1-0.1,0.1
					c-0.2,0.2-0.4,0.5-0.7,0.7c-0.1,0.1-0.3,0.2-0.5,0.4s-0.5,0.4-0.7,0.5c-0.4,0.2-0.8,0.4-1.2,0.6c-0.1,0-0.2,0.1-0.4,0.1
					c-0.3,0.1-0.6,0.2-0.8,0.3s-0.5,0.1-0.8,0.2c-0.4,0.1-0.7,0.1-1.1,0.2c-0.1,0-0.1,0-0.2,0c-0.5,0-1,0.1-1.5,0.1
					c-0.1,0-0.1,0-0.2,0c-0.5,0-1,0-1.4-0.1c-0.1,0-0.1,0-0.2,0c-0.5-0.1-0.9-0.1-1.4-0.2c-0.1,0-0.2,0-0.3-0.1
					c-0.4-0.1-0.9-0.2-1.3-0.4h-0.1c-0.5-0.2-0.9-0.4-1.3-0.6c-1.7-1-2.5-2.2-2.5-3.5v1.2c0,1.3,0.8,2.5,2.5,3.5
					c0.4,0.2,0.8,0.4,1.3,0.6l0,0h0.1c0.3,0.1,0.6,0.2,0.9,0.3c0.1,0,0.2,0.1,0.4,0.1c0.1,0,0.2,0,0.3,0.1s0.2,0,0.3,0.1
					c0.3,0.1,0.6,0.1,0.8,0.1c0.1,0,0.2,0,0.2,0c0.1,0,0.1,0,0.2,0c0.1,0,0.2,0,0.4,0c0.3,0,0.6,0,0.8,0c0.1,0,0.1,0,0.2,0
					c0.1,0,0.1,0,0.2,0c0.2,0,0.3,0,0.4,0c0.3,0,0.6,0,0.9-0.1c0,0,0,0,0.1,0s0.1,0,0.2,0c0.3,0,0.5-0.1,0.8-0.1
					c0.1,0,0.2-0.1,0.3-0.1c0.3,0,0.5-0.1,0.8-0.2c0.2,0,0.3-0.1,0.5-0.1c0.1,0,0.3-0.1,0.4-0.1c0.1,0,0.2-0.1,0.4-0.1
					c0.4-0.2,0.8-0.4,1.2-0.6c0.1-0.1,0.2-0.1,0.3-0.2c0.2-0.1,0.3-0.2,0.4-0.3c0.2-0.1,0.3-0.2,0.5-0.4c0,0,0.1,0,0.1-0.1
					c0.2-0.2,0.4-0.4,0.5-0.6c0,0,0-0.1,0.1-0.1c0,0,0-0.1,0.1-0.1c0.1-0.1,0.1-0.2,0.2-0.3c0.1-0.2,0.2-0.3,0.2-0.5l0,0
					c0,0,0,0,0-0.1s0.1-0.2,0.1-0.4s0-0.3,0-0.5c0,0,0,0,0-0.1L163.4,201.8L163.4,201.8z"/>
				<path class="st15" d="M148.7,198.3c3.3-1.9,8.8-1.9,12.1,0s3.3,5.1,0,7c-3.4,1.9-8.8,1.9-12.1,0
					C145.4,203.4,145.4,200.2,148.7,198.3L148.7,198.3z"/>
			</g>
			<g>
				<path class="st15" d="M143.9,192.4c0,0.2,0,0.5-0.1,0.8c0,0,0,0,0,0.1c-0.1,0.2-0.2,0.5-0.3,0.7c0,0,0,0.1-0.1,0.1
					c-0.2,0.2-0.3,0.4-0.5,0.6c-0.1,0.1-0.2,0.2-0.4,0.3s-0.4,0.3-0.6,0.4c-0.4,0.2-0.9,0.5-1.5,0.6c-0.2,0.1-0.4,0.1-0.5,0.2
					c-0.2,0.1-0.4,0.1-0.6,0.1c-0.3,0.1-0.6,0.1-0.9,0.2c-0.1,0-0.1,0-0.2,0c-0.4,0-0.8,0.1-1.2,0.1c-0.1,0-0.1,0-0.2,0
					c-0.4,0-0.8,0-1.2-0.1c-0.1,0-0.1,0-0.2,0c-0.4,0-0.8-0.1-1.1-0.2c-0.1,0-0.1,0-0.2,0c-0.4-0.1-0.7-0.2-1-0.3H133
					c-0.4-0.1-0.8-0.3-1.1-0.5c-1.4-0.8-2.1-1.8-2.1-2.9v1.2c0,1,0.7,2.1,2.1,2.9c0.3,0.2,0.7,0.4,1.1,0.5l0,0h0.1
					c0.2,0.1,0.5,0.2,0.8,0.2c0.1,0,0.2,0,0.3,0.1c0.1,0,0.1,0,0.2,0c0.1,0,0.2,0,0.2,0.1c0.2,0,0.5,0.1,0.7,0.1c0.1,0,0.1,0,0.2,0
					c0.1,0,0.1,0,0.2,0c0.1,0,0.2,0,0.3,0c0.2,0,0.5,0,0.7,0c0.1,0,0.1,0,0.2,0s0.1,0,0.2,0c0.1,0,0.2,0,0.4,0c0.3,0,0.5,0,0.8,0
					c0,0,0,0,0.1,0c0,0,0.1,0,0.2,0c0.2,0,0.4,0,0.7-0.1c0.1,0,0.2,0,0.3-0.1c0.2,0,0.4-0.1,0.6-0.1c0.1,0,0.3,0,0.4-0.1
					c0.1,0,0.1,0,0.2-0.1c0.5-0.2,1-0.4,1.5-0.6c0.1,0,0.2-0.1,0.2-0.1c0.1-0.1,0.2-0.2,0.4-0.3c0.1-0.1,0.3-0.2,0.4-0.3
					c0,0,0.1,0,0.1-0.1c0.2-0.1,0.3-0.3,0.4-0.5c0,0,0,0,0-0.1c0,0,0-0.1,0.1-0.1c0-0.1,0.1-0.2,0.2-0.2c0.1-0.1,0.1-0.3,0.2-0.4
					l0,0c0,0,0,0,0-0.1s0.1-0.2,0.1-0.3s0-0.3,0-0.4l0,0L143.9,192.4L143.9,192.4z"/>
				<path class="st15" d="M131.9,189.5c2.8-1.6,7.3-1.6,10,0s2.8,4.2,0,5.8s-7.3,1.6-10,0S129.1,191.1,131.9,189.5z"/>
			</g>
			<polygon class="st16" points="181.8,250.8 178.3,252.8 178.3,237.1 181.8,235.2 			"/>
			<path class="st17" d="M228.1,276.5L343,210.2c3.5-2,6.3-6.3,6.3-9.5l-0.1-38.1c0-3.2-2.9-4.2-6.3-2.1L228,226.8
				c-3.5,2-6.3,6.3-6.3,9.5l0.1,38.1C221.7,277.6,224.6,278.5,228.1,276.5"/>
			<g>
				<path class="st17" d="M407.1,246.6c0,0.2,0,0.4-0.1,0.6c0,0.2-0.1,0.3-0.1,0.5c-0.1,0.2-0.1,0.4-0.2,0.6
					c-0.1,0.2-0.1,0.3-0.2,0.5s-0.2,0.4-0.3,0.6c-0.1,0.1-0.2,0.3-0.3,0.4c-0.1,0.2-0.3,0.5-0.5,0.7c-0.1,0.1-0.2,0.3-0.3,0.4
					c-0.2,0.3-0.5,0.6-0.8,0.8c-0.1,0.1-0.3,0.3-0.4,0.4c-0.2,0.2-0.3,0.3-0.5,0.4c-0.2,0.2-0.4,0.3-0.6,0.5
					c-0.2,0.1-0.4,0.3-0.6,0.4c-0.3,0.2-0.7,0.5-1,0.7l-84.5,48.8c-0.6,0.4-1.3,0.7-1.9,1c-0.2,0.1-0.4,0.2-0.6,0.2
					c-0.6,0.2-1.1,0.5-1.7,0.6c-0.2,0-0.3,0.1-0.4,0.2c-0.3,0.1-0.6,0.2-0.9,0.2s-0.6,0.2-0.9,0.2s-0.6,0.1-0.9,0.2
					s-0.6,0.1-0.9,0.2c-0.7,0.1-1.5,0.2-2.2,0.3c-0.2,0-0.4,0-0.7,0c-0.5,0-0.9,0.1-1.4,0.1c-0.3,0-0.6,0-0.9,0c-0.4,0-0.7,0-1.1,0
					c-0.3,0-0.6,0-0.9,0s-0.7,0-1,0s-0.6,0-0.9-0.1c-0.3,0-0.7-0.1-1-0.1s-0.6-0.1-0.9-0.1c-0.4,0-0.7-0.1-1.1-0.2
					c-0.3,0-0.6-0.1-0.8-0.2c-0.4-0.1-0.8-0.2-1.2-0.3c-0.2-0.1-0.5-0.1-0.7-0.2c-0.7-0.2-1.4-0.4-2.1-0.7c-0.3-0.1-0.7-0.3-1-0.4
					c-0.2-0.1-0.4-0.2-0.5-0.2c-0.5-0.2-1-0.5-1.5-0.8L221.8,264v6.5l66.8,38.8c0.5,0.3,1,0.5,1.5,0.8c0.2,0.1,0.4,0.2,0.5,0.2
					c0.3,0.1,0.6,0.3,1,0.4c0,0,0,0,0.1,0c0.7,0.3,1.4,0.5,2.1,0.7c0.1,0,0.1,0,0.2,0.1c0.2,0,0.3,0.1,0.5,0.1
					c0.4,0.1,0.8,0.2,1.2,0.3c0.1,0,0.2,0.1,0.4,0.1c0.1,0,0.3,0,0.4,0.1c0.3,0.1,0.7,0.1,1.1,0.2c0.2,0,0.3,0.1,0.5,0.1
					c0.1,0,0.3,0,0.4,0c0.3,0,0.7,0.1,1,0.1c0.2,0,0.4,0,0.5,0.1c0.1,0,0.3,0,0.4,0c0.3,0,0.7,0,1,0c0.2,0,0.4,0,0.6,0
					c0.1,0,0.2,0,0.3,0c0.4,0,0.7,0,1.1,0c0.2,0,0.4,0,0.6,0c0.1,0,0.2,0,0.3,0c0.5,0,0.9-0.1,1.4-0.1c0.2,0,0.4,0,0.5,0h0.1
					c0.8-0.1,1.5-0.2,2.2-0.3h0.1c0.3,0,0.5-0.1,0.8-0.2s0.6-0.1,0.9-0.2s0.6-0.2,0.9-0.2c0.3-0.1,0.6-0.2,0.9-0.2
					c0.1,0,0.1,0,0.2,0s0.2-0.1,0.3-0.1c0.6-0.2,1.2-0.4,1.7-0.6c0.2-0.1,0.4-0.2,0.6-0.2c0.7-0.3,1.3-0.6,1.9-1l84.5-48.8
					c0.2-0.1,0.4-0.3,0.7-0.4c0.1-0.1,0.2-0.2,0.4-0.3c0.2-0.1,0.4-0.3,0.6-0.4c0.2-0.2,0.4-0.3,0.6-0.5s0.3-0.3,0.5-0.5
					c0.1-0.1,0.2-0.1,0.2-0.2c0.1-0.1,0.1-0.2,0.2-0.2c0.3-0.3,0.5-0.5,0.8-0.8c0.1-0.1,0.2-0.2,0.2-0.2s0.1-0.1,0.1-0.2
					c0.2-0.2,0.3-0.5,0.5-0.7c0.1-0.1,0.2-0.2,0.2-0.3c0,0,0-0.1,0.1-0.1c0.1-0.2,0.2-0.4,0.3-0.6c0.1-0.1,0.1-0.3,0.2-0.4v-0.1
					c0.1-0.2,0.1-0.4,0.2-0.6c0-0.2,0.1-0.3,0.1-0.5c0,0,0,0,0-0.1c0-0.2,0.1-0.4,0.1-0.6c0-0.2,0-0.3,0-0.4v-0.1V246
					C407.1,246.2,407.1,246.4,407.1,246.6L407.1,246.6z"/>
				<path class="st18" d="M401.4,237.9l-96.1-55.8L228,226.8c-3.5,2-6.3,6.3-6.3,9.5l0.1,28l66.8,38.8c7.7,4.5,20.4,4.5,28.2,0
					l84.5-48.8C409.1,249.8,409.1,242.4,401.4,237.9L401.4,237.9z"/>
			</g>
			<path class="st19" d="M429.6,250l-120.5-70L228,226.8c-3.5,2-6.3,6.3-6.3,9.5l0.1,20.8l97.5,56.7L429.6,250L429.6,250z"/>
			<path class="st20" d="M228,226.8c-3.5,2-6.3,6.3-6.3,9.5l0.1,19.5l103.7,55.6l106-66.3l-123.2-64.6L228,226.8L228,226.8z"/>
			<path class="st21" d="M431,248.1L312.5,178l-84.6,48.8c-3.5,2-6.3,6.3-6.3,9.5v17.1l97.9,58L431,248.1L431,248.1z"/>
			<path class="st22" d="M429.6,246.7l-116.6-69l-85.1,49.1c-3.5,2-6.3,6.3-6.3,9.5v16.5l96.5,57.1L429.6,246.7L429.6,246.7z"/>
			
				<linearGradient id="SVGID_00000121970009732092749990000010823602257934813630_" gradientUnits="userSpaceOnUse" x1="290.9481" y1="5170.5938" x2="308.4281" y2="5200.8638" gradientTransform="matrix(1 0 0 1 0 -4980.8501)">
				<stop  offset="0" style="stop-color:#524944"/>
				<stop  offset="4.000000e-02" style="stop-color:#5E5551"/>
				<stop  offset="0.22" style="stop-color:#8E8885"/>
				<stop  offset="0.4" style="stop-color:#B7B3B1"/>
				<stop  offset="0.57" style="stop-color:#D6D4D3"/>
				<stop  offset="0.73" style="stop-color:#ECEBEB"/>
				<stop  offset="0.88" style="stop-color:#FAFAF9"/>
				<stop  offset="1" style="stop-color:#FFFFFF"/>
			</linearGradient>
			<path style="fill:url(#SVGID_00000121970009732092749990000010823602257934813630_);" d="M429.6,246.7l-116.6-69l-85.1,49.1
				c-3.5,2-6.3,6.3-6.3,9.5v16.5l96.5,57.1L429.6,246.7L429.6,246.7z"/>
			<g>
				<polyline class="st15" points="312.1,286.7 292.8,274.1 287.2,277.8 306.5,290.4 312.1,286.7 				"/>
				<polyline class="st15" points="321.8,280.3 297.3,264.4 291.7,268 316.2,284.1 321.8,280.3 				"/>
				<polyline class="st15" points="331,274.4 296.1,251.7 290.6,255.3 325.4,278 331,274.4 				"/>
				<polyline class="st15" points="340.2,268.3 311.8,249.7 306.2,253.5 334.6,272 340.2,268.3 				"/>
				<polyline class="st15" points="349.4,262.3 318.7,242.3 313.1,245.9 343.8,265.9 349.4,262.3 				"/>
				<polyline class="st15" points="358.6,256.2 324.6,234 319.1,237.7 353,259.9 358.6,256.2 				"/>
				<polyline class="st15" points="367.8,250.2 330.9,226 325.3,229.8 362.2,253.8 367.8,250.2 				"/>
				<polyline class="st15" points="377,244.1 337,218 331.4,221.6 371.5,247.8 377,244.1 				"/>
				<polyline class="st15" points="386.2,238.1 343.7,210.3 338.1,213.9 380.7,241.7 386.2,238.1 				"/>
				<path class="st15" d="M285.8,262.4c-0.3,0-0.6,0-0.9-0.1l-4.2,15.5c0.3,0,0.6,0,0.9,0.1L285.8,262.4 M284.4,248.8
					c-0.3,0-0.6,0.1-0.9,0l1.6,9.8c0.3,0,0.6-0.1,0.9-0.1L284.4,248.8 M299.4,246.9l-13-0.1c0.1,0.2,0.1,0.5,0,0.6l13,0.1
					C299.4,247.3,299.4,247,299.4,246.9 M308.4,241.6c-0.2-0.1-0.5-0.2-0.7-0.3c0,0,0,0-0.1,0l-4.3,4.3c0.3,0.1,0.6,0.2,0.8,0.3
					L308.4,241.6 M315.1,233.7c-0.3,0-0.6-0.1-0.9-0.2l-3.9,4.7c0.3,0,0.6,0.1,0.9,0.2L315.1,233.7 M321.6,226
					c-0.3-0.1-0.6-0.2-0.8-0.3l-3.8,4.5c0.3,0.1,0.6,0.2,0.8,0.3L321.6,226 M328.2,218.4c-0.3-0.1-0.6-0.2-0.8-0.3l-4,4.5
					c0.3,0.1,0.6,0.2,0.8,0.3L328.2,218.4 M335.6,211.1c-0.2-0.1-0.4-0.2-0.6-0.3c0,0-0.1,0-0.1-0.1l-4.4,4.2
					c0.3,0.1,0.6,0.2,0.8,0.3L335.6,211.1"/>
				<path class="st15" d="M287.8,259.2c-0.5-0.3-1.1-0.5-1.8-0.6c-0.3,0-0.6,0-0.9,0.1c-0.4,0.1-0.9,0.2-1.2,0.5
					c-1.1,0.7-1.1,1.9,0,2.6c0.3,0.2,0.7,0.3,1,0.5c0.3,0.1,0.6,0.1,0.9,0.1c0.7,0,1.4-0.2,2-0.6C288.9,261.2,288.9,260,287.8,259.2
					"/>
				<path class="st15" d="M282.6,278.2c-0.3-0.2-0.7-0.3-1-0.5c-0.3-0.1-0.6-0.1-0.9-0.1c-0.7,0-1.4,0.2-2,0.6
					c-1.1,0.7-1.1,1.9,0,2.6s2.9,0.7,4,0C283.7,280.1,283.7,279,282.6,278.2"/>
				<path class="st15" d="M304.2,245.9L304.2,245.9c-0.3-0.1-0.5-0.2-0.8-0.3c-1-0.3-2.3-0.2-3.2,0.3c-0.4,0.2-0.7,0.7-0.8,1
					c-0.1,0.2-0.1,0.5,0,0.6c0.1,0.3,0.4,0.7,0.8,1c1.1,0.7,2.9,0.7,4,0C305.3,247.7,305.3,246.6,304.2,245.9"/>
				<path class="st15" d="M285.6,245.8c-1.1-0.7-2.9-0.7-4,0s-1.1,1.9,0,2.6c0.5,0.3,1.1,0.5,1.8,0.6c0.3,0,0.6,0,0.9,0
					c0.5-0.1,0.9-0.2,1.3-0.5c0.4-0.2,0.7-0.7,0.8-1c0.1-0.2,0.1-0.5,0-0.6C286.3,246.5,286,246.1,285.6,245.8"/>
				<path class="st15" d="M338.9,208.3c-1.1-0.7-2.9-0.7-4,0s-1.1,1.8-0.1,2.5c0,0,0.1,0,0.1,0.1c0.2,0.1,0.4,0.2,0.6,0.3
					c1.1,0.3,2.4,0.2,3.3-0.3C340,210.2,340,209,338.9,208.3"/>
				<path class="st15" d="M324.4,223c-0.1,0-0.1-0.1-0.2-0.1c-0.2-0.1-0.5-0.2-0.8-0.3c-1-0.2-2.1-0.1-2.9,0.5
					c-1.1,0.7-1.1,1.9,0,2.6c0.1,0,0.2,0.1,0.2,0.1c0.3,0.1,0.5,0.2,0.8,0.3c1,0.2,2.1,0.1,2.9-0.5
					C325.6,224.8,325.5,223.7,324.4,223"/>
				<path class="st15" d="M317.7,230.7C317.7,230.7,317.7,230.5,317.7,230.7c-0.3-0.2-0.6-0.3-0.8-0.3c-1-0.3-2.3-0.2-3.1,0.3
					c-1.1,0.7-1.1,1.9,0,2.6c0.1,0.1,0.3,0.2,0.4,0.2c0.3,0.1,0.6,0.2,0.9,0.2c0.9,0.1,1.9,0,2.6-0.5
					C318.8,232.5,318.8,231.3,317.7,230.7"/>
				<path class="st15" d="M311.7,238.7c-0.1-0.1-0.3-0.2-0.5-0.2c-0.3-0.1-0.6-0.2-0.9-0.2c-0.9-0.1-1.9,0-2.6,0.5
					c-1.1,0.7-1.1,1.8-0.1,2.5c0,0,0,0,0.1,0c0.2,0.1,0.4,0.2,0.7,0.3c1.1,0.3,2.4,0.2,3.3-0.3C312.8,240.5,312.8,239.4,311.7,238.7
					"/>
				<path class="st15" d="M331.2,215.3L331.2,215.3c-0.3-0.2-0.5-0.2-0.8-0.3c-1-0.3-2.3-0.2-3.2,0.3c-1.1,0.7-1.1,1.9,0,2.6
					c0.1,0,0.1,0.1,0.2,0.1c0.2,0.1,0.5,0.2,0.8,0.3c1,0.2,2.2,0.1,3-0.5C332.3,217.2,332.3,216,331.2,215.3"/>
			</g>
			<path class="st24" d="M245.4,227l34.9,20.1l5.6-3.2L251,223.8L245.4,227L245.4,227z M246.6,238.3l24.5,14.1l5.6-3.2l-24.5-14.1
				L246.6,238.3z M242,246.9l19.3,11.2l5.6-3.2l-19.3-11.2L242,246.9L242,246.9z M242.6,232.8c1.1-0.6,1.1-1.7,0-2.3
				c-0.5-0.3-1.1-0.4-1.8-0.5l-1.6-8.7c0.5-0.1,0.9-0.2,1.3-0.4c0.4-0.2,0.7-0.5,0.8-0.9l13,0.1c0.1,0.3,0.4,0.6,0.8,0.9
				c1.1,0.6,2.9,0.6,4,0s1.1-1.7,0-2.3l0,0l4.3-3.8c1.1,0.3,2.4,0.2,3.3-0.3c1.1-0.6,1.1-1.7,0-2.3c-0.1-0.1-0.3-0.1-0.5-0.2
				l3.9-4.2c0.9,0.1,1.9,0,2.6-0.4c1.1-0.6,1.1-1.7,0-2.3l0,0l3.9-4.1c1,0.2,2.1,0.1,2.9-0.4c1.1-0.6,1.1-1.7,0-2.3
				c-0.1,0-0.1-0.1-0.2-0.1l2.3-2.3l-2.6,1.5l-0.5,0.5c-0.1,0-0.2,0-0.3,0l-3.3,1.9c0.1,0.3,0.4,0.5,0.7,0.8c0.1,0,0.2,0.1,0.2,0.1
				l-3.8,4c-1-0.3-2.3-0.1-3.1,0.3c-1.1,0.6-1.1,1.7,0,2.3c0.1,0.1,0.3,0.1,0.4,0.2l-3.9,4.2c-0.9-0.1-1.9,0-2.6,0.4
				c-1.1,0.6-1.1,1.6-0.1,2.2l-4.3,3.8c-1-0.3-2.3-0.2-3.2,0.3c-0.4,0.2-0.7,0.6-0.8,0.9l-13-0.1c0-0.1-0.1-0.2-0.2-0.3l-3.6,2
				c0.2,0,0.5,0.1,0.7,0.1l1.6,8.7c-0.5,0.1-0.9,0.2-1.2,0.4c-1.1,0.6-1.1,1.7,0,2.3c0.3,0.2,0.7,0.3,1,0.4l-4.2,13.7
				c-0.7,0-1.5,0.2-2,0.5c-1.1,0.6-1.1,1.7,0,2.3s2.9,0.6,4,0s1.1-1.7,0-2.3c-0.3-0.2-0.7-0.3-1-0.4l4.2-13.7
				C241.3,233.3,242.1,233.1,242.6,232.8L242.6,232.8z M286.8,192.8l-2.6,1.5c0.7,0,1.3-0.2,1.8-0.5
				C286.5,193.6,286.8,193.2,286.8,192.8L286.8,192.8z M268,218.7l30.7,17.7l5.6-3.2l-30.7-17.7L268,218.7L268,218.7z M286.2,197.2
				l40.1,23.1l5.6-3.2L291.8,194L286.2,197.2L286.2,197.2z M298.5,187.2l-5.6,3.2l42.6,24.6l5.6-3.2L298.5,187.2L298.5,187.2z
				 M261.1,225.4l28.4,16.4l5.6-3.2l-28.4-16.4L261.1,225.4z M273.9,211.4l34,19.6l5.6-3.2l-34-19.6L273.9,211.4L273.9,211.4z
				 M280.2,204.4l37,21.3l5.6-3.2l-37-21.3L280.2,204.4L280.2,204.4z"/>
			<g>
				<path class="st25" d="M180.3,264.8c-0.3,0.6-0.3,1.4,0,1.9c0.3,0.4,0.8,0.3,1.1-0.4c0.3-0.6,0.3-1.5,0-1.9
					C181.1,264.1,180.6,264.2,180.3,264.8L180.3,264.8z"/>
				<path class="st25" d="M177.2,262.1l0.7,1c1.7-3.1,4.2-4,5.9-2l0.7-1.4C182.3,257.3,179.2,258.4,177.2,262.1L177.2,262.1z"/>
				<path class="st25" d="M178.4,263.8L178.4,263.8l0.7,1c0,0,0,0,0-0.1c0.9-1.9,2.4-2.4,3.3-1.2c0,0,0.1,0.1,0.1,0.2l0.7-1.5
					c0,0,0-0.1-0.1-0.1C181.8,260.4,179.7,261.2,178.4,263.8L178.4,263.8z"/>
			</g>
		</g>
	</g>
</g>
</svg>
