<?xml version="1.0" encoding="utf-8"?>
<!-- Generator: Adobe Illustrator 27.0.0, SVG Export Plug-In . SVG Version: 6.00 Build 0)  -->
<svg version="1.1" id="Слой_1" xmlns="http://www.w3.org/2000/svg" xmlns:xlink="http://www.w3.org/1999/xlink" x="0px" y="0px"
	 viewBox="0 0 1439.7 718.5" style="enable-background:new 0 0 1439.7 718.5;" xml:space="preserve">
<style type="text/css">
	.st0{fill:#E6E7E8;}
	.st1{fill:url(#SVGID_1_);}
	.st2{fill:url(#SVGID_00000034812163024311081640000012349923170223465869_);}
	.st3{fill:url(#SVGID_00000013188678433409003840000017362858021698929055_);}
	.st4{fill:#252526;}
	.st5{fill:#262627;}
	.st6{fill:#282828;}
	.st7{fill:#29292A;}
	.st8{fill:#2A2A2B;}
	.st9{fill:#2C2C2C;}
	.st10{fill:#2D2D2D;}
	.st11{fill:#2E2E2F;}
	.st12{fill:#212122;}
	.st13{fill:url(#SVGID_00000073692965338370162870000002115050511892430506_);}
	.st14{fill:url(#SVGID_00000055672719570985452430000016874966105863542200_);}
	.st15{fill:#21D4FD;}
	.st16{fill:#D7E8F1;}
	.st17{fill:#231F20;}
	.st18{fill:#373738;}
	.st19{fill:#E0DFD7;}
	.st20{fill:#F0EDE2;}
	.st21{fill:none;}
	.st22{fill:#F7F3F1;}
	.st23{fill:url(#SVGID_00000067922264572807974430000001140456995157723043_);}
	.st24{display:none;fill:#21D4FD;}
	.st25{fill:#0091D1;}
</style>
<g>
	<g id="Vectorportal.com">
		<g>
			<g>
				<path class="st0" d="M1223.1,545.1l-116.6-69l-85.1,49.1c-3.5,2-6.3,6.3-6.3,9.5v16.5l96.5,57.1L1223.1,545.1L1223.1,545.1z"/>
				<path class="st0" d="M1187,543.3l-96.1-55.8l-77.3,44.7c-3.5,2-6.3,6.3-6.3,9.5l0.1,28l66.8,38.8c7.7,4.5,20.4,4.5,28.2,0
					l84.5-48.8C1194.7,555.2,1194.7,547.8,1187,543.3L1187,543.3z"/>
				<path class="st0" d="M1045.1,369.9c9.2-5.3,24.2-5.3,33.3,0l133.9,77.8c9.1,5.3,9.1,14-0.1,19.3L949.6,618.7
					c-9.2,5.3-24.2,5.3-33.3,0l-133.9-77.8c-9.1-5.3-9.1-14,0.1-19.3L1045.1,369.9L1045.1,369.9z"/>
			</g>
			
				<linearGradient id="SVGID_1_" gradientUnits="userSpaceOnUse" x1="799.1998" y1="4773.1997" x2="1175.6995" y2="4773.1997" gradientTransform="matrix(1 0 0 1 0 -4280)">
				<stop  offset="0" style="stop-color:#231F20"/>
				<stop  offset="0.16" style="stop-color:#302D2F"/>
				<stop  offset="0.47" style="stop-color:#464547"/>
				<stop  offset="0.76" style="stop-color:#535455"/>
				<stop  offset="1" style="stop-color:#58595B"/>
			</linearGradient>
			<path class="st1" d="M1175.3,382.5c0,0.2,0,0.4-0.1,0.6c0,0.2,0,0.4-0.1,0.6c0,0.2-0.1,0.4-0.1,0.5c-0.1,0.2-0.1,0.4-0.2,0.6
				s-0.1,0.3-0.2,0.5s-0.2,0.4-0.3,0.6c-0.1,0.1-0.2,0.3-0.3,0.4c-0.1,0.2-0.3,0.5-0.5,0.7c-0.1,0.1-0.2,0.3-0.3,0.4
				c-0.2,0.3-0.5,0.6-0.8,0.8c-0.1,0.1-0.3,0.3-0.4,0.4c-0.2,0.1-0.3,0.3-0.5,0.5s-0.4,0.3-0.6,0.5c-0.2,0.1-0.4,0.3-0.6,0.4
				c-0.3,0.2-0.7,0.5-1,0.7L946.8,519.3c-0.6,0.4-1.3,0.7-2,1c-0.2,0.1-0.4,0.2-0.6,0.2c-0.6,0.2-1.1,0.5-1.7,0.6
				c-0.2,0-0.3,0.1-0.5,0.2c-0.3,0.1-0.6,0.2-0.9,0.2s-0.6,0.2-0.9,0.2s-0.6,0.1-0.9,0.2c-0.3,0.1-0.6,0.1-0.9,0.2
				c-0.7,0.1-1.5,0.2-2.2,0.3c-0.2,0-0.5,0-0.7,0.1c-0.5,0-0.9,0.1-1.4,0.1c-0.3,0-0.6,0-0.9,0c-0.4,0-0.7,0-1.1,0
				c-0.3,0-0.6,0-0.9,0c-0.3,0-0.7,0-1,0s-0.6,0-0.9-0.1c-0.3,0-0.7-0.1-1-0.1s-0.6-0.1-0.9-0.1c-0.4,0-0.7-0.1-1.1-0.2
				c-0.3,0-0.5-0.1-0.8-0.2c-0.4-0.1-0.8-0.2-1.2-0.3c-0.2-0.1-0.5-0.1-0.7-0.2c-0.7-0.2-1.5-0.4-2.1-0.7c-0.3-0.1-0.7-0.3-1-0.4
				c-0.2-0.1-0.4-0.2-0.5-0.2c-0.5-0.2-1-0.5-1.5-0.8l-113.5-66c-1.4-0.8-2.6-1.8-3.5-2.8c-1.5-1.7-2.3-3.5-2.3-5.4l0,0l0.2,81.4
				c0,3,1.9,5.9,5.8,8.1l113.5,66c0.5,0.3,1,0.5,1.5,0.8c0.2,0.1,0.4,0.2,0.5,0.2c0.3,0.1,0.6,0.3,1,0.4l0,0
				c0.7,0.3,1.4,0.5,2.1,0.7c0.1,0,0.1,0,0.2,0.1c0.2,0,0.3,0.1,0.5,0.1c0.4,0.1,0.8,0.2,1.2,0.3c0.1,0,0.2,0.1,0.4,0.1
				c0.1,0,0.3,0,0.4,0.1c0.3,0.1,0.7,0.1,1.1,0.2c0.2,0,0.3,0.1,0.5,0.1c0.1,0,0.3,0,0.4,0c0.3,0,0.7,0.1,1,0.1c0.2,0,0.4,0,0.5,0.1
				c0.1,0,0.2,0,0.4,0c0.3,0,0.7,0,1,0c0.2,0,0.4,0,0.6,0c0.1,0,0.2,0,0.3,0c0.4,0,0.7,0,1.1,0c0.2,0,0.4,0,0.6,0c0.1,0,0.2,0,0.3,0
				c0.5,0,0.9-0.1,1.4-0.1c0.2,0,0.4,0,0.5,0h0.1c0.8-0.1,1.5-0.2,2.2-0.3h0.1c0.3,0,0.5-0.1,0.8-0.2c0.3-0.1,0.6-0.1,0.9-0.2
				s0.6-0.2,0.9-0.2c0.3-0.1,0.6-0.2,0.9-0.2c0,0,0.1,0,0.2,0c0.1,0,0.2-0.1,0.3-0.1c0.6-0.2,1.2-0.4,1.7-0.6
				c0.2-0.1,0.4-0.2,0.6-0.2c0.7-0.3,1.3-0.6,2-1l222.7-128.6c0.2-0.1,0.4-0.3,0.7-0.4c0.1-0.1,0.2-0.2,0.4-0.3
				c0.2-0.1,0.4-0.3,0.6-0.4c0.2-0.2,0.4-0.3,0.6-0.5c0.2-0.1,0.3-0.3,0.5-0.4c0.1-0.1,0.2-0.1,0.2-0.2c0.1-0.1,0.1-0.1,0.2-0.2
				c0.3-0.3,0.5-0.5,0.8-0.8c0.1-0.1,0.2-0.2,0.2-0.2s0.1-0.1,0.1-0.2c0.2-0.2,0.3-0.5,0.5-0.7c0.1-0.1,0.2-0.2,0.2-0.3
				c0,0,0-0.1,0.1-0.1c0.1-0.2,0.2-0.4,0.3-0.6c0.1-0.1,0.1-0.3,0.2-0.4v-0.1c0.1-0.2,0.1-0.4,0.2-0.6c0-0.1,0.1-0.3,0.1-0.5
				c0,0,0,0,0-0.1c0-0.2,0.1-0.4,0.1-0.6c0-0.1,0-0.3,0.1-0.5V464L1175.3,382.5L1175.3,382.5z"/>
			<g>
				
					<linearGradient id="SVGID_00000153704218808426266040000007555367367765830816_" gradientUnits="userSpaceOnUse" x1="810.7127" y1="4821.9458" x2="948.8627" y2="4767.2559" gradientTransform="matrix(1 0 0 1 0 -4280)">
					<stop  offset="0" style="stop-color:#404041"/>
					<stop  offset="0.26" style="stop-color:#343233"/>
					<stop  offset="0.66" style="stop-color:#272425"/>
					<stop  offset="1" style="stop-color:#231F20"/>
				</linearGradient>
				<path style="fill:url(#SVGID_00000153704218808426266040000007555367367765830816_);" d="M918.5,519.3l-113.5-66
					c-1.4-0.8-2.6-1.8-3.5-2.8c-1.5-1.7-2.3-3.5-2.3-5.4l0,0l0.2,81.4c0,3,1.9,5.9,5.8,8.1l113.5,66L918.5,519.3L918.5,519.3z"/>
				
					<linearGradient id="SVGID_00000034787365336462916250000014800275873992628358_" gradientUnits="userSpaceOnUse" x1="918.4998" y1="4773.25" x2="1175.6995" y2="4773.25" gradientTransform="matrix(1 0 0 1 0 -4280)">
					<stop  offset="0" style="stop-color:#231F20"/>
					<stop  offset="0.16" style="stop-color:#302D2F"/>
					<stop  offset="0.47" style="stop-color:#464547"/>
					<stop  offset="0.76" style="stop-color:#535455"/>
					<stop  offset="1" style="stop-color:#58595B"/>
				</linearGradient>
				<path style="fill:url(#SVGID_00000034787365336462916250000014800275873992628358_);" d="M1175.3,382.5c0,0.2,0,0.4-0.1,0.6
					c0,0.2,0,0.4-0.1,0.6c0,0.2-0.1,0.4-0.1,0.5c-0.1,0.2-0.1,0.4-0.2,0.6s-0.1,0.3-0.2,0.5s-0.2,0.4-0.3,0.6
					c-0.1,0.1-0.2,0.3-0.3,0.4c-0.1,0.2-0.3,0.5-0.5,0.7c-0.1,0.1-0.2,0.3-0.3,0.4c-0.2,0.3-0.5,0.6-0.8,0.8
					c-0.1,0.1-0.3,0.3-0.4,0.4c-0.2,0.1-0.3,0.3-0.5,0.5s-0.4,0.3-0.6,0.5c-0.2,0.1-0.4,0.3-0.6,0.4c-0.3,0.2-0.7,0.5-1,0.7
					L946.8,519.3c-0.6,0.4-1.3,0.7-2,1c-0.2,0.1-0.4,0.2-0.6,0.2c-0.6,0.2-1.1,0.5-1.7,0.6c-0.2,0-0.3,0.1-0.5,0.2
					c-0.3,0.1-0.6,0.2-0.9,0.2s-0.6,0.2-0.9,0.2s-0.6,0.1-0.9,0.2c-0.3,0.1-0.6,0.1-0.9,0.2c-0.7,0.1-1.5,0.2-2.2,0.3
					c-0.2,0-0.5,0-0.7,0.1c-0.5,0-0.9,0.1-1.4,0.1c-0.3,0-0.6,0-0.9,0c-0.4,0-0.7,0-1.1,0c-0.3,0-0.6,0-0.9,0c-0.3,0-0.7,0-1,0
					s-0.6,0-0.9-0.1c-0.3,0-0.7-0.1-1-0.1s-0.6-0.1-0.9-0.1c-0.4,0-0.7-0.1-1.1-0.2c-0.3,0-0.5-0.1-0.8-0.2
					c-0.4-0.1-0.8-0.2-1.2-0.3c-0.2-0.1-0.5-0.1-0.7-0.2c-0.7-0.2-1.5-0.4-2.1-0.7c-0.3-0.1-0.7-0.3-1-0.4c-0.2-0.1-0.4-0.2-0.5-0.2
					c-0.5-0.2-1-0.5-1.5-0.8l0.2,81.4c0.5,0.3,1,0.5,1.5,0.8c0.2,0.1,0.4,0.2,0.5,0.2c0.3,0.1,0.6,0.3,1,0.4l0,0
					c0.7,0.3,1.4,0.5,2.1,0.7c0.1,0,0.1,0,0.2,0.1c0.2,0,0.3,0.1,0.5,0.1c0.4,0.1,0.8,0.2,1.2,0.3c0.1,0,0.2,0.1,0.4,0.1
					c0.1,0,0.3,0,0.4,0.1c0.3,0.1,0.7,0.1,1.1,0.2c0.2,0,0.3,0.1,0.5,0.1c0.1,0,0.3,0,0.4,0c0.3,0,0.7,0.1,1,0.1
					c0.2,0,0.4,0,0.5,0.1c0.1,0,0.2,0,0.4,0c0.3,0,0.7,0,1,0c0.2,0,0.4,0,0.6,0c0.1,0,0.2,0,0.3,0c0.4,0,0.7,0,1.1,0
					c0.2,0,0.4,0,0.6,0c0.1,0,0.2,0,0.3,0c0.5,0,0.9-0.1,1.4-0.1c0.2,0,0.4,0,0.5,0h0.1c0.8-0.1,1.5-0.2,2.2-0.3h0.1
					c0.3,0,0.5-0.1,0.8-0.2c0.3-0.1,0.6-0.1,0.9-0.2s0.6-0.2,0.9-0.2c0.3-0.1,0.6-0.2,0.9-0.2c0,0,0.1,0,0.2,0
					c0.1,0,0.2-0.1,0.3-0.1c0.6-0.2,1.2-0.4,1.7-0.6c0.2-0.1,0.4-0.2,0.6-0.2c0.7-0.3,1.3-0.6,2-1l222.7-128.6
					c0.2-0.1,0.4-0.3,0.7-0.4c0.1-0.1,0.2-0.2,0.4-0.3c0.2-0.1,0.4-0.3,0.6-0.4c0.2-0.2,0.4-0.3,0.6-0.5c0.2-0.1,0.3-0.3,0.5-0.4
					c0.1-0.1,0.2-0.1,0.2-0.2c0.1-0.1,0.1-0.1,0.2-0.2c0.3-0.3,0.5-0.5,0.8-0.8c0.1-0.1,0.2-0.2,0.2-0.2s0.1-0.1,0.1-0.2
					c0.2-0.2,0.3-0.5,0.5-0.7c0.1-0.1,0.2-0.2,0.2-0.3c0,0,0-0.1,0.1-0.1c0.1-0.2,0.2-0.4,0.3-0.6c0.1-0.1,0.1-0.3,0.2-0.4v-0.1
					c0.1-0.2,0.1-0.4,0.2-0.6c0-0.1,0.1-0.3,0.1-0.5c0,0,0,0,0-0.1c0-0.2,0.1-0.4,0.1-0.6c0-0.1,0-0.3,0.1-0.5v-0.1L1175.3,382.5
					L1175.3,382.5z"/>
			</g>
			<g>
				<path class="st4" d="M1175.4,366l0.1,17.5v0.1l-0.1-17.5V366"/>
				<path class="st5" d="M1175.4,366.1l0.1,17.5c0,0.4-0.1,0.8-0.1,1.1l-0.1-17.5C1175.4,366.8,1175.4,366.5,1175.4,366.1"/>
				<path class="st6" d="M1175.3,367.2l0.1,17.5c-0.1,0.4-0.2,0.8-0.3,1.1l-0.1-17.5C1175.1,368,1175.2,367.6,1175.3,367.2"/>
				<path class="st7" d="M1175,368.4l0.1,17.5c-0.1,0.4-0.3,0.8-0.5,1.1l-0.1-17.5C1174.7,369.1,1174.9,368.7,1175,368.4"/>
				<path class="st8" d="M1174.5,369.5l0.1,17.5c-0.2,0.4-0.5,0.8-0.8,1.2l-0.1-17.5C1174,370.3,1174.3,369.9,1174.5,369.5"/>
				<path class="st9" d="M1173.7,370.7l0.1,17.5c-0.3,0.5-0.7,0.9-1.2,1.3l-0.1-17.5C1173,371.6,1173.4,371.1,1173.7,370.7"/>
				<path class="st10" d="M1172.5,372l0.1,17.5c-0.7,0.6-1.4,1.2-2.3,1.8l-0.1-17.5C1171.1,373.2,1171.9,372.6,1172.5,372"/>
				<path class="st11" d="M1170.2,373.8l0.1,17.5c-0.2,0.1-0.4,0.3-0.7,0.4l-0.1-17.5C1169.8,374.1,1170,373.9,1170.2,373.8"/>
			</g>
			<g>
				<path class="st12" d="M1175.4,366c0,3-1.9,6-5.9,8.2L946.9,502.8c-0.6,0.4-1.3,0.7-2,1c-0.2,0.1-0.4,0.2-0.6,0.2
					c-0.6,0.2-1.1,0.5-1.7,0.6c-0.2,0-0.3,0.1-0.5,0.1c-0.3,0.1-0.6,0.2-0.9,0.2s-0.6,0.2-0.9,0.2c-0.3,0.1-0.6,0.1-0.9,0.2
					s-0.6,0.1-0.9,0.2c-0.7,0.1-1.5,0.2-2.2,0.3c-0.2,0-0.5,0-0.7,0.1c-0.5,0-0.9,0.1-1.4,0.1c-0.3,0-0.6,0-0.9,0
					c-0.4,0-0.7,0-1.1,0c-0.3,0-0.6,0-0.9,0c-0.3,0-0.7,0-1,0s-0.6,0-0.9-0.1c-0.3,0-0.7-0.1-1-0.1s-0.6-0.1-0.9-0.1
					c-0.4,0-0.7-0.1-1.1-0.2c-0.3,0-0.5-0.1-0.8-0.2c-0.4-0.1-0.8-0.2-1.2-0.3c-0.2-0.1-0.5-0.1-0.7-0.2c-0.7-0.2-1.5-0.4-2.1-0.7
					c-0.3-0.1-0.7-0.3-1-0.4c-0.2-0.1-0.4-0.1-0.5-0.2c-0.5-0.2-1-0.5-1.5-0.8l-113.5-66c-3.8-2.2-5.8-5.2-5.8-8.1v17.5
					c0,3,1.9,5.9,5.8,8.1l113.5,66c0.5,0.3,1,0.5,1.5,0.8c0.2,0.1,0.4,0.2,0.5,0.2c0.3,0.1,0.6,0.3,1,0.4l0,0
					c0.7,0.3,1.4,0.5,2.1,0.7c0.1,0,0.1,0,0.2,0.1c0.2,0,0.3,0.1,0.5,0.1c0.4,0.1,0.8,0.2,1.2,0.3c0.1,0,0.2,0.1,0.4,0.1
					c0.1,0,0.3,0,0.4,0.1c0.3,0.1,0.7,0.1,1.1,0.2c0.2,0,0.3,0.1,0.5,0.1c0.1,0,0.3,0,0.4,0c0.3,0,0.7,0.1,1,0.1
					c0.2,0,0.4,0,0.5,0.1c0.1,0,0.2,0,0.4,0c0.3,0,0.7,0,1,0c0.2,0,0.4,0,0.6,0c0.1,0,0.2,0,0.3,0c0.4,0,0.7,0,1.1,0
					c0.2,0,0.4,0,0.6,0c0.1,0,0.2,0,0.3,0c0.5,0,0.9-0.1,1.4-0.1c0.2,0,0.4,0,0.5,0h0.1c0.8-0.1,1.5-0.2,2.2-0.3h0.1
					c0.3,0,0.5-0.1,0.8-0.2c0.3-0.1,0.6-0.1,0.9-0.2c0.3-0.1,0.6-0.2,0.9-0.2c0.3-0.1,0.6-0.2,0.9-0.2c0,0,0.1,0,0.2,0
					c0.1,0,0.2-0.1,0.3-0.1c0.6-0.2,1.2-0.4,1.7-0.6c0.2-0.1,0.4-0.2,0.6-0.2c0.7-0.3,1.3-0.6,2-1l222.7-128.6
					c3.9-2.3,5.9-5.3,5.9-8.2L1175.4,366L1175.4,366z"/>
				
					<linearGradient id="SVGID_00000046298719220890811890000014351568162320203198_" gradientUnits="userSpaceOnUse" x1="922.6092" y1="4687.4551" x2="1134.3292" y2="4654.2451" gradientTransform="matrix(1 0 0 1 0 -4280)">
					<stop  offset="0" style="stop-color:#404041"/>
					<stop  offset="0.26" style="stop-color:#343233"/>
					<stop  offset="0.66" style="stop-color:#272425"/>
					<stop  offset="1" style="stop-color:#231F20"/>
				</linearGradient>
				<path style="fill:url(#SVGID_00000046298719220890811890000014351568162320203198_);" d="M1027.8,291.8c7.8-4.5,20.5-4.5,28.3,0
					l113.5,66c7.8,4.5,7.7,11.9-0.1,16.4L946.9,502.8c-7.8,4.5-20.5,4.5-28.3,0l-113.5-66c-7.8-4.5-7.7-11.9,0.1-16.4L1027.8,291.8
					L1027.8,291.8z"/>
			</g>
			<g>
				<path d="M1074.7,345.1V345v-5.8c0,0.2,0,0.4-0.1,0.6c0,0.2,0,0.4-0.1,0.6c0,0.2-0.1,0.4-0.1,0.5c-0.1,0.2-0.1,0.4-0.2,0.6
					s-0.1,0.3-0.2,0.5s-0.2,0.4-0.3,0.6c-0.1,0.1-0.2,0.3-0.3,0.4c-0.1,0.2-0.3,0.5-0.5,0.7c-0.1,0.1-0.2,0.3-0.3,0.4
					c-0.2,0.3-0.5,0.6-0.8,0.8c-0.1,0.1-0.3,0.3-0.4,0.4c-0.2,0.1-0.3,0.3-0.5,0.4c-0.2,0.2-0.4,0.3-0.6,0.5
					c-0.2,0.1-0.4,0.3-0.6,0.4c-0.3,0.2-0.7,0.5-1,0.7L921,432.7c-0.6,0.4-1.3,0.7-2,1c-0.2,0.1-0.4,0.2-0.6,0.2
					c-0.6,0.2-1.1,0.5-1.7,0.6c-0.2,0-0.3,0.1-0.5,0.2c-0.3,0.1-0.6,0.2-0.9,0.2c-0.3,0.1-0.6,0.2-0.9,0.2c-0.3,0.1-0.6,0.1-0.9,0.2
					s-0.6,0.1-0.9,0.2c-0.7,0.1-1.5,0.2-2.2,0.3c-0.2,0-0.4,0-0.7,0.1c-0.5,0-0.9,0.1-1.4,0.1c-0.3,0-0.6,0-0.9,0
					c-0.4,0-0.7,0-1.1,0c-0.3,0-0.6,0-0.9,0c-0.3,0-0.7,0-1,0s-0.6,0-0.9-0.1c-0.3,0-0.7-0.1-1-0.1s-0.6-0.1-0.9-0.1
					c-0.3,0-0.7-0.1-1.1-0.2c-0.3,0-0.5-0.1-0.8-0.2c-0.4-0.1-0.8-0.2-1.2-0.3c-0.2-0.1-0.5-0.1-0.7-0.2c-0.7-0.2-1.5-0.4-2.1-0.7
					c-0.3-0.1-0.7-0.3-1-0.4c-0.2-0.1-0.4-0.1-0.5-0.2c-0.5-0.2-1-0.5-1.5-0.8L843,403.8c-3.8-2.2-5.8-5.2-5.8-8.1v5.8
					c0,3,1.9,5.9,5.8,8.1l49.7,28.9c0.5,0.3,1,0.5,1.5,0.8c0.2,0.1,0.4,0.1,0.5,0.2c0.3,0.1,0.6,0.3,1,0.4l0,0
					c0.7,0.3,1.4,0.5,2.1,0.7c0.1,0,0.1,0,0.2,0.1c0.2,0,0.3,0.1,0.5,0.1c0.4,0.1,0.8,0.2,1.2,0.3c0.1,0,0.2,0.1,0.4,0.1
					c0.1,0,0.3,0,0.4,0.1c0.3,0.1,0.7,0.1,1.1,0.2c0.2,0,0.3,0.1,0.5,0.1c0.1,0,0.3,0,0.4,0c0.3,0,0.7,0.1,1,0.1
					c0.2,0,0.4,0,0.5,0.1c0.1,0,0.3,0,0.4,0c0.3,0,0.7,0,1,0c0.2,0,0.4,0,0.6,0c0.1,0,0.2,0,0.3,0c0.4,0,0.7,0,1.1,0
					c0.2,0,0.4,0,0.6,0c0.1,0,0.2,0,0.3,0c0.5,0,0.9-0.1,1.4-0.1c0.2,0,0.4,0,0.5,0h0.1c0.8-0.1,1.5-0.2,2.2-0.3h0.1
					c0.2,0,0.5-0.1,0.8-0.2s0.6-0.1,0.9-0.2s0.6-0.2,0.9-0.2c0.3-0.1,0.6-0.2,0.9-0.2c0,0,0.1,0,0.2,0c0.1,0,0.2-0.1,0.3-0.1
					c0.6-0.2,1.2-0.4,1.7-0.6c0.2-0.1,0.4-0.2,0.6-0.2c0.7-0.3,1.3-0.6,2-1l147.8-85.3c0.2-0.1,0.4-0.3,0.7-0.4
					c0.1-0.1,0.2-0.2,0.4-0.3c0.2-0.1,0.4-0.3,0.6-0.4c0.2-0.2,0.4-0.3,0.6-0.5c0.2-0.1,0.3-0.3,0.5-0.4c0.1-0.1,0.2-0.1,0.2-0.2
					c0.1-0.1,0.1-0.1,0.2-0.2c0.3-0.3,0.5-0.5,0.8-0.8c0.1-0.1,0.2-0.2,0.2-0.2s0.1-0.1,0.1-0.2c0.2-0.2,0.3-0.5,0.5-0.7
					c0.1-0.1,0.2-0.2,0.2-0.3c0,0,0-0.1,0.1-0.1c0.1-0.2,0.2-0.4,0.3-0.6c0.1-0.1,0.1-0.3,0.2-0.4v-0.1c0.1-0.2,0.1-0.4,0.2-0.6
					c0-0.1,0.1-0.3,0.1-0.5c0,0,0,0,0-0.1c0-0.2,0.1-0.4,0.1-0.6C1074.6,345.4,1074.6,345.3,1074.7,345.1L1074.7,345.1z"/>
				
					<linearGradient id="SVGID_00000117662080006188052680000007249441036361932725_" gradientUnits="userSpaceOnUse" x1="837.2997" y1="4647.3999" x2="1074.5626" y2="4647.3999" gradientTransform="matrix(1 0 0 1 0 -4280)">
					<stop  offset="0" style="stop-color:#404041"/>
					<stop  offset="0.26" style="stop-color:#343233"/>
					<stop  offset="0.66" style="stop-color:#272425"/>
					<stop  offset="1" style="stop-color:#231F20"/>
				</linearGradient>
				<path style="fill:url(#SVGID_00000117662080006188052680000007249441036361932725_);" d="M990.9,302.1c7.8-4.5,20.5-4.5,28.2,0
					l49.7,28.9c7.7,4.5,7.7,11.9-0.1,16.4L921,432.7c-7.8,4.5-20.5,4.5-28.2,0l-49.7-28.9c-7.8-4.5-7.7-11.9,0.1-16.4L990.9,302.1
					L990.9,302.1z"/>
			</g>
			<g>
				<path class="st15" d="M939,490.2c0,0.3,0,0.6-0.2,0.9c0,0,0,0,0,0.1c-0.1,0.3-0.2,0.5-0.4,0.8c0,0,0,0.1-0.1,0.1
					c-0.2,0.2-0.4,0.5-0.7,0.7c-0.1,0.1-0.3,0.2-0.5,0.4c-0.2,0.2-0.5,0.4-0.7,0.5c-0.4,0.2-0.8,0.4-1.2,0.6c-0.1,0-0.2,0.1-0.4,0.1
					c-0.3,0.1-0.6,0.2-0.8,0.3c-0.2,0.1-0.5,0.1-0.8,0.2c-0.4,0.1-0.7,0.1-1.1,0.2c-0.1,0-0.1,0-0.2,0c-0.5,0-1,0.1-1.5,0.1
					c-0.1,0-0.1,0-0.2,0c-0.5,0-1,0-1.4-0.1c-0.1,0-0.1,0-0.2,0c-0.5-0.1-0.9-0.1-1.4-0.2c-0.1,0-0.2,0-0.3-0.1
					c-0.4-0.1-0.9-0.2-1.3-0.4h-0.1c-0.5-0.2-0.9-0.4-1.3-0.6c-1.7-1-2.5-2.2-2.5-3.5v1.2c0,1.3,0.8,2.5,2.5,3.5
					c0.4,0.2,0.8,0.4,1.3,0.6l0,0h0.1c0.3,0.1,0.6,0.2,0.9,0.3c0.1,0,0.2,0.1,0.4,0.1c0.1,0,0.2,0,0.3,0.1s0.2,0,0.3,0.1
					c0.3,0.1,0.6,0.1,0.8,0.1c0.1,0,0.2,0,0.2,0c0.1,0,0.1,0,0.2,0c0.1,0,0.2,0,0.4,0c0.3,0,0.6,0,0.8,0c0.1,0,0.1,0,0.2,0
					c0.1,0,0.1,0,0.2,0c0.2,0,0.3,0,0.4,0c0.3,0,0.6,0,0.9-0.1c0,0,0,0,0.1,0s0.1,0,0.2,0c0.3,0,0.5-0.1,0.8-0.1
					c0.1,0,0.2-0.1,0.3-0.1c0.3,0,0.5-0.1,0.8-0.2c0.2,0,0.3-0.1,0.5-0.1c0.1,0,0.3-0.1,0.4-0.1c0.1,0,0.2-0.1,0.4-0.1
					c0.4-0.2,0.8-0.4,1.2-0.6c0.1-0.1,0.2-0.1,0.3-0.2c0.2-0.1,0.3-0.2,0.4-0.3c0.2-0.1,0.3-0.2,0.5-0.4c0,0,0.1,0,0.1-0.1
					c0.2-0.2,0.4-0.4,0.5-0.6c0,0,0-0.1,0.1-0.1c0,0,0-0.1,0.1-0.1c0.1-0.1,0.1-0.2,0.2-0.3c0.1-0.2,0.2-0.3,0.2-0.5l0,0
					c0,0,0,0,0-0.1s0.1-0.2,0.1-0.4c0-0.2,0-0.3,0-0.5c0,0,0,0,0-0.1L939,490.2L939,490.2z"/>
				<path class="st15" d="M924.3,486.7c3.3-1.9,8.8-1.9,12.1,0s3.3,5.1,0,7c-3.4,1.9-8.8,1.9-12.1,0
					C921,491.8,921,488.6,924.3,486.7L924.3,486.7z"/>
			</g>
			<g>
				<path class="st15" d="M919.5,480.8c0,0.2,0,0.5-0.1,0.8c0,0,0,0,0,0.1c-0.1,0.2-0.2,0.5-0.3,0.7c0,0,0,0.1-0.1,0.1
					c-0.2,0.2-0.3,0.4-0.5,0.6c-0.1,0.1-0.2,0.2-0.4,0.3c-0.2,0.1-0.4,0.3-0.6,0.4c-0.4,0.2-0.9,0.5-1.5,0.6
					c-0.2,0.1-0.4,0.1-0.5,0.2c-0.2,0.1-0.4,0.1-0.6,0.1c-0.3,0.1-0.6,0.1-0.9,0.2c-0.1,0-0.1,0-0.2,0c-0.4,0-0.8,0.1-1.2,0.1
					c-0.1,0-0.1,0-0.2,0c-0.4,0-0.8,0-1.2-0.1c-0.1,0-0.1,0-0.2,0c-0.4,0-0.8-0.1-1.1-0.2c-0.1,0-0.1,0-0.2,0
					c-0.4-0.1-0.7-0.2-1-0.3h-0.1c-0.4-0.1-0.8-0.3-1.1-0.5c-1.4-0.8-2.1-1.8-2.1-2.9v1.2c0,1,0.7,2.1,2.1,2.9
					c0.3,0.2,0.7,0.4,1.1,0.5l0,0h0.1c0.2,0.1,0.5,0.2,0.8,0.2c0.1,0,0.2,0,0.3,0.1c0.1,0,0.1,0,0.2,0c0.1,0,0.2,0,0.2,0.1
					c0.2,0,0.5,0.1,0.7,0.1c0.1,0,0.1,0,0.2,0c0.1,0,0.1,0,0.2,0c0.1,0,0.2,0,0.3,0c0.2,0,0.5,0,0.7,0c0.1,0,0.1,0,0.2,0
					s0.1,0,0.2,0c0.1,0,0.2,0,0.4,0c0.3,0,0.5,0,0.8,0c0,0,0,0,0.1,0c0,0,0.1,0,0.2,0c0.2,0,0.4,0,0.7-0.1c0.1,0,0.2,0,0.3-0.1
					c0.2,0,0.4-0.1,0.6-0.1c0.1,0,0.3,0,0.4-0.1c0.1,0,0.1,0,0.2-0.1c0.5-0.2,1-0.4,1.5-0.6c0.1,0,0.2-0.1,0.2-0.1
					c0.1-0.1,0.2-0.2,0.4-0.3c0.1-0.1,0.3-0.2,0.4-0.3c0,0,0.1,0,0.1-0.1c0.2-0.1,0.3-0.3,0.4-0.5c0,0,0,0,0-0.1c0,0,0-0.1,0.1-0.1
					c0-0.1,0.1-0.2,0.2-0.2c0.1-0.1,0.1-0.3,0.2-0.4l0,0c0,0,0,0,0-0.1s0.1-0.2,0.1-0.3c0-0.1,0-0.3,0-0.4l0,0L919.5,480.8
					L919.5,480.8z"/>
				<path class="st15" d="M907.5,477.9c2.8-1.6,7.3-1.6,10,0s2.8,4.2,0,5.8c-2.8,1.6-7.3,1.6-10,0S904.7,479.5,907.5,477.9z"/>
			</g>
			<polygon class="st16" points="957.4,539.2 953.9,541.2 953.9,525.5 957.4,523.6 			"/>
			<path class="st17" d="M1003.7,564.9l114.9-66.3c3.5-2,6.3-6.3,6.3-9.5l-0.1-38.1c0-3.2-2.9-4.2-6.3-2.1l-114.9,66.3
				c-3.5,2-6.3,6.3-6.3,9.5l0.1,38.1C997.3,566,1000.2,566.9,1003.7,564.9"/>
			<g>
				<path class="st17" d="M1182.7,535c0,0.2,0,0.4-0.1,0.6c0,0.2-0.1,0.3-0.1,0.5c-0.1,0.2-0.1,0.4-0.2,0.6
					c-0.1,0.2-0.1,0.3-0.2,0.5s-0.2,0.4-0.3,0.6c-0.1,0.1-0.2,0.3-0.3,0.4c-0.1,0.2-0.3,0.5-0.5,0.7c-0.1,0.1-0.2,0.3-0.3,0.4
					c-0.2,0.3-0.5,0.6-0.8,0.8c-0.1,0.1-0.3,0.3-0.4,0.4c-0.2,0.2-0.3,0.3-0.5,0.4c-0.2,0.2-0.4,0.3-0.6,0.5
					c-0.2,0.1-0.4,0.3-0.6,0.4c-0.3,0.2-0.7,0.5-1,0.7l-84.5,48.8c-0.6,0.4-1.3,0.7-1.9,1c-0.2,0.1-0.4,0.2-0.6,0.2
					c-0.6,0.2-1.1,0.5-1.7,0.6c-0.2,0-0.3,0.1-0.4,0.2c-0.3,0.1-0.6,0.2-0.9,0.2s-0.6,0.2-0.9,0.2s-0.6,0.1-0.9,0.2
					s-0.6,0.1-0.9,0.2c-0.7,0.1-1.5,0.2-2.2,0.3c-0.2,0-0.4,0-0.7,0c-0.5,0-0.9,0.1-1.4,0.1c-0.3,0-0.6,0-0.9,0c-0.4,0-0.7,0-1.1,0
					c-0.3,0-0.6,0-0.9,0s-0.7,0-1,0s-0.6,0-0.9-0.1c-0.3,0-0.7-0.1-1-0.1s-0.6-0.1-0.9-0.1c-0.4,0-0.7-0.1-1.1-0.2
					c-0.3,0-0.6-0.1-0.8-0.2c-0.4-0.1-0.8-0.2-1.2-0.3c-0.2-0.1-0.5-0.1-0.7-0.2c-0.7-0.2-1.4-0.4-2.1-0.7c-0.3-0.1-0.7-0.3-1-0.4
					c-0.2-0.1-0.4-0.2-0.5-0.2c-0.5-0.2-1-0.5-1.5-0.8l-66.8-38.8v6.5l66.8,38.8c0.5,0.3,1,0.5,1.5,0.8c0.2,0.1,0.4,0.2,0.5,0.2
					c0.3,0.1,0.6,0.3,1,0.4c0,0,0,0,0.1,0c0.7,0.3,1.4,0.5,2.1,0.7c0.1,0,0.1,0,0.2,0.1c0.2,0,0.3,0.1,0.5,0.1
					c0.4,0.1,0.8,0.2,1.2,0.3c0.1,0,0.2,0.1,0.4,0.1c0.1,0,0.3,0,0.4,0.1c0.3,0.1,0.7,0.1,1.1,0.2c0.2,0,0.3,0.1,0.5,0.1
					c0.1,0,0.3,0,0.4,0c0.3,0,0.7,0.1,1,0.1c0.2,0,0.4,0,0.5,0.1c0.1,0,0.3,0,0.4,0c0.3,0,0.7,0,1,0c0.2,0,0.4,0,0.6,0
					c0.1,0,0.2,0,0.3,0c0.4,0,0.7,0,1.1,0c0.2,0,0.4,0,0.6,0c0.1,0,0.2,0,0.3,0c0.5,0,0.9-0.1,1.4-0.1c0.2,0,0.4,0,0.5,0h0.1
					c0.8-0.1,1.5-0.2,2.2-0.3h0.1c0.3,0,0.5-0.1,0.8-0.2c0.3-0.1,0.6-0.1,0.9-0.2c0.3-0.1,0.6-0.2,0.9-0.2c0.3-0.1,0.6-0.2,0.9-0.2
					c0.1,0,0.1,0,0.2,0s0.2-0.1,0.3-0.1c0.6-0.2,1.2-0.4,1.7-0.6c0.2-0.1,0.4-0.2,0.6-0.2c0.7-0.3,1.3-0.6,1.9-1l84.5-48.8
					c0.2-0.1,0.4-0.3,0.7-0.4c0.1-0.1,0.2-0.2,0.4-0.3c0.2-0.1,0.4-0.3,0.6-0.4c0.2-0.2,0.4-0.3,0.6-0.5s0.3-0.3,0.5-0.5
					c0.1-0.1,0.2-0.1,0.2-0.2c0.1-0.1,0.1-0.2,0.2-0.2c0.3-0.3,0.5-0.5,0.8-0.8c0.1-0.1,0.2-0.2,0.2-0.2s0.1-0.1,0.1-0.2
					c0.2-0.2,0.3-0.5,0.5-0.7c0.1-0.1,0.2-0.2,0.2-0.3c0,0,0-0.1,0.1-0.1c0.1-0.2,0.2-0.4,0.3-0.6c0.1-0.1,0.1-0.3,0.2-0.4v-0.1
					c0.1-0.2,0.1-0.4,0.2-0.6c0-0.2,0.1-0.3,0.1-0.5c0,0,0,0,0-0.1c0-0.2,0.1-0.4,0.1-0.6c0-0.2,0-0.3,0-0.4v-0.1v-6.5
					C1182.7,534.6,1182.7,534.8,1182.7,535L1182.7,535z"/>
				<path class="st18" d="M1177,526.3l-96.1-55.8l-77.3,44.7c-3.5,2-6.3,6.3-6.3,9.5l0.1,28l66.8,38.8c7.7,4.5,20.4,4.5,28.2,0
					l84.5-48.8C1184.7,538.2,1184.7,530.8,1177,526.3L1177,526.3z"/>
			</g>
			<path class="st19" d="M1205.2,538.4l-120.5-70l-81.1,46.8c-3.5,2-6.3,6.3-6.3,9.5l0.1,20.8l97.5,56.7L1205.2,538.4L1205.2,538.4z
				"/>
			<path class="st20" d="M1003.6,515.2c-3.5,2-6.3,6.3-6.3,9.5l0.1,19.5l103.7,55.6l106-66.3l-123.2-64.6L1003.6,515.2L1003.6,515.2
				z"/>
			<path class="st21" d="M1206.6,536.5l-118.5-70.1l-84.6,48.8c-3.5,2-6.3,6.3-6.3,9.5v17.1l97.9,58L1206.6,536.5L1206.6,536.5z"/>
			<path class="st22" d="M1205.2,535.1l-116.6-69l-85.1,49.1c-3.5,2-6.3,6.3-6.3,9.5v16.5l96.5,57.1L1205.2,535.1L1205.2,535.1z"/>
			
				<linearGradient id="SVGID_00000011016112164513375040000013040839165529083055_" gradientUnits="userSpaceOnUse" x1="1066.5559" y1="4758.1567" x2="1084.0359" y2="4788.4268" gradientTransform="matrix(1 0 0 1 0 -4280)">
				<stop  offset="0" style="stop-color:#524944"/>
				<stop  offset="4.000000e-02" style="stop-color:#5E5551"/>
				<stop  offset="0.22" style="stop-color:#8E8885"/>
				<stop  offset="0.4" style="stop-color:#B7B3B1"/>
				<stop  offset="0.57" style="stop-color:#D6D4D3"/>
				<stop  offset="0.73" style="stop-color:#ECEBEB"/>
				<stop  offset="0.88" style="stop-color:#FAFAF9"/>
				<stop  offset="1" style="stop-color:#FFFFFF"/>
			</linearGradient>
			<path style="fill:url(#SVGID_00000011016112164513375040000013040839165529083055_);" d="M1205.2,535.1l-116.6-69l-85.1,49.1
				c-3.5,2-6.3,6.3-6.3,9.5v16.5l96.5,57.1L1205.2,535.1L1205.2,535.1z"/>
			<g>
				<polyline class="st15" points="1087.7,575.1 1068.4,562.5 1062.8,566.2 1082.1,578.8 1087.7,575.1 				"/>
				<polyline class="st15" points="1097.4,568.7 1072.9,552.8 1067.3,556.4 1091.8,572.5 1097.4,568.7 				"/>
				<polyline class="st15" points="1106.6,562.8 1071.7,540.1 1066.2,543.7 1101,566.4 1106.6,562.8 				"/>
				<polyline class="st15" points="1115.8,556.7 1087.4,538.1 1081.8,541.9 1110.2,560.4 1115.8,556.7 				"/>
				<polyline class="st15" points="1125,550.7 1094.3,530.7 1088.7,534.3 1119.4,554.3 1125,550.7 				"/>
				<polyline class="st15" points="1134.2,544.6 1100.2,522.4 1094.7,526.1 1128.6,548.3 1134.2,544.6 				"/>
				<polyline class="st15" points="1143.4,538.6 1106.5,514.4 1100.9,518.2 1137.8,542.2 1143.4,538.6 				"/>
				<polyline class="st15" points="1152.6,532.5 1112.6,506.4 1107,510 1147.1,536.2 1152.6,532.5 				"/>
				<polyline class="st15" points="1161.8,526.5 1119.3,498.7 1113.7,502.3 1156.3,530.1 1161.8,526.5 				"/>
				<path class="st15" d="M1061.4,550.8c-0.3,0-0.6,0-0.9-0.1l-4.2,15.5c0.3,0,0.6,0,0.9,0.1L1061.4,550.8 M1060,537.2
					c-0.3,0-0.6,0.1-0.9,0l1.6,9.8c0.3,0,0.6-0.1,0.9-0.1L1060,537.2 M1075,535.3l-13-0.1c0.1,0.2,0.1,0.5,0,0.6l13,0.1
					C1075,535.7,1075,535.4,1075,535.3 M1084,530c-0.2-0.1-0.5-0.2-0.7-0.3c0,0,0,0-0.1,0l-4.3,4.3c0.3,0.1,0.6,0.2,0.8,0.3
					L1084,530 M1090.7,522.1c-0.3,0-0.6-0.1-0.9-0.2l-3.9,4.7c0.3,0,0.6,0.1,0.9,0.2L1090.7,522.1 M1097.2,514.4
					c-0.3-0.1-0.6-0.2-0.8-0.3l-3.8,4.5c0.3,0.1,0.6,0.2,0.8,0.3L1097.2,514.4 M1103.8,506.8c-0.3-0.1-0.6-0.2-0.8-0.3l-4,4.5
					c0.3,0.1,0.6,0.2,0.8,0.3L1103.8,506.8 M1111.2,499.5c-0.2-0.1-0.4-0.2-0.6-0.3c0,0-0.1,0-0.1-0.1l-4.4,4.2
					c0.3,0.1,0.6,0.2,0.8,0.3L1111.2,499.5"/>
				<path class="st15" d="M1063.4,547.6c-0.5-0.3-1.1-0.5-1.8-0.6c-0.3,0-0.6,0-0.9,0.1c-0.4,0.1-0.9,0.2-1.2,0.5
					c-1.1,0.7-1.1,1.9,0,2.6c0.3,0.2,0.7,0.3,1,0.5c0.3,0.1,0.6,0.1,0.9,0.1c0.7,0,1.4-0.2,2-0.6
					C1064.5,549.6,1064.5,548.4,1063.4,547.6"/>
				<path class="st15" d="M1058.2,566.6c-0.3-0.2-0.7-0.3-1-0.5c-0.3-0.1-0.6-0.1-0.9-0.1c-0.7,0-1.4,0.2-2,0.6
					c-1.1,0.7-1.1,1.9,0,2.6s2.9,0.7,4,0C1059.3,568.5,1059.3,567.4,1058.2,566.6"/>
				<path class="st15" d="M1079.8,534.3L1079.8,534.3c-0.3-0.1-0.5-0.2-0.8-0.3c-1-0.3-2.3-0.2-3.2,0.3c-0.4,0.2-0.7,0.7-0.8,1
					c-0.1,0.2-0.1,0.5,0,0.6c0.1,0.3,0.4,0.7,0.8,1c1.1,0.7,2.9,0.7,4,0C1080.9,536.1,1080.9,535,1079.8,534.3"/>
				<path class="st15" d="M1061.2,534.2c-1.1-0.7-2.9-0.7-4,0s-1.1,1.9,0,2.6c0.5,0.3,1.1,0.5,1.8,0.6c0.3,0,0.6,0,0.9,0
					c0.5-0.1,0.9-0.2,1.3-0.5c0.4-0.2,0.7-0.7,0.8-1c0.1-0.2,0.1-0.5,0-0.6C1061.9,534.9,1061.6,534.5,1061.2,534.2"/>
				<path class="st15" d="M1114.5,496.7c-1.1-0.7-2.9-0.7-4,0c-1.1,0.7-1.1,1.8-0.1,2.5c0,0,0.1,0,0.1,0.1c0.2,0.1,0.4,0.2,0.6,0.3
					c1.1,0.3,2.4,0.2,3.3-0.3C1115.6,498.6,1115.6,497.4,1114.5,496.7"/>
				<path class="st15" d="M1100,511.4c-0.1,0-0.1-0.1-0.2-0.1c-0.2-0.1-0.5-0.2-0.8-0.3c-1-0.2-2.1-0.1-2.9,0.5
					c-1.1,0.7-1.1,1.9,0,2.6c0.1,0,0.2,0.1,0.2,0.1c0.3,0.1,0.5,0.2,0.8,0.3c1,0.2,2.1,0.1,2.9-0.5
					C1101.2,513.2,1101.1,512.1,1100,511.4"/>
				<path class="st15" d="M1093.3,519.1C1093.3,519.1,1093.3,518.9,1093.3,519.1c-0.3-0.2-0.6-0.3-0.8-0.3c-1-0.3-2.3-0.2-3.1,0.3
					c-1.1,0.7-1.1,1.9,0,2.6c0.1,0.1,0.3,0.2,0.4,0.2c0.3,0.1,0.6,0.2,0.9,0.2c0.9,0.1,1.9,0,2.6-0.5
					C1094.4,520.9,1094.4,519.7,1093.3,519.1"/>
				<path class="st15" d="M1087.3,527.1c-0.1-0.1-0.3-0.2-0.5-0.2c-0.3-0.1-0.6-0.2-0.9-0.2c-0.9-0.1-1.9,0-2.6,0.5
					c-1.1,0.7-1.1,1.8-0.1,2.5c0,0,0,0,0.1,0c0.2,0.1,0.4,0.2,0.7,0.3c1.1,0.3,2.4,0.2,3.3-0.3
					C1088.4,528.9,1088.4,527.8,1087.3,527.1"/>
				<path class="st15" d="M1106.8,503.7L1106.8,503.7c-0.3-0.2-0.5-0.2-0.8-0.3c-1-0.3-2.3-0.2-3.2,0.3c-1.1,0.7-1.1,1.9,0,2.6
					c0.1,0,0.1,0.1,0.2,0.1c0.2,0.1,0.5,0.2,0.8,0.3c1,0.2,2.2,0.1,3-0.5C1107.9,505.6,1107.9,504.4,1106.8,503.7"/>
			</g>
			<path class="st24" d="M1021,515.4l34.9,20.1l5.6-3.2l-34.9-20.1L1021,515.4L1021,515.4z M1022.2,526.7l24.5,14.1l5.6-3.2
				l-24.5-14.1L1022.2,526.7z M1017.6,535.3l19.3,11.2l5.6-3.2l-19.3-11.2L1017.6,535.3L1017.6,535.3z M1018.2,521.2
				c1.1-0.6,1.1-1.7,0-2.3c-0.5-0.3-1.1-0.4-1.8-0.5l-1.6-8.7c0.5-0.1,0.9-0.2,1.3-0.4c0.4-0.2,0.7-0.5,0.8-0.9l13,0.1
				c0.1,0.3,0.4,0.6,0.8,0.9c1.1,0.6,2.9,0.6,4,0s1.1-1.7,0-2.3l0,0l4.3-3.8c1.1,0.3,2.4,0.2,3.3-0.3c1.1-0.6,1.1-1.7,0-2.3
				c-0.1-0.1-0.3-0.1-0.5-0.2l3.9-4.2c0.9,0.1,1.9,0,2.6-0.4c1.1-0.6,1.1-1.7,0-2.3l0,0l3.9-4.1c1,0.2,2.1,0.1,2.9-0.4
				c1.1-0.6,1.1-1.7,0-2.3c-0.1,0-0.1-0.1-0.2-0.1l2.3-2.3l-2.6,1.5l-0.5,0.5c-0.1,0-0.2,0-0.3,0l-3.3,1.9c0.1,0.3,0.4,0.5,0.7,0.8
				c0.1,0,0.2,0.1,0.2,0.1l-3.8,4c-1-0.3-2.3-0.1-3.1,0.3c-1.1,0.6-1.1,1.7,0,2.3c0.1,0.1,0.3,0.1,0.4,0.2l-3.9,4.2
				c-0.9-0.1-1.9,0-2.6,0.4c-1.1,0.6-1.1,1.6-0.1,2.2l-4.3,3.8c-1-0.3-2.3-0.2-3.2,0.3c-0.4,0.2-0.7,0.6-0.8,0.9l-13-0.1
				c0-0.1-0.1-0.2-0.2-0.3l-3.6,2c0.2,0,0.5,0.1,0.7,0.1l1.6,8.7c-0.5,0.1-0.9,0.2-1.2,0.4c-1.1,0.6-1.1,1.7,0,2.3
				c0.3,0.2,0.7,0.3,1,0.4l-4.2,13.7c-0.7,0-1.5,0.2-2,0.5c-1.1,0.6-1.1,1.7,0,2.3s2.9,0.6,4,0s1.1-1.7,0-2.3
				c-0.3-0.2-0.7-0.3-1-0.4l4.2-13.7C1016.9,521.7,1017.7,521.5,1018.2,521.2L1018.2,521.2z M1062.4,481.2l-2.6,1.5
				c0.7,0,1.3-0.2,1.8-0.5C1062.1,482,1062.4,481.6,1062.4,481.2L1062.4,481.2z M1043.6,507.1l30.7,17.7l5.6-3.2l-30.7-17.7
				L1043.6,507.1L1043.6,507.1z M1061.8,485.6l40.1,23.1l5.6-3.2l-40.1-23.1L1061.8,485.6L1061.8,485.6z M1074.1,475.6l-5.6,3.2
				l42.6,24.6l5.6-3.2L1074.1,475.6L1074.1,475.6z M1036.7,513.8l28.4,16.4l5.6-3.2l-28.4-16.4L1036.7,513.8z M1049.5,499.8l34,19.6
				l5.6-3.2l-34-19.6L1049.5,499.8L1049.5,499.8z M1055.8,492.8l37,21.3l5.6-3.2l-37-21.3L1055.8,492.8L1055.8,492.8z"/>
			<g>
				<path class="st25" d="M955.9,553.2c-0.3,0.6-0.3,1.4,0,1.9c0.3,0.4,0.8,0.3,1.1-0.4c0.3-0.6,0.3-1.5,0-1.9
					C956.7,552.5,956.2,552.6,955.9,553.2L955.9,553.2z"/>
				<path class="st25" d="M952.8,550.5l0.7,1c1.7-3.1,4.2-4,5.9-2l0.7-1.4C957.9,545.7,954.8,546.8,952.8,550.5L952.8,550.5z"/>
				<path class="st25" d="M954,552.2L954,552.2l0.7,1c0,0,0,0,0-0.1c0.9-1.9,2.4-2.4,3.3-1.2c0,0,0.1,0.1,0.1,0.2l0.7-1.5
					c0,0,0-0.1-0.1-0.1C957.4,548.8,955.3,549.6,954,552.2L954,552.2z"/>
			</g>
		</g>
	</g>
</g>
</svg>
