<?xml version="1.0" encoding="utf-8"?>
<!-- Generator: Adobe Illustrator 27.0.0, SVG Export Plug-In . SVG Version: 6.00 Build 0)  -->
<svg version="1.1" id="Слой_1" xmlns="http://www.w3.org/2000/svg" xmlns:xlink="http://www.w3.org/1999/xlink" x="0px" y="0px"
	 viewBox="0 0 1000 1000" style="enable-background:new 0 0 1000 1000;" xml:space="preserve">
<style type="text/css">
	.st0{fill:url(#SVGID_1_);}
	.st1{fill:url(#SVGID_00000162322376431773269420000006433757395664454018_);}
</style>
<linearGradient id="SVGID_1_" gradientUnits="userSpaceOnUse" x1="144.96" y1="492.565" x2="879.46" y2="492.565" gradientTransform="matrix(1 0 0 -1 0 1002)">
	<stop  offset="0" style="stop-color:#21D4FD"/>
	<stop  offset="0.9944" style="stop-color:#21D4FD"/>
</linearGradient>
<path class="st0" d="M225,396.4c33.1,0,53,17.2,53,47c0,16.7-5.7,28.9-17.2,36.8v1c15.9,6.7,23.9,21.1,23.9,42.8
	c0,15.4-5.5,27.3-16.2,36.1c-10.9,8.7-25.1,12.9-42.5,12.9h-70.9c-7.7,0-10.2-2.5-10.2-10.2V406.6c0-7.7,2.5-10.2,10.2-10.2H225z
	 M218.8,466.1c12.2,0,18.1-5.7,18.1-16.9s-6-16.9-18.1-16.9h-33.3v33.8H218.8z M223.5,501.1h-38.1v36.1h38.1
	c12.4,0,18.6-6,18.6-17.9C242.2,507.1,236,501.1,223.5,501.1z M300.3,502.6c0-32.4,19.1-49.9,53.9-49.9c35.7,0,54.2,19.8,54.2,47.4
	v13.7c0,7.4-3.8,11.2-11.7,11.2h-62.5v5.6c0,11.9,6.7,17.8,20.2,17.8c9.7,0,16.9-2.9,21.4-9c3.8-5.4,6.5-6.3,13-2.9l11,5.6
	c5.8,2.9,7,7.4,3.6,13.3c-8.8,13.9-25.2,20.9-49.4,20.9c-36.9,0-53.7-19.5-53.7-49.9L300.3,502.6L300.3,502.6z M374.2,497
	c0-11.5-6.7-17.3-20-17.3s-20,5.8-20,17.3v3.6h40V497z M530,562.9c3.8,7.2,2.5,10.1-5.6,10.1h-15.5c-9.7,0-11.9-1.1-14.8-7.6
	l-11.9-27.6c-2.5-6.1-7.2-9-14.2-9h-8.1v35.7c0,6.5-2,8.5-8.5,8.5h-16.9c-6.5,0-8.5-2-8.5-8.5v-99.8c0-6.5,2-8.5,8.5-8.5h16.9
	c6.5,0,8.5,2,8.5,8.5v33.9h4.5h1.8l25.2-35.7c3.8-6.1,6.3-6.7,16-6.7h15.1c8.5,0,10.6,3.4,5.8,9.9l-30.1,41.1
	c4.5,3.1,8.8,8.5,12.6,16.2L530,562.9z M631.6,456.1c6.1,0,8.3,2,8.3,8.3v14.4c0,6.1-2.2,8.1-8.3,8.1h-25.8v77.8
	c0,6.3-2,8.3-8.3,8.3h-17.3c-6.3,0-8.3-2-8.3-8.3v-77.8H546c-6.1,0-8.1-2-8.1-8.1v-14.4c0-6.3,2-8.3,8.1-8.3L631.6,456.1
	L631.6,456.1z M649.8,500.2c0-29.9,18.7-47.4,53.5-47.4c35.1,0,53.7,17.5,53.7,47.4v29c0,29.9-18.7,47.2-53.7,47.2
	c-34.8,0-53.5-17.5-53.5-47.2V500.2z M723,499.7c0-11.2-6.5-16.9-19.8-16.9c-13,0-19.5,5.6-19.5,16.9v29.7
	c0,11.2,6.5,16.9,19.5,16.9c13.3,0,19.8-5.6,19.8-16.9V499.7z M830.5,452.8c33,0,49,16.6,49,46.5v28.3c0,31.7-17.5,48.8-51.9,48.8
	c-5.2,0-11-0.7-17.8-2v39.8c0,6.3-2,8.3-8.1,8.3h-17.5c-6.3,0-8.3-2-8.3-8.3V472.8c0-7.4,1.8-10.1,9-13
	C797,455,812.3,452.8,830.5,452.8z M845.3,499.5c0-11-6.3-16.4-18.9-16.4c-5.2,0-10.3,0.5-15.5,1.6c-0.7,0.2-1.1,0.7-1.1,1.6v58.4
	c5.6,0.9,10.8,1.3,15.1,1.3c13.7,0,20.5-6.1,20.5-18.4V499.5z"/>
<linearGradient id="SVGID_00000137816920302670951430000010649169523907697318_" gradientUnits="userSpaceOnUse" x1="294.22" y1="630.2162" x2="879.4587" y2="630.2162" gradientTransform="matrix(1 0 0 -1 0 1002)">
	<stop  offset="0" style="stop-color:#21D4FD"/>
	<stop  offset="0.9944" style="stop-color:#21D4FD"/>
</linearGradient>
<path style="fill:url(#SVGID_00000137816920302670951430000010649169523907697318_);" d="M877.6,422.4l-7.4,8
	c-1.1,1.2-2.7,1.9-4.3,1.9H300.7c0-0.7,0-1.4,0-2.2c0-10.7-2.3-19.8-6.5-27.1h535.7l-64.2-69c-2.5-2.6-2.5-6.9,0-9.5l10.4-11.1
	c2.5-2.6,6.4-2.6,8.9,0l85.2,91.5l0.2,0.2l7.2,7.8C880.1,415.5,880.1,419.8,877.6,422.4z"/>
</svg>
