<?xml version="1.0" encoding="utf-8"?>
<!-- Generator: Adobe Illustrator 27.0.0, SVG Export Plug-In . SVG Version: 6.00 Build 0)  -->
<svg version="1.1" id="Слой_1" xmlns="http://www.w3.org/2000/svg" xmlns:xlink="http://www.w3.org/1999/xlink" x="0px" y="0px"
	 viewBox="0 0 1000 1000" style="enable-background:new 0 0 1000 1000;" xml:space="preserve">
<style type="text/css">
	.st0{fill:url(#SVGID_1_);}
	.st1{fill:url(#SVGID_00000143597052908550196150000004901165475899112330_);}
</style>
<linearGradient id="SVGID_1_" gradientUnits="userSpaceOnUse" x1="144.9589" y1="509.4308" x2="879.4598" y2="509.4308">
	<stop  offset="0" style="stop-color:#21D4FD"/>
	<stop  offset="0.137" style="stop-color:#30C2FD"/>
	<stop  offset="0.411" style="stop-color:#5694FE"/>
	<stop  offset="0.7928" style="stop-color:#944BFF"/>
	<stop  offset="0.9944" style="stop-color:#B721FF"/>
</linearGradient>
<path class="st0" d="M225.03,396.43c33.07,0,52.97,17.16,52.97,47c0,16.66-5.72,28.85-17.16,36.8v0.99
	c15.92,6.71,23.87,21.14,23.87,42.77c0,15.42-5.47,27.35-16.16,36.06c-10.94,8.7-25.12,12.93-42.52,12.93h-70.87
	c-7.71,0-10.2-2.49-10.2-10.2V406.63c0-7.71,2.49-10.2,10.2-10.2H225.03z M218.82,466.06c12.18,0,18.15-5.72,18.15-16.91
	s-5.97-16.91-18.15-16.91h-33.32v33.82H218.82z M223.54,501.12h-38.05v36.06h38.05c12.43,0,18.65-5.97,18.65-17.9
	C242.19,507.09,235.97,501.12,223.54,501.12z M300.32,502.65c0-32.36,19.1-49.89,53.94-49.89c35.73,0,54.16,19.78,54.16,47.42v13.71
	c0,7.42-3.82,11.24-11.69,11.24h-62.48v5.62c0,11.91,6.74,17.75,20.23,17.75c9.66,0,16.85-2.92,21.35-8.99
	c3.82-5.39,6.52-6.29,13.03-2.92l11.01,5.62c5.84,2.92,6.97,7.42,3.6,13.26c-8.76,13.93-25.17,20.9-49.44,20.9
	c-36.86,0-53.71-19.55-53.71-49.89V502.65z M374.25,497.03c0-11.46-6.74-17.3-20-17.3c-13.26,0-20,5.84-20,17.3v3.6h40V497.03z
	 M529.99,562.88c3.82,7.19,2.47,10.11-5.62,10.11h-15.51c-9.66,0-11.91-1.12-14.83-7.64l-11.91-27.64
	c-2.47-6.07-7.19-8.99-14.16-8.99h-8.09v35.73c0,6.52-2.02,8.54-8.54,8.54h-16.85c-6.52,0-8.54-2.02-8.54-8.54v-99.78
	c0-6.52,2.02-8.54,8.54-8.54h16.85c6.52,0,8.54,2.02,8.54,8.54v33.93h4.49h1.8l25.17-35.73c3.82-6.07,6.29-6.74,15.96-6.74h15.06
	c8.54,0,10.56,3.37,5.84,9.89l-30.11,41.13c4.5,3.15,8.76,8.54,12.59,16.18L529.99,562.88z M631.57,456.13
	c6.07,0,8.31,2.02,8.31,8.31v14.38c0,6.07-2.25,8.09-8.31,8.09h-25.84v77.76c0,6.29-2.02,8.31-8.31,8.31h-17.3
	c-6.29,0-8.32-2.02-8.32-8.31v-77.76h-25.84c-6.07,0-8.09-2.02-8.09-8.09v-14.38c0-6.29,2.02-8.31,8.09-8.31H631.57z M649.78,500.18
	c0-29.89,18.65-47.42,53.49-47.42c35.06,0,53.71,17.53,53.71,47.42v28.99c0,29.89-18.65,47.19-53.71,47.19
	c-34.83,0-53.49-17.53-53.49-47.19V500.18z M723.04,499.73c0-11.24-6.52-16.85-19.78-16.85c-13.03,0-19.55,5.62-19.55,16.85v29.67
	c0,11.24,6.52,16.86,19.55,16.86c13.26,0,19.78-5.62,19.78-16.86V499.73z M830.47,452.76c33.04,0,48.99,16.63,48.99,46.52v28.32
	c0,31.69-17.53,48.77-51.91,48.77c-5.17,0-11.01-0.68-17.75-2.02v39.78c0,6.29-2.02,8.31-8.09,8.31h-17.53
	c-6.29,0-8.32-2.02-8.32-8.31V472.76c0-7.42,1.8-10.11,8.99-13.03C796.98,455.01,812.27,452.76,830.47,452.76z M845.3,499.5
	c0-11.01-6.29-16.41-18.88-16.41c-5.17,0-10.34,0.45-15.51,1.57c-0.68,0.23-1.12,0.68-1.12,1.57v58.43
	c5.62,0.9,10.79,1.35,15.06,1.35c13.71,0,20.45-6.07,20.45-18.43V499.5z"/>
<linearGradient id="SVGID_00000062912926225733847880000016929205388199355568_" gradientUnits="userSpaceOnUse" x1="294.2188" y1="371.7827" x2="879.4598" y2="371.7827">
	<stop  offset="0" style="stop-color:#21D4FD"/>
	<stop  offset="0.137" style="stop-color:#30C2FD"/>
	<stop  offset="0.411" style="stop-color:#5694FE"/>
	<stop  offset="0.7928" style="stop-color:#944BFF"/>
	<stop  offset="0.9944" style="stop-color:#B721FF"/>
</linearGradient>
<path style="fill:url(#SVGID_00000062912926225733847880000016929205388199355568_);" d="M877.62,422.39l-7.44,7.99
	c-1.13,1.16-2.65,1.86-4.33,1.86H300.73c0.02-0.72,0.04-1.44,0.04-2.17c0-10.69-2.27-19.79-6.55-27.09h535.7l-64.23-68.99
	c-2.45-2.63-2.45-6.9,0-9.55l10.38-11.14c2.45-2.63,6.44-2.63,8.89,0l85.23,91.55l0.21,0.23l7.23,7.77
	C880.07,415.47,880.07,419.75,877.62,422.39z"/>
</svg>
